<?xml version="1.0" encoding="utf-8" standalone="no"?>
<!DOCTYPE svg PUBLIC "-//W3C//DTD SVG 1.1//EN"
  "http://www.w3.org/Graphics/SVG/1.1/DTD/svg11.dtd">
<svg xmlns:xlink="http://www.w3.org/1999/xlink" width="540pt" height="540pt" viewBox="0 0 540 540" xmlns="http://www.w3.org/2000/svg" version="1.1">
 <metadata>
  <rdf:RDF xmlns:dc="http://purl.org/dc/elements/1.1/" xmlns:cc="http://creativecommons.org/ns#" xmlns:rdf="http://www.w3.org/1999/02/22-rdf-syntax-ns#">
   <cc:Work>
    <dc:type rdf:resource="http://purl.org/dc/dcmitype/StillImage"/>
    <dc:date>2025-03-20T13:44:50.822093</dc:date>
    <dc:format>image/svg+xml</dc:format>
    <dc:creator>
     <cc:Agent>
      <dc:title>Matplotlib v3.8.4, https://matplotlib.org/</dc:title>
     </cc:Agent>
    </dc:creator>
   </cc:Work>
  </rdf:RDF>
 </metadata>
 <defs>
  <style type="text/css">*{stroke-linejoin: round; stroke-linecap: butt}</style>
 </defs>
 <g id="figure_1">
  <g id="patch_1">
   <path d="M 0 540 
L 540 540 
L 540 0 
L 0 0 
z
" style="fill: #ffffff"/>
  </g>
  <g id="axes_1">
   <g id="patch_2">
    <path d="M 47.41 166.616393 
L 200.598349 166.616393 
L 200.598349 10.4 
L 47.41 10.4 
z
" style="fill: #ffffff"/>
   </g>
   <g id="matplotlib.axis_1">
    <g id="xtick_1">
     <g id="line2d_1">
      <defs>
       <path id="maf6bf84369" d="M 0 0 
L 0 3.5 
" style="stroke: #000000; stroke-width: 0.8"/>
      </defs>
      <g>
       <use xlink:href="#maf6bf84369" x="52.301149" y="166.616393" style="stroke: #000000; stroke-width: 0.8"/>
      </g>
     </g>
    </g>
    <g id="xtick_2">
     <g id="line2d_2">
      <g>
       <use xlink:href="#maf6bf84369" x="87.72296" y="166.616393" style="stroke: #000000; stroke-width: 0.8"/>
      </g>
     </g>
    </g>
    <g id="xtick_3">
     <g id="line2d_3">
      <g>
       <use xlink:href="#maf6bf84369" x="123.144772" y="166.616393" style="stroke: #000000; stroke-width: 0.8"/>
      </g>
     </g>
    </g>
    <g id="xtick_4">
     <g id="line2d_4">
      <g>
       <use xlink:href="#maf6bf84369" x="158.566584" y="166.616393" style="stroke: #000000; stroke-width: 0.8"/>
      </g>
     </g>
    </g>
    <g id="xtick_5">
     <g id="line2d_5">
      <g>
       <use xlink:href="#maf6bf84369" x="193.988396" y="166.616393" style="stroke: #000000; stroke-width: 0.8"/>
      </g>
     </g>
    </g>
   </g>
   <g id="patch_3">
    <path d="M 47.41 166.616393 
L 200.598349 166.616393 
" style="fill: none; stroke: #000000; stroke-width: 0.8; stroke-linejoin: miter; stroke-linecap: square"/>
   </g>
   <g id="text_1">
    <!-- r = 1.00  -->
    <g transform="translate(62.728835 26.021639) scale(0.1 -0.1)">
     <defs>
      <path id="DejaVuSans-72" d="M 2631 2963 
Q 2534 3019 2420 3045 
Q 2306 3072 2169 3072 
Q 1681 3072 1420 2755 
Q 1159 2438 1159 1844 
L 1159 0 
L 581 0 
L 581 3500 
L 1159 3500 
L 1159 2956 
Q 1341 3275 1631 3429 
Q 1922 3584 2338 3584 
Q 2397 3584 2469 3576 
Q 2541 3569 2628 3553 
L 2631 2963 
z
" transform="scale(0.015625)"/>
      <path id="DejaVuSans-20" transform="scale(0.015625)"/>
      <path id="DejaVuSans-3d" d="M 678 2906 
L 4684 2906 
L 4684 2381 
L 678 2381 
L 678 2906 
z
M 678 1631 
L 4684 1631 
L 4684 1100 
L 678 1100 
L 678 1631 
z
" transform="scale(0.015625)"/>
      <path id="DejaVuSans-31" d="M 794 531 
L 1825 531 
L 1825 4091 
L 703 3866 
L 703 4441 
L 1819 4666 
L 2450 4666 
L 2450 531 
L 3481 531 
L 3481 0 
L 794 0 
L 794 531 
z
" transform="scale(0.015625)"/>
      <path id="DejaVuSans-2e" d="M 684 794 
L 1344 794 
L 1344 0 
L 684 0 
L 684 794 
z
" transform="scale(0.015625)"/>
      <path id="DejaVuSans-30" d="M 2034 4250 
Q 1547 4250 1301 3770 
Q 1056 3291 1056 2328 
Q 1056 1369 1301 889 
Q 1547 409 2034 409 
Q 2525 409 2770 889 
Q 3016 1369 3016 2328 
Q 3016 3291 2770 3770 
Q 2525 4250 2034 4250 
z
M 2034 4750 
Q 2819 4750 3233 4129 
Q 3647 3509 3647 2328 
Q 3647 1150 3233 529 
Q 2819 -91 2034 -91 
Q 1250 -91 836 529 
Q 422 1150 422 2328 
Q 422 3509 836 4129 
Q 1250 4750 2034 4750 
z
" transform="scale(0.015625)"/>
     </defs>
     <use xlink:href="#DejaVuSans-72"/>
     <use xlink:href="#DejaVuSans-20" x="41.113281"/>
     <use xlink:href="#DejaVuSans-3d" x="72.900391"/>
     <use xlink:href="#DejaVuSans-20" x="156.689453"/>
     <use xlink:href="#DejaVuSans-31" x="188.476562"/>
     <use xlink:href="#DejaVuSans-2e" x="252.099609"/>
     <use xlink:href="#DejaVuSans-30" x="283.886719"/>
     <use xlink:href="#DejaVuSans-30" x="347.509766"/>
     <use xlink:href="#DejaVuSans-20" x="411.132812"/>
    </g>
   </g>
   <g id="text_2">
    <!-- p = 0.000 -->
    <g transform="translate(124.004174 26.021639) scale(0.1 -0.1)">
     <defs>
      <path id="DejaVuSans-70" d="M 1159 525 
L 1159 -1331 
L 581 -1331 
L 581 3500 
L 1159 3500 
L 1159 2969 
Q 1341 3281 1617 3432 
Q 1894 3584 2278 3584 
Q 2916 3584 3314 3078 
Q 3713 2572 3713 1747 
Q 3713 922 3314 415 
Q 2916 -91 2278 -91 
Q 1894 -91 1617 61 
Q 1341 213 1159 525 
z
M 3116 1747 
Q 3116 2381 2855 2742 
Q 2594 3103 2138 3103 
Q 1681 3103 1420 2742 
Q 1159 2381 1159 1747 
Q 1159 1113 1420 752 
Q 1681 391 2138 391 
Q 2594 391 2855 752 
Q 3116 1113 3116 1747 
z
" transform="scale(0.015625)"/>
     </defs>
     <use xlink:href="#DejaVuSans-70"/>
     <use xlink:href="#DejaVuSans-20" x="63.476562"/>
     <use xlink:href="#DejaVuSans-3d" x="95.263672"/>
     <use xlink:href="#DejaVuSans-20" x="179.052734"/>
     <use xlink:href="#DejaVuSans-30" x="210.839844"/>
     <use xlink:href="#DejaVuSans-2e" x="274.462891"/>
     <use xlink:href="#DejaVuSans-30" x="306.25"/>
     <use xlink:href="#DejaVuSans-30" x="369.873047"/>
     <use xlink:href="#DejaVuSans-30" x="433.496094"/>
    </g>
   </g>
  </g>
  <g id="axes_2">
   <g id="patch_4">
    <path d="M 47.41 332.528196 
L 200.598349 332.528196 
L 200.598349 176.311804 
L 47.41 176.311804 
z
" style="fill: #ffffff"/>
   </g>
   <g id="PathCollection_1">
    <defs>
     <path id="md1a36164bc" d="M 0 3 
C 0.795609 3 1.55874 2.683901 2.12132 2.12132 
C 2.683901 1.55874 3 0.795609 3 0 
C 3 -0.795609 2.683901 -1.55874 2.12132 -2.12132 
C 1.55874 -2.683901 0.795609 -3 0 -3 
C -0.795609 -3 -1.55874 -2.683901 -2.12132 -2.12132 
C -2.683901 -1.55874 -3 -0.795609 -3 0 
C -3 0.795609 -2.683901 1.55874 -2.12132 2.12132 
C -1.55874 2.683901 -0.795609 3 0 3 
z
" style="stroke: #1f77b4; stroke-opacity: 0.8"/>
    </defs>
    <g clip-path="url(#pb44e501f24)">
     <use xlink:href="#md1a36164bc" x="152.670893" y="261.824752" style="fill: #1f77b4; fill-opacity: 0.8; stroke: #1f77b4; stroke-opacity: 0.8"/>
     <use xlink:href="#md1a36164bc" x="109.157169" y="251.71199" style="fill: #1f77b4; fill-opacity: 0.8; stroke: #1f77b4; stroke-opacity: 0.8"/>
     <use xlink:href="#md1a36164bc" x="131.856504" y="197.012691" style="fill: #1f77b4; fill-opacity: 0.8; stroke: #1f77b4; stroke-opacity: 0.8"/>
     <use xlink:href="#md1a36164bc" x="183.743054" y="287.838594" style="fill: #1f77b4; fill-opacity: 0.8; stroke: #1f77b4; stroke-opacity: 0.8"/>
     <use xlink:href="#md1a36164bc" x="135.901755" y="218.829493" style="fill: #1f77b4; fill-opacity: 0.8; stroke: #1f77b4; stroke-opacity: 0.8"/>
     <use xlink:href="#md1a36164bc" x="125.327633" y="325.427451" style="fill: #1f77b4; fill-opacity: 0.8; stroke: #1f77b4; stroke-opacity: 0.8"/>
     <use xlink:href="#md1a36164bc" x="144.861819" y="237.306991" style="fill: #1f77b4; fill-opacity: 0.8; stroke: #1f77b4; stroke-opacity: 0.8"/>
     <use xlink:href="#md1a36164bc" x="140.411443" y="214.372205" style="fill: #1f77b4; fill-opacity: 0.8; stroke: #1f77b4; stroke-opacity: 0.8"/>
     <use xlink:href="#md1a36164bc" x="59.37385" y="183.412549" style="fill: #1f77b4; fill-opacity: 0.8; stroke: #1f77b4; stroke-opacity: 0.8"/>
     <use xlink:href="#md1a36164bc" x="61.301623" y="304.548588" style="fill: #1f77b4; fill-opacity: 0.8; stroke: #1f77b4; stroke-opacity: 0.8"/>
     <use xlink:href="#md1a36164bc" x="177.231698" y="197.297879" style="fill: #1f77b4; fill-opacity: 0.8; stroke: #1f77b4; stroke-opacity: 0.8"/>
     <use xlink:href="#md1a36164bc" x="167.582429" y="207.983865" style="fill: #1f77b4; fill-opacity: 0.8; stroke: #1f77b4; stroke-opacity: 0.8"/>
     <use xlink:href="#md1a36164bc" x="67.853828" y="243.602564" style="fill: #1f77b4; fill-opacity: 0.8; stroke: #1f77b4; stroke-opacity: 0.8"/>
     <use xlink:href="#md1a36164bc" x="104.895999" y="184.080764" style="fill: #1f77b4; fill-opacity: 0.8; stroke: #1f77b4; stroke-opacity: 0.8"/>
     <use xlink:href="#md1a36164bc" x="54.373107" y="251.778882" style="fill: #1f77b4; fill-opacity: 0.8; stroke: #1f77b4; stroke-opacity: 0.8"/>
     <use xlink:href="#md1a36164bc" x="136.969653" y="303.68353" style="fill: #1f77b4; fill-opacity: 0.8; stroke: #1f77b4; stroke-opacity: 0.8"/>
     <use xlink:href="#md1a36164bc" x="151.786332" y="214.160183" style="fill: #1f77b4; fill-opacity: 0.8; stroke: #1f77b4; stroke-opacity: 0.8"/>
     <use xlink:href="#md1a36164bc" x="142.97091" y="279.093502" style="fill: #1f77b4; fill-opacity: 0.8; stroke: #1f77b4; stroke-opacity: 0.8"/>
     <use xlink:href="#md1a36164bc" x="120.352454" y="271.330373" style="fill: #1f77b4; fill-opacity: 0.8; stroke: #1f77b4; stroke-opacity: 0.8"/>
     <use xlink:href="#md1a36164bc" x="149.976547" y="269.188758" style="fill: #1f77b4; fill-opacity: 0.8; stroke: #1f77b4; stroke-opacity: 0.8"/>
     <use xlink:href="#md1a36164bc" x="70.246722" y="243.880527" style="fill: #1f77b4; fill-opacity: 0.8; stroke: #1f77b4; stroke-opacity: 0.8"/>
     <use xlink:href="#md1a36164bc" x="139.922819" y="306.882313" style="fill: #1f77b4; fill-opacity: 0.8; stroke: #1f77b4; stroke-opacity: 0.8"/>
     <use xlink:href="#md1a36164bc" x="193.635242" y="285.565498" style="fill: #1f77b4; fill-opacity: 0.8; stroke: #1f77b4; stroke-opacity: 0.8"/>
     <use xlink:href="#md1a36164bc" x="69.450963" y="199.948744" style="fill: #1f77b4; fill-opacity: 0.8; stroke: #1f77b4; stroke-opacity: 0.8"/>
    </g>
   </g>
   <g id="PolyCollection_1">
    <path d="M 54.373107 203.921597 
L 54.373107 271.541746 
L 55.779795 271.16919 
L 57.186483 270.795644 
L 58.593171 270.486853 
L 59.99986 270.26564 
L 61.406548 270.044427 
L 62.813236 269.823214 
L 64.219924 269.606687 
L 65.626613 269.334085 
L 67.033301 268.96333 
L 68.439989 268.893136 
L 69.846677 268.72964 
L 71.253366 268.515088 
L 72.660054 268.297007 
L 74.066742 268.07773 
L 75.47343 267.814702 
L 76.880119 267.500053 
L 78.286807 267.283708 
L 79.693495 267.056691 
L 81.100183 266.983573 
L 82.506871 266.917907 
L 83.91356 266.853264 
L 85.320248 266.778263 
L 86.726936 266.70772 
L 88.133624 266.637112 
L 89.540313 266.573362 
L 90.947001 266.48975 
L 92.353689 266.282025 
L 93.760377 266.165476 
L 95.167066 265.835798 
L 96.573754 265.827663 
L 97.980442 265.67506 
L 99.38713 265.512197 
L 100.793819 265.398841 
L 102.200507 265.310132 
L 103.607195 265.122052 
L 105.013883 264.967594 
L 106.420572 265.060238 
L 107.82726 265.119538 
L 109.233948 265.056851 
L 110.640636 265.175796 
L 112.047324 265.217667 
L 113.454013 265.234081 
L 114.860701 265.199165 
L 116.267389 265.216368 
L 117.674077 265.081725 
L 119.080766 264.779264 
L 120.487454 265.043587 
L 121.894142 264.976835 
L 123.30083 264.90594 
L 124.707519 265.098652 
L 126.114207 265.311663 
L 127.520895 265.493998 
L 128.927583 265.525908 
L 130.334272 265.819729 
L 131.74096 266.030191 
L 133.147648 266.40177 
L 134.554336 266.709483 
L 135.961024 267.205334 
L 137.367713 267.385527 
L 138.774401 267.728943 
L 140.181089 267.819645 
L 141.587777 267.87263 
L 142.994466 268.583551 
L 144.401154 268.729445 
L 145.807842 268.619512 
L 147.21453 269.394725 
L 148.621219 269.878222 
L 150.027907 270.760247 
L 151.434595 271.363404 
L 152.841283 271.854367 
L 154.247972 272.640399 
L 155.65466 273.006693 
L 157.061348 273.488425 
L 158.468036 274.054451 
L 159.874724 274.681233 
L 161.281413 274.858018 
L 162.688101 275.314179 
L 164.094789 275.88375 
L 165.501477 276.453321 
L 166.908166 277.022892 
L 168.314854 277.592463 
L 169.721542 277.985111 
L 171.12823 278.316601 
L 172.534919 278.653421 
L 173.941607 279.356926 
L 175.348295 280.060431 
L 176.754983 280.763936 
L 178.161672 281.467442 
L 179.56836 282.170947 
L 180.975048 282.783492 
L 182.381736 283.187396 
L 183.788424 283.691779 
L 185.195113 284.514381 
L 186.601801 285.1082 
L 188.008489 285.931011 
L 189.415177 286.747012 
L 190.821866 287.432398 
L 192.228554 287.88669 
L 193.635242 288.338824 
L 193.635242 223.737467 
L 193.635242 223.737467 
L 192.228554 224.032005 
L 190.821866 224.384459 
L 189.415177 224.736914 
L 188.008489 225.015398 
L 186.601801 224.987907 
L 185.195113 225.380541 
L 183.788424 225.399028 
L 182.381736 225.945239 
L 180.975048 226.400735 
L 179.56836 226.657975 
L 178.161672 227.230467 
L 176.754983 227.591083 
L 175.348295 227.76373 
L 173.941607 227.936377 
L 172.534919 227.983291 
L 171.12823 228.137792 
L 169.721542 228.381109 
L 168.314854 228.614353 
L 166.908166 228.783649 
L 165.501477 228.956079 
L 164.094789 229.129291 
L 162.688101 229.305653 
L 161.281413 229.53649 
L 159.874724 229.925954 
L 158.468036 230.303665 
L 157.061348 230.252673 
L 155.65466 230.202421 
L 154.247972 230.636807 
L 152.841283 231.062634 
L 151.434595 231.187702 
L 150.027907 231.346898 
L 148.621219 231.438115 
L 147.21453 231.570444 
L 145.807842 231.808076 
L 144.401154 232.069742 
L 142.994466 232.301833 
L 141.587777 232.575803 
L 140.181089 232.626444 
L 138.774401 232.646058 
L 137.367713 232.431247 
L 135.961024 232.324276 
L 134.554336 232.160422 
L 133.147648 232.138727 
L 131.74096 231.837147 
L 130.334272 231.537097 
L 128.927583 231.368784 
L 127.520895 231.001922 
L 126.114207 230.673005 
L 124.707519 230.43866 
L 123.30083 230.276727 
L 121.894142 229.732684 
L 120.487454 229.397619 
L 119.080766 229.133612 
L 117.674077 228.670241 
L 116.267389 228.32126 
L 114.860701 227.891766 
L 113.454013 227.735593 
L 112.047324 227.195827 
L 110.640636 226.840317 
L 109.233948 226.402573 
L 107.82726 226.153069 
L 106.420572 225.833587 
L 105.013883 225.214506 
L 103.607195 224.690532 
L 102.200507 224.387098 
L 100.793819 223.990561 
L 99.38713 223.782776 
L 97.980442 223.434288 
L 96.573754 222.945366 
L 95.167066 222.752934 
L 93.760377 222.351448 
L 92.353689 221.755405 
L 90.947001 221.159362 
L 89.540313 220.564165 
L 88.133624 219.945526 
L 86.726936 219.272512 
L 85.320248 218.556213 
L 83.91356 217.899873 
L 82.506871 217.189304 
L 81.100183 216.614058 
L 79.693495 216.270176 
L 78.286807 215.775037 
L 76.880119 215.207448 
L 75.47343 214.712225 
L 74.066742 214.094226 
L 72.660054 213.476226 
L 71.253366 212.779527 
L 69.846677 212.176299 
L 68.439989 211.38287 
L 67.033301 210.728245 
L 65.626613 209.959513 
L 64.219924 209.142785 
L 62.813236 208.554992 
L 61.406548 208.019804 
L 59.99986 207.313132 
L 58.593171 206.610202 
L 57.186483 205.809662 
L 55.779795 204.865315 
L 54.373107 203.921597 
z
" clip-path="url(#pb44e501f24)" style="fill: #008000; fill-opacity: 0.15"/>
   </g>
   <g id="matplotlib.axis_2">
    <g id="xtick_6">
     <g id="line2d_6">
      <g>
       <use xlink:href="#maf6bf84369" x="52.301149" y="332.528196" style="stroke: #000000; stroke-width: 0.8"/>
      </g>
     </g>
    </g>
    <g id="xtick_7">
     <g id="line2d_7">
      <g>
       <use xlink:href="#maf6bf84369" x="87.72296" y="332.528196" style="stroke: #000000; stroke-width: 0.8"/>
      </g>
     </g>
    </g>
    <g id="xtick_8">
     <g id="line2d_8">
      <g>
       <use xlink:href="#maf6bf84369" x="123.144772" y="332.528196" style="stroke: #000000; stroke-width: 0.8"/>
      </g>
     </g>
    </g>
    <g id="xtick_9">
     <g id="line2d_9">
      <g>
       <use xlink:href="#maf6bf84369" x="158.566584" y="332.528196" style="stroke: #000000; stroke-width: 0.8"/>
      </g>
     </g>
    </g>
    <g id="xtick_10">
     <g id="line2d_10">
      <g>
       <use xlink:href="#maf6bf84369" x="193.988396" y="332.528196" style="stroke: #000000; stroke-width: 0.8"/>
      </g>
     </g>
    </g>
   </g>
   <g id="matplotlib.axis_3">
    <g id="ytick_1">
     <g id="line2d_11">
      <defs>
       <path id="m28883a8c77" d="M 0 0 
L -3.5 0 
" style="stroke: #000000; stroke-width: 0.8"/>
      </defs>
      <g>
       <use xlink:href="#m28883a8c77" x="47.41" y="328.444233" style="stroke: #000000; stroke-width: 0.8"/>
      </g>
     </g>
     <g id="text_3">
      <!-- 0.0 -->
      <g transform="translate(24.506875 332.243452) scale(0.1 -0.1)">
       <use xlink:href="#DejaVuSans-30"/>
       <use xlink:href="#DejaVuSans-2e" x="63.623047"/>
       <use xlink:href="#DejaVuSans-30" x="95.410156"/>
      </g>
     </g>
    </g>
    <g id="ytick_2">
     <g id="line2d_12">
      <g>
       <use xlink:href="#m28883a8c77" x="47.41" y="298.588606" style="stroke: #000000; stroke-width: 0.8"/>
      </g>
     </g>
     <g id="text_4">
      <!-- 0.2 -->
      <g transform="translate(24.506875 302.387825) scale(0.1 -0.1)">
       <defs>
        <path id="DejaVuSans-32" d="M 1228 531 
L 3431 531 
L 3431 0 
L 469 0 
L 469 531 
Q 828 903 1448 1529 
Q 2069 2156 2228 2338 
Q 2531 2678 2651 2914 
Q 2772 3150 2772 3378 
Q 2772 3750 2511 3984 
Q 2250 4219 1831 4219 
Q 1534 4219 1204 4116 
Q 875 4013 500 3803 
L 500 4441 
Q 881 4594 1212 4672 
Q 1544 4750 1819 4750 
Q 2544 4750 2975 4387 
Q 3406 4025 3406 3419 
Q 3406 3131 3298 2873 
Q 3191 2616 2906 2266 
Q 2828 2175 2409 1742 
Q 1991 1309 1228 531 
z
" transform="scale(0.015625)"/>
       </defs>
       <use xlink:href="#DejaVuSans-30"/>
       <use xlink:href="#DejaVuSans-2e" x="63.623047"/>
       <use xlink:href="#DejaVuSans-32" x="95.410156"/>
      </g>
     </g>
    </g>
    <g id="ytick_3">
     <g id="line2d_13">
      <g>
       <use xlink:href="#m28883a8c77" x="47.41" y="268.73298" style="stroke: #000000; stroke-width: 0.8"/>
      </g>
     </g>
     <g id="text_5">
      <!-- 0.4 -->
      <g transform="translate(24.506875 272.532199) scale(0.1 -0.1)">
       <defs>
        <path id="DejaVuSans-34" d="M 2419 4116 
L 825 1625 
L 2419 1625 
L 2419 4116 
z
M 2253 4666 
L 3047 4666 
L 3047 1625 
L 3713 1625 
L 3713 1100 
L 3047 1100 
L 3047 0 
L 2419 0 
L 2419 1100 
L 313 1100 
L 313 1709 
L 2253 4666 
z
" transform="scale(0.015625)"/>
       </defs>
       <use xlink:href="#DejaVuSans-30"/>
       <use xlink:href="#DejaVuSans-2e" x="63.623047"/>
       <use xlink:href="#DejaVuSans-34" x="95.410156"/>
      </g>
     </g>
    </g>
    <g id="ytick_4">
     <g id="line2d_14">
      <g>
       <use xlink:href="#m28883a8c77" x="47.41" y="238.877353" style="stroke: #000000; stroke-width: 0.8"/>
      </g>
     </g>
     <g id="text_6">
      <!-- 0.6 -->
      <g transform="translate(24.506875 242.676572) scale(0.1 -0.1)">
       <defs>
        <path id="DejaVuSans-36" d="M 2113 2584 
Q 1688 2584 1439 2293 
Q 1191 2003 1191 1497 
Q 1191 994 1439 701 
Q 1688 409 2113 409 
Q 2538 409 2786 701 
Q 3034 994 3034 1497 
Q 3034 2003 2786 2293 
Q 2538 2584 2113 2584 
z
M 3366 4563 
L 3366 3988 
Q 3128 4100 2886 4159 
Q 2644 4219 2406 4219 
Q 1781 4219 1451 3797 
Q 1122 3375 1075 2522 
Q 1259 2794 1537 2939 
Q 1816 3084 2150 3084 
Q 2853 3084 3261 2657 
Q 3669 2231 3669 1497 
Q 3669 778 3244 343 
Q 2819 -91 2113 -91 
Q 1303 -91 875 529 
Q 447 1150 447 2328 
Q 447 3434 972 4092 
Q 1497 4750 2381 4750 
Q 2619 4750 2861 4703 
Q 3103 4656 3366 4563 
z
" transform="scale(0.015625)"/>
       </defs>
       <use xlink:href="#DejaVuSans-30"/>
       <use xlink:href="#DejaVuSans-2e" x="63.623047"/>
       <use xlink:href="#DejaVuSans-36" x="95.410156"/>
      </g>
     </g>
    </g>
    <g id="ytick_5">
     <g id="line2d_15">
      <g>
       <use xlink:href="#m28883a8c77" x="47.41" y="209.021727" style="stroke: #000000; stroke-width: 0.8"/>
      </g>
     </g>
     <g id="text_7">
      <!-- 0.8 -->
      <g transform="translate(24.506875 212.820946) scale(0.1 -0.1)">
       <defs>
        <path id="DejaVuSans-38" d="M 2034 2216 
Q 1584 2216 1326 1975 
Q 1069 1734 1069 1313 
Q 1069 891 1326 650 
Q 1584 409 2034 409 
Q 2484 409 2743 651 
Q 3003 894 3003 1313 
Q 3003 1734 2745 1975 
Q 2488 2216 2034 2216 
z
M 1403 2484 
Q 997 2584 770 2862 
Q 544 3141 544 3541 
Q 544 4100 942 4425 
Q 1341 4750 2034 4750 
Q 2731 4750 3128 4425 
Q 3525 4100 3525 3541 
Q 3525 3141 3298 2862 
Q 3072 2584 2669 2484 
Q 3125 2378 3379 2068 
Q 3634 1759 3634 1313 
Q 3634 634 3220 271 
Q 2806 -91 2034 -91 
Q 1263 -91 848 271 
Q 434 634 434 1313 
Q 434 1759 690 2068 
Q 947 2378 1403 2484 
z
M 1172 3481 
Q 1172 3119 1398 2916 
Q 1625 2713 2034 2713 
Q 2441 2713 2670 2916 
Q 2900 3119 2900 3481 
Q 2900 3844 2670 4047 
Q 2441 4250 2034 4250 
Q 1625 4250 1398 4047 
Q 1172 3844 1172 3481 
z
" transform="scale(0.015625)"/>
       </defs>
       <use xlink:href="#DejaVuSans-30"/>
       <use xlink:href="#DejaVuSans-2e" x="63.623047"/>
       <use xlink:href="#DejaVuSans-38" x="95.410156"/>
      </g>
     </g>
    </g>
    <g id="ytick_6">
     <g id="line2d_16">
      <g>
       <use xlink:href="#m28883a8c77" x="47.41" y="179.1661" style="stroke: #000000; stroke-width: 0.8"/>
      </g>
     </g>
     <g id="text_8">
      <!-- 1.0 -->
      <g transform="translate(24.506875 182.965319) scale(0.1 -0.1)">
       <use xlink:href="#DejaVuSans-31"/>
       <use xlink:href="#DejaVuSans-2e" x="63.623047"/>
       <use xlink:href="#DejaVuSans-30" x="95.410156"/>
      </g>
     </g>
    </g>
    <g id="text_9">
     <!-- reward rate -->
     <g transform="translate(18.427187 283.480156) rotate(-90) scale(0.1 -0.1)">
      <defs>
       <path id="DejaVuSans-65" d="M 3597 1894 
L 3597 1613 
L 953 1613 
Q 991 1019 1311 708 
Q 1631 397 2203 397 
Q 2534 397 2845 478 
Q 3156 559 3463 722 
L 3463 178 
Q 3153 47 2828 -22 
Q 2503 -91 2169 -91 
Q 1331 -91 842 396 
Q 353 884 353 1716 
Q 353 2575 817 3079 
Q 1281 3584 2069 3584 
Q 2775 3584 3186 3129 
Q 3597 2675 3597 1894 
z
M 3022 2063 
Q 3016 2534 2758 2815 
Q 2500 3097 2075 3097 
Q 1594 3097 1305 2825 
Q 1016 2553 972 2059 
L 3022 2063 
z
" transform="scale(0.015625)"/>
       <path id="DejaVuSans-77" d="M 269 3500 
L 844 3500 
L 1563 769 
L 2278 3500 
L 2956 3500 
L 3675 769 
L 4391 3500 
L 4966 3500 
L 4050 0 
L 3372 0 
L 2619 2869 
L 1863 0 
L 1184 0 
L 269 3500 
z
" transform="scale(0.015625)"/>
       <path id="DejaVuSans-61" d="M 2194 1759 
Q 1497 1759 1228 1600 
Q 959 1441 959 1056 
Q 959 750 1161 570 
Q 1363 391 1709 391 
Q 2188 391 2477 730 
Q 2766 1069 2766 1631 
L 2766 1759 
L 2194 1759 
z
M 3341 1997 
L 3341 0 
L 2766 0 
L 2766 531 
Q 2569 213 2275 61 
Q 1981 -91 1556 -91 
Q 1019 -91 701 211 
Q 384 513 384 1019 
Q 384 1609 779 1909 
Q 1175 2209 1959 2209 
L 2766 2209 
L 2766 2266 
Q 2766 2663 2505 2880 
Q 2244 3097 1772 3097 
Q 1472 3097 1187 3025 
Q 903 2953 641 2809 
L 641 3341 
Q 956 3463 1253 3523 
Q 1550 3584 1831 3584 
Q 2591 3584 2966 3190 
Q 3341 2797 3341 1997 
z
" transform="scale(0.015625)"/>
       <path id="DejaVuSans-64" d="M 2906 2969 
L 2906 4863 
L 3481 4863 
L 3481 0 
L 2906 0 
L 2906 525 
Q 2725 213 2448 61 
Q 2172 -91 1784 -91 
Q 1150 -91 751 415 
Q 353 922 353 1747 
Q 353 2572 751 3078 
Q 1150 3584 1784 3584 
Q 2172 3584 2448 3432 
Q 2725 3281 2906 2969 
z
M 947 1747 
Q 947 1113 1208 752 
Q 1469 391 1925 391 
Q 2381 391 2643 752 
Q 2906 1113 2906 1747 
Q 2906 2381 2643 2742 
Q 2381 3103 1925 3103 
Q 1469 3103 1208 2742 
Q 947 2381 947 1747 
z
" transform="scale(0.015625)"/>
       <path id="DejaVuSans-74" d="M 1172 4494 
L 1172 3500 
L 2356 3500 
L 2356 3053 
L 1172 3053 
L 1172 1153 
Q 1172 725 1289 603 
Q 1406 481 1766 481 
L 2356 481 
L 2356 0 
L 1766 0 
Q 1100 0 847 248 
Q 594 497 594 1153 
L 594 3053 
L 172 3053 
L 172 3500 
L 594 3500 
L 594 4494 
L 1172 4494 
z
" transform="scale(0.015625)"/>
      </defs>
      <use xlink:href="#DejaVuSans-72"/>
      <use xlink:href="#DejaVuSans-65" x="38.863281"/>
      <use xlink:href="#DejaVuSans-77" x="100.386719"/>
      <use xlink:href="#DejaVuSans-61" x="182.173828"/>
      <use xlink:href="#DejaVuSans-72" x="243.453125"/>
      <use xlink:href="#DejaVuSans-64" x="282.816406"/>
      <use xlink:href="#DejaVuSans-20" x="346.292969"/>
      <use xlink:href="#DejaVuSans-72" x="378.080078"/>
      <use xlink:href="#DejaVuSans-61" x="419.193359"/>
      <use xlink:href="#DejaVuSans-74" x="480.472656"/>
      <use xlink:href="#DejaVuSans-65" x="519.681641"/>
     </g>
    </g>
   </g>
   <g id="line2d_17">
    <path d="M 54.373107 237.021304 
L 55.779795 237.231654 
L 57.186483 237.442004 
L 58.593171 237.652354 
L 59.99986 237.862704 
L 61.406548 238.073053 
L 62.813236 238.283403 
L 64.219924 238.493753 
L 65.626613 238.704103 
L 67.033301 238.914453 
L 68.439989 239.124802 
L 69.846677 239.335152 
L 71.253366 239.545502 
L 72.660054 239.755852 
L 74.066742 239.966202 
L 75.47343 240.176551 
L 76.880119 240.386901 
L 78.286807 240.597251 
L 79.693495 240.807601 
L 81.100183 241.017951 
L 82.506871 241.2283 
L 83.91356 241.43865 
L 85.320248 241.649 
L 86.726936 241.85935 
L 88.133624 242.0697 
L 89.540313 242.280049 
L 90.947001 242.490399 
L 92.353689 242.700749 
L 93.760377 242.911099 
L 95.167066 243.121449 
L 96.573754 243.331798 
L 97.980442 243.542148 
L 99.38713 243.752498 
L 100.793819 243.962848 
L 102.200507 244.173198 
L 103.607195 244.383547 
L 105.013883 244.593897 
L 106.420572 244.804247 
L 107.82726 245.014597 
L 109.233948 245.224947 
L 110.640636 245.435296 
L 112.047324 245.645646 
L 113.454013 245.855996 
L 114.860701 246.066346 
L 116.267389 246.276696 
L 117.674077 246.487045 
L 119.080766 246.697395 
L 120.487454 246.907745 
L 121.894142 247.118095 
L 123.30083 247.328445 
L 124.707519 247.538794 
L 126.114207 247.749144 
L 127.520895 247.959494 
L 128.927583 248.169844 
L 130.334272 248.380194 
L 131.74096 248.590543 
L 133.147648 248.800893 
L 134.554336 249.011243 
L 135.961024 249.221593 
L 137.367713 249.431943 
L 138.774401 249.642292 
L 140.181089 249.852642 
L 141.587777 250.062992 
L 142.994466 250.273342 
L 144.401154 250.483692 
L 145.807842 250.694041 
L 147.21453 250.904391 
L 148.621219 251.114741 
L 150.027907 251.325091 
L 151.434595 251.535441 
L 152.841283 251.74579 
L 154.247972 251.95614 
L 155.65466 252.16649 
L 157.061348 252.37684 
L 158.468036 252.58719 
L 159.874724 252.797539 
L 161.281413 253.007889 
L 162.688101 253.218239 
L 164.094789 253.428589 
L 165.501477 253.638939 
L 166.908166 253.849288 
L 168.314854 254.059638 
L 169.721542 254.269988 
L 171.12823 254.480338 
L 172.534919 254.690688 
L 173.941607 254.901037 
L 175.348295 255.111387 
L 176.754983 255.321737 
L 178.161672 255.532087 
L 179.56836 255.742437 
L 180.975048 255.952786 
L 182.381736 256.163136 
L 183.788424 256.373486 
L 185.195113 256.583836 
L 186.601801 256.794186 
L 188.008489 257.004535 
L 189.415177 257.214885 
L 190.821866 257.425235 
L 192.228554 257.635585 
L 193.635242 257.845935 
" clip-path="url(#pb44e501f24)" style="fill: none; stroke: #008000; stroke-opacity: 0.6; stroke-width: 2.25; stroke-linecap: square"/>
   </g>
   <g id="patch_5">
    <path d="M 47.41 332.528196 
L 47.41 176.311804 
" style="fill: none; stroke: #000000; stroke-width: 0.8; stroke-linejoin: miter; stroke-linecap: square"/>
   </g>
   <g id="patch_6">
    <path d="M 47.41 332.528196 
L 200.598349 332.528196 
" style="fill: none; stroke: #000000; stroke-width: 0.8; stroke-linejoin: miter; stroke-linecap: square"/>
   </g>
   <g id="text_10">
    <!-- r = -0.15  -->
    <g transform="translate(62.728835 191.933443) scale(0.1 -0.1)">
     <defs>
      <path id="DejaVuSans-2d" d="M 313 2009 
L 1997 2009 
L 1997 1497 
L 313 1497 
L 313 2009 
z
" transform="scale(0.015625)"/>
      <path id="DejaVuSans-35" d="M 691 4666 
L 3169 4666 
L 3169 4134 
L 1269 4134 
L 1269 2991 
Q 1406 3038 1543 3061 
Q 1681 3084 1819 3084 
Q 2600 3084 3056 2656 
Q 3513 2228 3513 1497 
Q 3513 744 3044 326 
Q 2575 -91 1722 -91 
Q 1428 -91 1123 -41 
Q 819 9 494 109 
L 494 744 
Q 775 591 1075 516 
Q 1375 441 1709 441 
Q 2250 441 2565 725 
Q 2881 1009 2881 1497 
Q 2881 1984 2565 2268 
Q 2250 2553 1709 2553 
Q 1456 2553 1204 2497 
Q 953 2441 691 2322 
L 691 4666 
z
" transform="scale(0.015625)"/>
     </defs>
     <use xlink:href="#DejaVuSans-72"/>
     <use xlink:href="#DejaVuSans-20" x="41.113281"/>
     <use xlink:href="#DejaVuSans-3d" x="72.900391"/>
     <use xlink:href="#DejaVuSans-20" x="156.689453"/>
     <use xlink:href="#DejaVuSans-2d" x="188.476562"/>
     <use xlink:href="#DejaVuSans-30" x="224.560547"/>
     <use xlink:href="#DejaVuSans-2e" x="288.183594"/>
     <use xlink:href="#DejaVuSans-31" x="319.970703"/>
     <use xlink:href="#DejaVuSans-35" x="383.59375"/>
     <use xlink:href="#DejaVuSans-20" x="447.216797"/>
    </g>
   </g>
   <g id="text_11">
    <!-- p = 0.496 -->
    <g transform="translate(124.004174 191.933443) scale(0.1 -0.1)">
     <defs>
      <path id="DejaVuSans-39" d="M 703 97 
L 703 672 
Q 941 559 1184 500 
Q 1428 441 1663 441 
Q 2288 441 2617 861 
Q 2947 1281 2994 2138 
Q 2813 1869 2534 1725 
Q 2256 1581 1919 1581 
Q 1219 1581 811 2004 
Q 403 2428 403 3163 
Q 403 3881 828 4315 
Q 1253 4750 1959 4750 
Q 2769 4750 3195 4129 
Q 3622 3509 3622 2328 
Q 3622 1225 3098 567 
Q 2575 -91 1691 -91 
Q 1453 -91 1209 -44 
Q 966 3 703 97 
z
M 1959 2075 
Q 2384 2075 2632 2365 
Q 2881 2656 2881 3163 
Q 2881 3666 2632 3958 
Q 2384 4250 1959 4250 
Q 1534 4250 1286 3958 
Q 1038 3666 1038 3163 
Q 1038 2656 1286 2365 
Q 1534 2075 1959 2075 
z
" transform="scale(0.015625)"/>
     </defs>
     <use xlink:href="#DejaVuSans-70"/>
     <use xlink:href="#DejaVuSans-20" x="63.476562"/>
     <use xlink:href="#DejaVuSans-3d" x="95.263672"/>
     <use xlink:href="#DejaVuSans-20" x="179.052734"/>
     <use xlink:href="#DejaVuSans-30" x="210.839844"/>
     <use xlink:href="#DejaVuSans-2e" x="274.462891"/>
     <use xlink:href="#DejaVuSans-34" x="306.25"/>
     <use xlink:href="#DejaVuSans-39" x="369.873047"/>
     <use xlink:href="#DejaVuSans-36" x="433.496094"/>
    </g>
   </g>
  </g>
  <g id="axes_3">
   <g id="patch_7">
    <path d="M 211.910826 332.528196 
L 365.099174 332.528196 
L 365.099174 176.311804 
L 211.910826 176.311804 
z
" style="fill: #ffffff"/>
   </g>
   <g id="matplotlib.axis_4">
    <g id="xtick_11">
     <g id="line2d_18">
      <g>
       <use xlink:href="#maf6bf84369" x="215.915627" y="332.528196" style="stroke: #000000; stroke-width: 0.8"/>
      </g>
     </g>
    </g>
    <g id="xtick_12">
     <g id="line2d_19">
      <g>
       <use xlink:href="#maf6bf84369" x="252.511771" y="332.528196" style="stroke: #000000; stroke-width: 0.8"/>
      </g>
     </g>
    </g>
    <g id="xtick_13">
     <g id="line2d_20">
      <g>
       <use xlink:href="#maf6bf84369" x="289.107916" y="332.528196" style="stroke: #000000; stroke-width: 0.8"/>
      </g>
     </g>
    </g>
    <g id="xtick_14">
     <g id="line2d_21">
      <g>
       <use xlink:href="#maf6bf84369" x="325.70406" y="332.528196" style="stroke: #000000; stroke-width: 0.8"/>
      </g>
     </g>
    </g>
    <g id="xtick_15">
     <g id="line2d_22">
      <g>
       <use xlink:href="#maf6bf84369" x="362.300205" y="332.528196" style="stroke: #000000; stroke-width: 0.8"/>
      </g>
     </g>
    </g>
   </g>
   <g id="patch_8">
    <path d="M 211.910826 332.528196 
L 365.099174 332.528196 
" style="fill: none; stroke: #000000; stroke-width: 0.8; stroke-linejoin: miter; stroke-linecap: square"/>
   </g>
   <g id="text_12">
    <!-- r = 1.00  -->
    <g transform="translate(227.22966 191.933443) scale(0.1 -0.1)">
     <use xlink:href="#DejaVuSans-72"/>
     <use xlink:href="#DejaVuSans-20" x="41.113281"/>
     <use xlink:href="#DejaVuSans-3d" x="72.900391"/>
     <use xlink:href="#DejaVuSans-20" x="156.689453"/>
     <use xlink:href="#DejaVuSans-31" x="188.476562"/>
     <use xlink:href="#DejaVuSans-2e" x="252.099609"/>
     <use xlink:href="#DejaVuSans-30" x="283.886719"/>
     <use xlink:href="#DejaVuSans-30" x="347.509766"/>
     <use xlink:href="#DejaVuSans-20" x="411.132812"/>
    </g>
   </g>
   <g id="text_13">
    <!-- p = 0.000 -->
    <g transform="translate(288.505 191.933443) scale(0.1 -0.1)">
     <use xlink:href="#DejaVuSans-70"/>
     <use xlink:href="#DejaVuSans-20" x="63.476562"/>
     <use xlink:href="#DejaVuSans-3d" x="95.263672"/>
     <use xlink:href="#DejaVuSans-20" x="179.052734"/>
     <use xlink:href="#DejaVuSans-30" x="210.839844"/>
     <use xlink:href="#DejaVuSans-2e" x="274.462891"/>
     <use xlink:href="#DejaVuSans-30" x="306.25"/>
     <use xlink:href="#DejaVuSans-30" x="369.873047"/>
     <use xlink:href="#DejaVuSans-30" x="433.496094"/>
    </g>
   </g>
  </g>
  <g id="axes_4">
   <g id="patch_9">
    <path d="M 47.41 498.44 
L 200.598349 498.44 
L 200.598349 342.223607 
L 47.41 342.223607 
z
" style="fill: #ffffff"/>
   </g>
   <g id="PathCollection_2">
    <g clip-path="url(#p8931af693a)">
     <use xlink:href="#md1a36164bc" x="152.670893" y="352.430959" style="fill: #1f77b4; fill-opacity: 0.8; stroke: #1f77b4; stroke-opacity: 0.8"/>
     <use xlink:href="#md1a36164bc" x="109.157169" y="458.927407" style="fill: #1f77b4; fill-opacity: 0.8; stroke: #1f77b4; stroke-opacity: 0.8"/>
     <use xlink:href="#md1a36164bc" x="131.856504" y="361.022718" style="fill: #1f77b4; fill-opacity: 0.8; stroke: #1f77b4; stroke-opacity: 0.8"/>
     <use xlink:href="#md1a36164bc" x="183.743054" y="483.892599" style="fill: #1f77b4; fill-opacity: 0.8; stroke: #1f77b4; stroke-opacity: 0.8"/>
     <use xlink:href="#md1a36164bc" x="135.901755" y="407.964313" style="fill: #1f77b4; fill-opacity: 0.8; stroke: #1f77b4; stroke-opacity: 0.8"/>
     <use xlink:href="#md1a36164bc" x="125.327633" y="409.688179" style="fill: #1f77b4; fill-opacity: 0.8; stroke: #1f77b4; stroke-opacity: 0.8"/>
     <use xlink:href="#md1a36164bc" x="144.861819" y="425.93412" style="fill: #1f77b4; fill-opacity: 0.8; stroke: #1f77b4; stroke-opacity: 0.8"/>
     <use xlink:href="#md1a36164bc" x="140.411443" y="426.077686" style="fill: #1f77b4; fill-opacity: 0.8; stroke: #1f77b4; stroke-opacity: 0.8"/>
     <use xlink:href="#md1a36164bc" x="59.37385" y="477.151833" style="fill: #1f77b4; fill-opacity: 0.8; stroke: #1f77b4; stroke-opacity: 0.8"/>
     <use xlink:href="#md1a36164bc" x="61.301623" y="429.859842" style="fill: #1f77b4; fill-opacity: 0.8; stroke: #1f77b4; stroke-opacity: 0.8"/>
     <use xlink:href="#md1a36164bc" x="177.231698" y="423.716993" style="fill: #1f77b4; fill-opacity: 0.8; stroke: #1f77b4; stroke-opacity: 0.8"/>
     <use xlink:href="#md1a36164bc" x="167.582429" y="487.959147" style="fill: #1f77b4; fill-opacity: 0.8; stroke: #1f77b4; stroke-opacity: 0.8"/>
     <use xlink:href="#md1a36164bc" x="67.853828" y="466.675016" style="fill: #1f77b4; fill-opacity: 0.8; stroke: #1f77b4; stroke-opacity: 0.8"/>
     <use xlink:href="#md1a36164bc" x="104.895999" y="423.325926" style="fill: #1f77b4; fill-opacity: 0.8; stroke: #1f77b4; stroke-opacity: 0.8"/>
     <use xlink:href="#md1a36164bc" x="54.373107" y="484.84221" style="fill: #1f77b4; fill-opacity: 0.8; stroke: #1f77b4; stroke-opacity: 0.8"/>
     <use xlink:href="#md1a36164bc" x="136.969653" y="485.883686" style="fill: #1f77b4; fill-opacity: 0.8; stroke: #1f77b4; stroke-opacity: 0.8"/>
     <use xlink:href="#md1a36164bc" x="151.786332" y="452.416188" style="fill: #1f77b4; fill-opacity: 0.8; stroke: #1f77b4; stroke-opacity: 0.8"/>
     <use xlink:href="#md1a36164bc" x="142.97091" y="483.839582" style="fill: #1f77b4; fill-opacity: 0.8; stroke: #1f77b4; stroke-opacity: 0.8"/>
     <use xlink:href="#md1a36164bc" x="120.352454" y="372.339381" style="fill: #1f77b4; fill-opacity: 0.8; stroke: #1f77b4; stroke-opacity: 0.8"/>
     <use xlink:href="#md1a36164bc" x="149.976547" y="469.728536" style="fill: #1f77b4; fill-opacity: 0.8; stroke: #1f77b4; stroke-opacity: 0.8"/>
     <use xlink:href="#md1a36164bc" x="70.246722" y="363.566465" style="fill: #1f77b4; fill-opacity: 0.8; stroke: #1f77b4; stroke-opacity: 0.8"/>
     <use xlink:href="#md1a36164bc" x="139.922819" y="349.324353" style="fill: #1f77b4; fill-opacity: 0.8; stroke: #1f77b4; stroke-opacity: 0.8"/>
     <use xlink:href="#md1a36164bc" x="193.635242" y="384.562337" style="fill: #1f77b4; fill-opacity: 0.8; stroke: #1f77b4; stroke-opacity: 0.8"/>
     <use xlink:href="#md1a36164bc" x="69.450963" y="491.339255" style="fill: #1f77b4; fill-opacity: 0.8; stroke: #1f77b4; stroke-opacity: 0.8"/>
    </g>
   </g>
   <g id="PolyCollection_2">
    <path d="M 54.373107 404.406776 
L 54.373107 475.102585 
L 55.779795 474.294247 
L 57.186483 473.660642 
L 58.593171 472.924205 
L 59.99986 472.176241 
L 61.406548 471.582458 
L 62.813236 471.247664 
L 64.219924 470.635934 
L 65.626613 469.915433 
L 67.033301 469.131487 
L 68.439989 468.479001 
L 69.846677 467.760688 
L 71.253366 466.842076 
L 72.660054 466.290958 
L 74.066742 465.807731 
L 75.47343 465.320498 
L 76.880119 464.832652 
L 78.286807 464.046996 
L 79.693495 463.62793 
L 81.100183 463.008542 
L 82.506871 462.236087 
L 83.91356 461.463633 
L 85.320248 460.813937 
L 86.726936 460.179568 
L 88.133624 459.465483 
L 89.540313 459.027316 
L 90.947001 458.535404 
L 92.353689 457.929218 
L 93.760377 457.398999 
L 95.167066 457.111765 
L 96.573754 456.720234 
L 97.980442 456.282005 
L 99.38713 455.839403 
L 100.793819 455.392327 
L 102.200507 455.112853 
L 103.607195 454.679506 
L 105.013883 454.246159 
L 106.420572 453.9535 
L 107.82726 453.457479 
L 109.233948 453.278746 
L 110.640636 452.869228 
L 112.047324 452.685494 
L 113.454013 452.314388 
L 114.860701 452.165657 
L 116.267389 452.014754 
L 117.674077 451.846294 
L 119.080766 451.714748 
L 120.487454 451.566042 
L 121.894142 451.415401 
L 123.30083 451.264759 
L 124.707519 451.018906 
L 126.114207 450.549078 
L 127.520895 450.324896 
L 128.927583 449.942449 
L 130.334272 449.683033 
L 131.74096 449.95023 
L 133.147648 449.872433 
L 134.554336 449.927377 
L 135.961024 449.625099 
L 137.367713 449.738265 
L 138.774401 449.64879 
L 140.181089 449.667009 
L 141.587777 449.678219 
L 142.994466 449.662919 
L 144.401154 449.515462 
L 145.807842 449.591963 
L 147.21453 449.489866 
L 148.621219 449.470489 
L 150.027907 449.556548 
L 151.434595 449.690219 
L 152.841283 449.652408 
L 154.247972 449.751842 
L 155.65466 449.797971 
L 157.061348 449.841997 
L 158.468036 449.765973 
L 159.874724 449.831684 
L 161.281413 449.890327 
L 162.688101 449.971014 
L 164.094789 450.178573 
L 165.501477 450.498128 
L 166.908166 450.796338 
L 168.314854 450.68514 
L 169.721542 450.804833 
L 171.12823 450.898511 
L 172.534919 450.992188 
L 173.941607 451.085866 
L 175.348295 451.179544 
L 176.754983 451.288722 
L 178.161672 451.479009 
L 179.56836 451.701434 
L 180.975048 451.912038 
L 182.381736 452.122642 
L 183.788424 452.333246 
L 185.195113 452.54385 
L 186.601801 453.05125 
L 188.008489 453.234551 
L 189.415177 453.217808 
L 190.821866 453.401775 
L 192.228554 453.660762 
L 193.635242 454.11361 
L 193.635242 380.153156 
L 193.635242 380.153156 
L 192.228554 380.763003 
L 190.821866 381.37285 
L 189.415177 381.982697 
L 188.008489 382.594802 
L 186.601801 383.213794 
L 185.195113 383.834778 
L 183.788424 384.760472 
L 182.381736 385.349489 
L 180.975048 386.358647 
L 179.56836 387.374031 
L 178.161672 388.173959 
L 176.754983 388.854138 
L 175.348295 389.534316 
L 173.941607 390.324739 
L 172.534919 391.198206 
L 171.12823 392.018284 
L 169.721542 392.615068 
L 168.314854 393.211852 
L 166.908166 393.808636 
L 165.501477 394.406426 
L 164.094789 395.383543 
L 162.688101 396.487998 
L 161.281413 397.528457 
L 159.874724 397.771634 
L 158.468036 398.69905 
L 157.061348 399.727455 
L 155.65466 400.75586 
L 154.247972 401.518458 
L 152.841283 402.046037 
L 151.434595 402.569111 
L 150.027907 403.320385 
L 148.621219 403.864905 
L 147.21453 404.304537 
L 145.807842 404.745238 
L 144.401154 405.238128 
L 142.994466 405.774303 
L 141.587777 406.600924 
L 140.181089 407.427545 
L 138.774401 407.630251 
L 137.367713 407.763869 
L 135.961024 408.437394 
L 134.554336 409.196504 
L 133.147648 409.785437 
L 131.74096 410.240599 
L 130.334272 410.679913 
L 128.927583 410.915594 
L 127.520895 411.387847 
L 126.114207 411.676004 
L 124.707519 411.782677 
L 123.30083 412.246396 
L 121.894142 412.565187 
L 120.487454 412.639805 
L 119.080766 413.094689 
L 117.674077 413.465866 
L 116.267389 413.837569 
L 114.860701 413.879158 
L 113.454013 414.133725 
L 112.047324 413.937117 
L 110.640636 413.66611 
L 109.233948 413.575911 
L 107.82726 413.704112 
L 106.420572 413.826004 
L 105.013883 413.949804 
L 103.607195 413.801248 
L 102.200507 413.504911 
L 100.793819 413.521613 
L 99.38713 413.569794 
L 97.980442 413.826139 
L 96.573754 414.066674 
L 95.167066 413.947376 
L 93.760377 413.704122 
L 92.353689 413.521984 
L 90.947001 413.285878 
L 89.540313 413.088118 
L 88.133624 412.792341 
L 86.726936 412.421604 
L 85.320248 412.230735 
L 83.91356 411.892588 
L 82.506871 411.646382 
L 81.100183 411.49772 
L 79.693495 411.369049 
L 78.286807 411.222729 
L 76.880119 410.801311 
L 75.47343 410.445506 
L 74.066742 409.950594 
L 72.660054 409.740733 
L 71.253366 409.699176 
L 69.846677 409.521967 
L 68.439989 409.031835 
L 67.033301 408.536016 
L 65.626613 408.053751 
L 64.219924 407.667973 
L 62.813236 407.746083 
L 61.406548 407.723072 
L 59.99986 407.077524 
L 58.593171 406.409837 
L 57.186483 405.74215 
L 55.779795 405.074463 
L 54.373107 404.406776 
z
" clip-path="url(#p8931af693a)" style="fill: #008000; fill-opacity: 0.15"/>
   </g>
   <g id="matplotlib.axis_5">
    <g id="xtick_16">
     <g id="line2d_23">
      <g>
       <use xlink:href="#maf6bf84369" x="52.301149" y="498.44" style="stroke: #000000; stroke-width: 0.8"/>
      </g>
     </g>
     <g id="text_14">
      <!-- 0.00 -->
      <g transform="translate(41.168336 513.038437) scale(0.1 -0.1)">
       <use xlink:href="#DejaVuSans-30"/>
       <use xlink:href="#DejaVuSans-2e" x="63.623047"/>
       <use xlink:href="#DejaVuSans-30" x="95.410156"/>
       <use xlink:href="#DejaVuSans-30" x="159.033203"/>
      </g>
     </g>
    </g>
    <g id="xtick_17">
     <g id="line2d_24">
      <g>
       <use xlink:href="#maf6bf84369" x="87.72296" y="498.44" style="stroke: #000000; stroke-width: 0.8"/>
      </g>
     </g>
     <g id="text_15">
      <!-- 0.25 -->
      <g transform="translate(76.590148 513.038437) scale(0.1 -0.1)">
       <use xlink:href="#DejaVuSans-30"/>
       <use xlink:href="#DejaVuSans-2e" x="63.623047"/>
       <use xlink:href="#DejaVuSans-32" x="95.410156"/>
       <use xlink:href="#DejaVuSans-35" x="159.033203"/>
      </g>
     </g>
    </g>
    <g id="xtick_18">
     <g id="line2d_25">
      <g>
       <use xlink:href="#maf6bf84369" x="123.144772" y="498.44" style="stroke: #000000; stroke-width: 0.8"/>
      </g>
     </g>
     <g id="text_16">
      <!-- 0.50 -->
      <g transform="translate(112.01196 513.038437) scale(0.1 -0.1)">
       <use xlink:href="#DejaVuSans-30"/>
       <use xlink:href="#DejaVuSans-2e" x="63.623047"/>
       <use xlink:href="#DejaVuSans-35" x="95.410156"/>
       <use xlink:href="#DejaVuSans-30" x="159.033203"/>
      </g>
     </g>
    </g>
    <g id="xtick_19">
     <g id="line2d_26">
      <g>
       <use xlink:href="#maf6bf84369" x="158.566584" y="498.44" style="stroke: #000000; stroke-width: 0.8"/>
      </g>
     </g>
     <g id="text_17">
      <!-- 0.75 -->
      <g transform="translate(147.433771 513.038437) scale(0.1 -0.1)">
       <defs>
        <path id="DejaVuSans-37" d="M 525 4666 
L 3525 4666 
L 3525 4397 
L 1831 0 
L 1172 0 
L 2766 4134 
L 525 4134 
L 525 4666 
z
" transform="scale(0.015625)"/>
       </defs>
       <use xlink:href="#DejaVuSans-30"/>
       <use xlink:href="#DejaVuSans-2e" x="63.623047"/>
       <use xlink:href="#DejaVuSans-37" x="95.410156"/>
       <use xlink:href="#DejaVuSans-35" x="159.033203"/>
      </g>
     </g>
    </g>
    <g id="xtick_20">
     <g id="line2d_27">
      <g>
       <use xlink:href="#maf6bf84369" x="193.988396" y="498.44" style="stroke: #000000; stroke-width: 0.8"/>
      </g>
     </g>
     <g id="text_18">
      <!-- 1.00 -->
      <g transform="translate(182.855583 513.038437) scale(0.1 -0.1)">
       <use xlink:href="#DejaVuSans-31"/>
       <use xlink:href="#DejaVuSans-2e" x="63.623047"/>
       <use xlink:href="#DejaVuSans-30" x="95.410156"/>
       <use xlink:href="#DejaVuSans-30" x="159.033203"/>
      </g>
     </g>
    </g>
    <g id="text_19">
     <!-- policy rate -->
     <g transform="translate(97.538549 526.716563) scale(0.1 -0.1)">
      <defs>
       <path id="DejaVuSans-6f" d="M 1959 3097 
Q 1497 3097 1228 2736 
Q 959 2375 959 1747 
Q 959 1119 1226 758 
Q 1494 397 1959 397 
Q 2419 397 2687 759 
Q 2956 1122 2956 1747 
Q 2956 2369 2687 2733 
Q 2419 3097 1959 3097 
z
M 1959 3584 
Q 2709 3584 3137 3096 
Q 3566 2609 3566 1747 
Q 3566 888 3137 398 
Q 2709 -91 1959 -91 
Q 1206 -91 779 398 
Q 353 888 353 1747 
Q 353 2609 779 3096 
Q 1206 3584 1959 3584 
z
" transform="scale(0.015625)"/>
       <path id="DejaVuSans-6c" d="M 603 4863 
L 1178 4863 
L 1178 0 
L 603 0 
L 603 4863 
z
" transform="scale(0.015625)"/>
       <path id="DejaVuSans-69" d="M 603 3500 
L 1178 3500 
L 1178 0 
L 603 0 
L 603 3500 
z
M 603 4863 
L 1178 4863 
L 1178 4134 
L 603 4134 
L 603 4863 
z
" transform="scale(0.015625)"/>
       <path id="DejaVuSans-63" d="M 3122 3366 
L 3122 2828 
Q 2878 2963 2633 3030 
Q 2388 3097 2138 3097 
Q 1578 3097 1268 2742 
Q 959 2388 959 1747 
Q 959 1106 1268 751 
Q 1578 397 2138 397 
Q 2388 397 2633 464 
Q 2878 531 3122 666 
L 3122 134 
Q 2881 22 2623 -34 
Q 2366 -91 2075 -91 
Q 1284 -91 818 406 
Q 353 903 353 1747 
Q 353 2603 823 3093 
Q 1294 3584 2113 3584 
Q 2378 3584 2631 3529 
Q 2884 3475 3122 3366 
z
" transform="scale(0.015625)"/>
       <path id="DejaVuSans-79" d="M 2059 -325 
Q 1816 -950 1584 -1140 
Q 1353 -1331 966 -1331 
L 506 -1331 
L 506 -850 
L 844 -850 
Q 1081 -850 1212 -737 
Q 1344 -625 1503 -206 
L 1606 56 
L 191 3500 
L 800 3500 
L 1894 763 
L 2988 3500 
L 3597 3500 
L 2059 -325 
z
" transform="scale(0.015625)"/>
      </defs>
      <use xlink:href="#DejaVuSans-70"/>
      <use xlink:href="#DejaVuSans-6f" x="63.476562"/>
      <use xlink:href="#DejaVuSans-6c" x="124.658203"/>
      <use xlink:href="#DejaVuSans-69" x="152.441406"/>
      <use xlink:href="#DejaVuSans-63" x="180.224609"/>
      <use xlink:href="#DejaVuSans-79" x="235.205078"/>
      <use xlink:href="#DejaVuSans-20" x="294.384766"/>
      <use xlink:href="#DejaVuSans-72" x="326.171875"/>
      <use xlink:href="#DejaVuSans-61" x="367.285156"/>
      <use xlink:href="#DejaVuSans-74" x="428.564453"/>
      <use xlink:href="#DejaVuSans-65" x="467.773438"/>
     </g>
    </g>
   </g>
   <g id="matplotlib.axis_6">
    <g id="ytick_7">
     <g id="line2d_28">
      <g>
       <use xlink:href="#m28883a8c77" x="47.41" y="494.72643" style="stroke: #000000; stroke-width: 0.8"/>
      </g>
     </g>
     <g id="text_20">
      <!-- 1 -->
      <g transform="translate(34.0475 498.525649) scale(0.1 -0.1)">
       <use xlink:href="#DejaVuSans-31"/>
      </g>
     </g>
    </g>
    <g id="ytick_8">
     <g id="line2d_29">
      <g>
       <use xlink:href="#m28883a8c77" x="47.41" y="470.39175" style="stroke: #000000; stroke-width: 0.8"/>
      </g>
     </g>
     <g id="text_21">
      <!-- 2 -->
      <g transform="translate(34.0475 474.190969) scale(0.1 -0.1)">
       <use xlink:href="#DejaVuSans-32"/>
      </g>
     </g>
    </g>
    <g id="ytick_9">
     <g id="line2d_30">
      <g>
       <use xlink:href="#m28883a8c77" x="47.41" y="446.05707" style="stroke: #000000; stroke-width: 0.8"/>
      </g>
     </g>
     <g id="text_22">
      <!-- 3 -->
      <g transform="translate(34.0475 449.856289) scale(0.1 -0.1)">
       <defs>
        <path id="DejaVuSans-33" d="M 2597 2516 
Q 3050 2419 3304 2112 
Q 3559 1806 3559 1356 
Q 3559 666 3084 287 
Q 2609 -91 1734 -91 
Q 1441 -91 1130 -33 
Q 819 25 488 141 
L 488 750 
Q 750 597 1062 519 
Q 1375 441 1716 441 
Q 2309 441 2620 675 
Q 2931 909 2931 1356 
Q 2931 1769 2642 2001 
Q 2353 2234 1838 2234 
L 1294 2234 
L 1294 2753 
L 1863 2753 
Q 2328 2753 2575 2939 
Q 2822 3125 2822 3475 
Q 2822 3834 2567 4026 
Q 2313 4219 1838 4219 
Q 1578 4219 1281 4162 
Q 984 4106 628 3988 
L 628 4550 
Q 988 4650 1302 4700 
Q 1616 4750 1894 4750 
Q 2613 4750 3031 4423 
Q 3450 4097 3450 3541 
Q 3450 3153 3228 2886 
Q 3006 2619 2597 2516 
z
" transform="scale(0.015625)"/>
       </defs>
       <use xlink:href="#DejaVuSans-33"/>
      </g>
     </g>
    </g>
    <g id="ytick_10">
     <g id="line2d_31">
      <g>
       <use xlink:href="#m28883a8c77" x="47.41" y="421.72239" style="stroke: #000000; stroke-width: 0.8"/>
      </g>
     </g>
     <g id="text_23">
      <!-- 4 -->
      <g transform="translate(34.0475 425.521609) scale(0.1 -0.1)">
       <use xlink:href="#DejaVuSans-34"/>
      </g>
     </g>
    </g>
    <g id="ytick_11">
     <g id="line2d_32">
      <g>
       <use xlink:href="#m28883a8c77" x="47.41" y="397.38771" style="stroke: #000000; stroke-width: 0.8"/>
      </g>
     </g>
     <g id="text_24">
      <!-- 5 -->
      <g transform="translate(34.0475 401.186929) scale(0.1 -0.1)">
       <use xlink:href="#DejaVuSans-35"/>
      </g>
     </g>
    </g>
    <g id="ytick_12">
     <g id="line2d_33">
      <g>
       <use xlink:href="#m28883a8c77" x="47.41" y="373.05303" style="stroke: #000000; stroke-width: 0.8"/>
      </g>
     </g>
     <g id="text_25">
      <!-- 6 -->
      <g transform="translate(34.0475 376.852249) scale(0.1 -0.1)">
       <use xlink:href="#DejaVuSans-36"/>
      </g>
     </g>
    </g>
    <g id="ytick_13">
     <g id="line2d_34">
      <g>
       <use xlink:href="#m28883a8c77" x="47.41" y="348.71835" style="stroke: #000000; stroke-width: 0.8"/>
      </g>
     </g>
     <g id="text_26">
      <!-- 7 -->
      <g transform="translate(34.0475 352.517569) scale(0.1 -0.1)">
       <use xlink:href="#DejaVuSans-37"/>
      </g>
     </g>
    </g>
    <g id="text_27">
     <!-- dec temp -->
     <g transform="translate(27.967812 444.002116) rotate(-90) scale(0.1 -0.1)">
      <defs>
       <path id="DejaVuSans-6d" d="M 3328 2828 
Q 3544 3216 3844 3400 
Q 4144 3584 4550 3584 
Q 5097 3584 5394 3201 
Q 5691 2819 5691 2113 
L 5691 0 
L 5113 0 
L 5113 2094 
Q 5113 2597 4934 2840 
Q 4756 3084 4391 3084 
Q 3944 3084 3684 2787 
Q 3425 2491 3425 1978 
L 3425 0 
L 2847 0 
L 2847 2094 
Q 2847 2600 2669 2842 
Q 2491 3084 2119 3084 
Q 1678 3084 1418 2786 
Q 1159 2488 1159 1978 
L 1159 0 
L 581 0 
L 581 3500 
L 1159 3500 
L 1159 2956 
Q 1356 3278 1631 3431 
Q 1906 3584 2284 3584 
Q 2666 3584 2933 3390 
Q 3200 3197 3328 2828 
z
" transform="scale(0.015625)"/>
      </defs>
      <use xlink:href="#DejaVuSans-64"/>
      <use xlink:href="#DejaVuSans-65" x="63.476562"/>
      <use xlink:href="#DejaVuSans-63" x="125"/>
      <use xlink:href="#DejaVuSans-20" x="179.980469"/>
      <use xlink:href="#DejaVuSans-74" x="211.767578"/>
      <use xlink:href="#DejaVuSans-65" x="250.976562"/>
      <use xlink:href="#DejaVuSans-6d" x="312.5"/>
      <use xlink:href="#DejaVuSans-70" x="409.912109"/>
     </g>
    </g>
   </g>
   <g id="line2d_35">
    <path d="M 54.373107 445.753697 
L 55.779795 445.482165 
L 57.186483 445.210634 
L 58.593171 444.939103 
L 59.99986 444.667572 
L 61.406548 444.396041 
L 62.813236 444.12451 
L 64.219924 443.852979 
L 65.626613 443.581448 
L 67.033301 443.309917 
L 68.439989 443.038385 
L 69.846677 442.766854 
L 71.253366 442.495323 
L 72.660054 442.223792 
L 74.066742 441.952261 
L 75.47343 441.68073 
L 76.880119 441.409199 
L 78.286807 441.137668 
L 79.693495 440.866137 
L 81.100183 440.594605 
L 82.506871 440.323074 
L 83.91356 440.051543 
L 85.320248 439.780012 
L 86.726936 439.508481 
L 88.133624 439.23695 
L 89.540313 438.965419 
L 90.947001 438.693888 
L 92.353689 438.422357 
L 93.760377 438.150825 
L 95.167066 437.879294 
L 96.573754 437.607763 
L 97.980442 437.336232 
L 99.38713 437.064701 
L 100.793819 436.79317 
L 102.200507 436.521639 
L 103.607195 436.250108 
L 105.013883 435.978576 
L 106.420572 435.707045 
L 107.82726 435.435514 
L 109.233948 435.163983 
L 110.640636 434.892452 
L 112.047324 434.620921 
L 113.454013 434.34939 
L 114.860701 434.077859 
L 116.267389 433.806328 
L 117.674077 433.534796 
L 119.080766 433.263265 
L 120.487454 432.991734 
L 121.894142 432.720203 
L 123.30083 432.448672 
L 124.707519 432.177141 
L 126.114207 431.90561 
L 127.520895 431.634079 
L 128.927583 431.362548 
L 130.334272 431.091016 
L 131.74096 430.819485 
L 133.147648 430.547954 
L 134.554336 430.276423 
L 135.961024 430.004892 
L 137.367713 429.733361 
L 138.774401 429.46183 
L 140.181089 429.190299 
L 141.587777 428.918768 
L 142.994466 428.647236 
L 144.401154 428.375705 
L 145.807842 428.104174 
L 147.21453 427.832643 
L 148.621219 427.561112 
L 150.027907 427.289581 
L 151.434595 427.01805 
L 152.841283 426.746519 
L 154.247972 426.474988 
L 155.65466 426.203456 
L 157.061348 425.931925 
L 158.468036 425.660394 
L 159.874724 425.388863 
L 161.281413 425.117332 
L 162.688101 424.845801 
L 164.094789 424.57427 
L 165.501477 424.302739 
L 166.908166 424.031208 
L 168.314854 423.759676 
L 169.721542 423.488145 
L 171.12823 423.216614 
L 172.534919 422.945083 
L 173.941607 422.673552 
L 175.348295 422.402021 
L 176.754983 422.13049 
L 178.161672 421.858959 
L 179.56836 421.587427 
L 180.975048 421.315896 
L 182.381736 421.044365 
L 183.788424 420.772834 
L 185.195113 420.501303 
L 186.601801 420.229772 
L 188.008489 419.958241 
L 189.415177 419.68671 
L 190.821866 419.415179 
L 192.228554 419.143647 
L 193.635242 418.872116 
" clip-path="url(#p8931af693a)" style="fill: none; stroke: #008000; stroke-opacity: 0.6; stroke-width: 2.25; stroke-linecap: square"/>
   </g>
   <g id="patch_10">
    <path d="M 47.41 498.44 
L 47.41 342.223607 
" style="fill: none; stroke: #000000; stroke-width: 0.8; stroke-linejoin: miter; stroke-linecap: square"/>
   </g>
   <g id="patch_11">
    <path d="M 47.41 498.44 
L 200.598349 498.44 
" style="fill: none; stroke: #000000; stroke-width: 0.8; stroke-linejoin: miter; stroke-linecap: square"/>
   </g>
   <g id="text_28">
    <!-- r = 0.17  -->
    <g transform="translate(62.728835 357.845247) scale(0.1 -0.1)">
     <use xlink:href="#DejaVuSans-72"/>
     <use xlink:href="#DejaVuSans-20" x="41.113281"/>
     <use xlink:href="#DejaVuSans-3d" x="72.900391"/>
     <use xlink:href="#DejaVuSans-20" x="156.689453"/>
     <use xlink:href="#DejaVuSans-30" x="188.476562"/>
     <use xlink:href="#DejaVuSans-2e" x="252.099609"/>
     <use xlink:href="#DejaVuSans-31" x="283.886719"/>
     <use xlink:href="#DejaVuSans-37" x="347.509766"/>
     <use xlink:href="#DejaVuSans-20" x="411.132812"/>
    </g>
   </g>
   <g id="text_29">
    <!-- p = 0.438 -->
    <g transform="translate(124.004174 357.845247) scale(0.1 -0.1)">
     <use xlink:href="#DejaVuSans-70"/>
     <use xlink:href="#DejaVuSans-20" x="63.476562"/>
     <use xlink:href="#DejaVuSans-3d" x="95.263672"/>
     <use xlink:href="#DejaVuSans-20" x="179.052734"/>
     <use xlink:href="#DejaVuSans-30" x="210.839844"/>
     <use xlink:href="#DejaVuSans-2e" x="274.462891"/>
     <use xlink:href="#DejaVuSans-34" x="306.25"/>
     <use xlink:href="#DejaVuSans-33" x="369.873047"/>
     <use xlink:href="#DejaVuSans-38" x="433.496094"/>
    </g>
   </g>
  </g>
  <g id="axes_5">
   <g id="patch_12">
    <path d="M 211.910826 498.44 
L 365.099174 498.44 
L 365.099174 342.223607 
L 211.910826 342.223607 
z
" style="fill: #ffffff"/>
   </g>
   <g id="PathCollection_3">
    <g clip-path="url(#p99495ceae7)">
     <use xlink:href="#md1a36164bc" x="281.243779" y="352.430959" style="fill: #1f77b4; fill-opacity: 0.8; stroke: #1f77b4; stroke-opacity: 0.8"/>
     <use xlink:href="#md1a36164bc" x="291.160519" y="458.927407" style="fill: #1f77b4; fill-opacity: 0.8; stroke: #1f77b4; stroke-opacity: 0.8"/>
     <use xlink:href="#md1a36164bc" x="344.799546" y="361.022718" style="fill: #1f77b4; fill-opacity: 0.8; stroke: #1f77b4; stroke-opacity: 0.8"/>
     <use xlink:href="#md1a36164bc" x="255.73418" y="483.892599" style="fill: #1f77b4; fill-opacity: 0.8; stroke: #1f77b4; stroke-opacity: 0.8"/>
     <use xlink:href="#md1a36164bc" x="323.405633" y="407.964313" style="fill: #1f77b4; fill-opacity: 0.8; stroke: #1f77b4; stroke-opacity: 0.8"/>
     <use xlink:href="#md1a36164bc" x="218.873932" y="409.688179" style="fill: #1f77b4; fill-opacity: 0.8; stroke: #1f77b4; stroke-opacity: 0.8"/>
     <use xlink:href="#md1a36164bc" x="305.286296" y="425.93412" style="fill: #1f77b4; fill-opacity: 0.8; stroke: #1f77b4; stroke-opacity: 0.8"/>
     <use xlink:href="#md1a36164bc" x="327.776522" y="426.077686" style="fill: #1f77b4; fill-opacity: 0.8; stroke: #1f77b4; stroke-opacity: 0.8"/>
     <use xlink:href="#md1a36164bc" x="358.136068" y="477.151833" style="fill: #1f77b4; fill-opacity: 0.8; stroke: #1f77b4; stroke-opacity: 0.8"/>
     <use xlink:href="#md1a36164bc" x="239.348087" y="429.859842" style="fill: #1f77b4; fill-opacity: 0.8; stroke: #1f77b4; stroke-opacity: 0.8"/>
     <use xlink:href="#md1a36164bc" x="344.519886" y="423.716993" style="fill: #1f77b4; fill-opacity: 0.8; stroke: #1f77b4; stroke-opacity: 0.8"/>
     <use xlink:href="#md1a36164bc" x="334.041033" y="487.959147" style="fill: #1f77b4; fill-opacity: 0.8; stroke: #1f77b4; stroke-opacity: 0.8"/>
     <use xlink:href="#md1a36164bc" x="299.112754" y="466.675016" style="fill: #1f77b4; fill-opacity: 0.8; stroke: #1f77b4; stroke-opacity: 0.8"/>
     <use xlink:href="#md1a36164bc" x="357.480805" y="423.325926" style="fill: #1f77b4; fill-opacity: 0.8; stroke: #1f77b4; stroke-opacity: 0.8"/>
     <use xlink:href="#md1a36164bc" x="291.094923" y="484.84221" style="fill: #1f77b4; fill-opacity: 0.8; stroke: #1f77b4; stroke-opacity: 0.8"/>
     <use xlink:href="#md1a36164bc" x="240.196377" y="485.883686" style="fill: #1f77b4; fill-opacity: 0.8; stroke: #1f77b4; stroke-opacity: 0.8"/>
     <use xlink:href="#md1a36164bc" x="327.984435" y="452.416188" style="fill: #1f77b4; fill-opacity: 0.8; stroke: #1f77b4; stroke-opacity: 0.8"/>
     <use xlink:href="#md1a36164bc" x="264.309761" y="483.839582" style="fill: #1f77b4; fill-opacity: 0.8; stroke: #1f77b4; stroke-opacity: 0.8"/>
     <use xlink:href="#md1a36164bc" x="271.922411" y="372.339381" style="fill: #1f77b4; fill-opacity: 0.8; stroke: #1f77b4; stroke-opacity: 0.8"/>
     <use xlink:href="#md1a36164bc" x="274.022515" y="469.728536" style="fill: #1f77b4; fill-opacity: 0.8; stroke: #1f77b4; stroke-opacity: 0.8"/>
     <use xlink:href="#md1a36164bc" x="298.840179" y="363.566465" style="fill: #1f77b4; fill-opacity: 0.8; stroke: #1f77b4; stroke-opacity: 0.8"/>
     <use xlink:href="#md1a36164bc" x="237.059598" y="349.324353" style="fill: #1f77b4; fill-opacity: 0.8; stroke: #1f77b4; stroke-opacity: 0.8"/>
     <use xlink:href="#md1a36164bc" x="257.963216" y="384.562337" style="fill: #1f77b4; fill-opacity: 0.8; stroke: #1f77b4; stroke-opacity: 0.8"/>
     <use xlink:href="#md1a36164bc" x="341.920404" y="491.339255" style="fill: #1f77b4; fill-opacity: 0.8; stroke: #1f77b4; stroke-opacity: 0.8"/>
    </g>
   </g>
   <g id="PolyCollection_3">
    <path d="M 218.873932 378.517888 
L 218.873932 465.121779 
L 220.280621 464.604392 
L 221.687309 464.087004 
L 223.093997 463.601813 
L 224.500685 463.260516 
L 225.907373 462.916011 
L 227.314062 462.571506 
L 228.72075 462.195445 
L 230.127438 461.680898 
L 231.534126 461.205773 
L 232.940815 460.883351 
L 234.347503 460.559902 
L 235.754191 460.236453 
L 237.160879 459.913004 
L 238.567568 459.589555 
L 239.974256 459.266106 
L 241.380944 458.942657 
L 242.787632 458.619207 
L 244.194321 458.295758 
L 245.601009 457.972309 
L 247.007697 457.64886 
L 248.414385 457.445326 
L 249.821074 457.001962 
L 251.227762 456.788077 
L 252.63445 456.355063 
L 254.041138 456.114532 
L 255.447826 455.77588 
L 256.854515 455.548752 
L 258.261203 455.109189 
L 259.667891 454.778849 
L 261.074579 454.614885 
L 262.481268 454.350237 
L 263.887956 454.084953 
L 265.294644 453.706299 
L 266.701332 453.357951 
L 268.108021 453.065261 
L 269.514709 453.160902 
L 270.921397 453.254166 
L 272.328085 452.998394 
L 273.734774 452.557069 
L 275.141462 452.118869 
L 276.54815 451.696087 
L 277.954838 451.475175 
L 279.361526 451.192116 
L 280.768215 451.204183 
L 282.174903 451.135584 
L 283.581591 450.807211 
L 284.988279 450.490497 
L 286.394968 450.683537 
L 287.801656 450.456735 
L 289.208344 450.387238 
L 290.615032 450.656953 
L 292.021721 450.588434 
L 293.428409 450.499501 
L 294.835097 450.730307 
L 296.241785 450.76013 
L 297.648474 451.315754 
L 299.055162 451.456418 
L 300.46185 451.964799 
L 301.868538 452.24139 
L 303.275226 452.343181 
L 304.681915 452.226942 
L 306.088603 452.248461 
L 307.495291 452.755159 
L 308.901979 453.377023 
L 310.308668 453.50001 
L 311.715356 453.871112 
L 313.122044 454.408035 
L 314.528732 455.027109 
L 315.935421 455.404374 
L 317.342109 455.721618 
L 318.748797 456.104627 
L 320.155485 456.670319 
L 321.562174 457.053239 
L 322.968862 457.321077 
L 324.37555 457.50048 
L 325.782238 457.783241 
L 327.188926 458.005483 
L 328.595615 458.466699 
L 330.002303 458.947336 
L 331.408991 459.402006 
L 332.815679 460.224112 
L 334.222368 460.910973 
L 335.629056 461.507883 
L 337.035744 462.431169 
L 338.442432 463.331123 
L 339.849121 463.542015 
L 341.255809 463.671386 
L 342.662497 464.266754 
L 344.069185 465.223469 
L 345.475874 466.100018 
L 346.882562 467.077534 
L 348.28925 467.9811 
L 349.695938 468.529885 
L 351.102627 469.157932 
L 352.509315 469.971372 
L 353.916003 470.723258 
L 355.322691 471.313413 
L 356.729379 471.898498 
L 358.136068 472.483583 
L 358.136068 409.534825 
L 358.136068 409.534825 
L 356.729379 409.844764 
L 355.322691 410.42677 
L 353.916003 410.890386 
L 352.509315 410.985281 
L 351.102627 411.308195 
L 349.695938 411.386939 
L 348.28925 411.695751 
L 346.882562 412.004563 
L 345.475874 412.313375 
L 344.069185 412.622188 
L 342.662497 412.943995 
L 341.255809 413.238031 
L 339.849121 413.456039 
L 338.442432 413.575883 
L 337.035744 413.882706 
L 335.629056 414.259061 
L 334.222368 414.754604 
L 332.815679 415.085048 
L 331.408991 415.395359 
L 330.002303 415.703371 
L 328.595615 416.010648 
L 327.188926 416.317925 
L 325.782238 416.551859 
L 324.37555 416.759381 
L 322.968862 417.032814 
L 321.562174 417.22852 
L 320.155485 416.702385 
L 318.748797 416.877153 
L 317.342109 416.916688 
L 315.935421 416.96494 
L 314.528732 416.656591 
L 313.122044 416.171913 
L 311.715356 415.534352 
L 310.308668 415.583126 
L 308.901979 415.509615 
L 307.495291 415.729323 
L 306.088603 415.710237 
L 304.681915 415.801004 
L 303.275226 415.444982 
L 301.868538 415.158299 
L 300.46185 414.665051 
L 299.055162 414.302273 
L 297.648474 414.240443 
L 296.241785 413.753914 
L 294.835097 413.502149 
L 293.428409 413.278772 
L 292.021721 412.875423 
L 290.615032 412.711991 
L 289.208344 412.318223 
L 287.801656 411.998033 
L 286.394968 411.709885 
L 284.988279 411.336385 
L 283.581591 410.920861 
L 282.174903 410.557336 
L 280.768215 409.872153 
L 279.361526 409.01342 
L 277.954838 408.43641 
L 276.54815 408.051553 
L 275.141462 407.727077 
L 273.734774 407.017535 
L 272.328085 406.389992 
L 270.921397 405.673206 
L 269.514709 404.951512 
L 268.108021 404.363514 
L 266.701332 403.699694 
L 265.294644 402.802247 
L 263.887956 401.908154 
L 262.481268 401.017508 
L 261.074579 400.124608 
L 259.667891 399.225872 
L 258.261203 398.510809 
L 256.854515 397.737722 
L 255.447826 397.00206 
L 254.041138 396.266399 
L 252.63445 395.550994 
L 251.227762 394.898218 
L 249.821074 394.097839 
L 248.414385 393.348151 
L 247.007697 392.617493 
L 245.601009 391.898812 
L 244.194321 391.147745 
L 242.787632 390.385011 
L 241.380944 389.568273 
L 239.974256 388.953063 
L 238.567568 388.218911 
L 237.160879 387.491247 
L 235.754191 386.841082 
L 234.347503 386.323105 
L 232.940815 385.805128 
L 231.534126 384.99908 
L 230.127438 384.003205 
L 228.72075 383.101805 
L 227.314062 382.413731 
L 225.907373 381.672349 
L 224.500685 380.908088 
L 223.093997 380.212759 
L 221.687309 379.647802 
L 220.280621 379.082845 
L 218.873932 378.517888 
z
" clip-path="url(#p99495ceae7)" style="fill: #008000; fill-opacity: 0.15"/>
   </g>
   <g id="matplotlib.axis_7">
    <g id="xtick_21">
     <g id="line2d_36">
      <g>
       <use xlink:href="#maf6bf84369" x="215.915627" y="498.44" style="stroke: #000000; stroke-width: 0.8"/>
      </g>
     </g>
     <g id="text_30">
      <!-- 0.00 -->
      <g transform="translate(204.782814 513.038437) scale(0.1 -0.1)">
       <use xlink:href="#DejaVuSans-30"/>
       <use xlink:href="#DejaVuSans-2e" x="63.623047"/>
       <use xlink:href="#DejaVuSans-30" x="95.410156"/>
       <use xlink:href="#DejaVuSans-30" x="159.033203"/>
      </g>
     </g>
    </g>
    <g id="xtick_22">
     <g id="line2d_37">
      <g>
       <use xlink:href="#maf6bf84369" x="252.511771" y="498.44" style="stroke: #000000; stroke-width: 0.8"/>
      </g>
     </g>
     <g id="text_31">
      <!-- 0.25 -->
      <g transform="translate(241.378959 513.038437) scale(0.1 -0.1)">
       <use xlink:href="#DejaVuSans-30"/>
       <use xlink:href="#DejaVuSans-2e" x="63.623047"/>
       <use xlink:href="#DejaVuSans-32" x="95.410156"/>
       <use xlink:href="#DejaVuSans-35" x="159.033203"/>
      </g>
     </g>
    </g>
    <g id="xtick_23">
     <g id="line2d_38">
      <g>
       <use xlink:href="#maf6bf84369" x="289.107916" y="498.44" style="stroke: #000000; stroke-width: 0.8"/>
      </g>
     </g>
     <g id="text_32">
      <!-- 0.50 -->
      <g transform="translate(277.975103 513.038437) scale(0.1 -0.1)">
       <use xlink:href="#DejaVuSans-30"/>
       <use xlink:href="#DejaVuSans-2e" x="63.623047"/>
       <use xlink:href="#DejaVuSans-35" x="95.410156"/>
       <use xlink:href="#DejaVuSans-30" x="159.033203"/>
      </g>
     </g>
    </g>
    <g id="xtick_24">
     <g id="line2d_39">
      <g>
       <use xlink:href="#maf6bf84369" x="325.70406" y="498.44" style="stroke: #000000; stroke-width: 0.8"/>
      </g>
     </g>
     <g id="text_33">
      <!-- 0.75 -->
      <g transform="translate(314.571248 513.038437) scale(0.1 -0.1)">
       <use xlink:href="#DejaVuSans-30"/>
       <use xlink:href="#DejaVuSans-2e" x="63.623047"/>
       <use xlink:href="#DejaVuSans-37" x="95.410156"/>
       <use xlink:href="#DejaVuSans-35" x="159.033203"/>
      </g>
     </g>
    </g>
    <g id="xtick_25">
     <g id="line2d_40">
      <g>
       <use xlink:href="#maf6bf84369" x="362.300205" y="498.44" style="stroke: #000000; stroke-width: 0.8"/>
      </g>
     </g>
     <g id="text_34">
      <!-- 1.00 -->
      <g transform="translate(351.167392 513.038437) scale(0.1 -0.1)">
       <use xlink:href="#DejaVuSans-31"/>
       <use xlink:href="#DejaVuSans-2e" x="63.623047"/>
       <use xlink:href="#DejaVuSans-30" x="95.410156"/>
       <use xlink:href="#DejaVuSans-30" x="159.033203"/>
      </g>
     </g>
    </g>
    <g id="text_35">
     <!-- reward rate -->
     <g transform="translate(259.444844 526.716563) scale(0.1 -0.1)">
      <use xlink:href="#DejaVuSans-72"/>
      <use xlink:href="#DejaVuSans-65" x="38.863281"/>
      <use xlink:href="#DejaVuSans-77" x="100.386719"/>
      <use xlink:href="#DejaVuSans-61" x="182.173828"/>
      <use xlink:href="#DejaVuSans-72" x="243.453125"/>
      <use xlink:href="#DejaVuSans-64" x="282.816406"/>
      <use xlink:href="#DejaVuSans-20" x="346.292969"/>
      <use xlink:href="#DejaVuSans-72" x="378.080078"/>
      <use xlink:href="#DejaVuSans-61" x="419.193359"/>
      <use xlink:href="#DejaVuSans-74" x="480.472656"/>
      <use xlink:href="#DejaVuSans-65" x="519.681641"/>
     </g>
    </g>
   </g>
   <g id="matplotlib.axis_8">
    <g id="ytick_14">
     <g id="line2d_41">
      <g>
       <use xlink:href="#m28883a8c77" x="211.910826" y="494.72643" style="stroke: #000000; stroke-width: 0.8"/>
      </g>
     </g>
    </g>
    <g id="ytick_15">
     <g id="line2d_42">
      <g>
       <use xlink:href="#m28883a8c77" x="211.910826" y="470.39175" style="stroke: #000000; stroke-width: 0.8"/>
      </g>
     </g>
    </g>
    <g id="ytick_16">
     <g id="line2d_43">
      <g>
       <use xlink:href="#m28883a8c77" x="211.910826" y="446.05707" style="stroke: #000000; stroke-width: 0.8"/>
      </g>
     </g>
    </g>
    <g id="ytick_17">
     <g id="line2d_44">
      <g>
       <use xlink:href="#m28883a8c77" x="211.910826" y="421.72239" style="stroke: #000000; stroke-width: 0.8"/>
      </g>
     </g>
    </g>
    <g id="ytick_18">
     <g id="line2d_45">
      <g>
       <use xlink:href="#m28883a8c77" x="211.910826" y="397.38771" style="stroke: #000000; stroke-width: 0.8"/>
      </g>
     </g>
    </g>
    <g id="ytick_19">
     <g id="line2d_46">
      <g>
       <use xlink:href="#m28883a8c77" x="211.910826" y="373.05303" style="stroke: #000000; stroke-width: 0.8"/>
      </g>
     </g>
    </g>
    <g id="ytick_20">
     <g id="line2d_47">
      <g>
       <use xlink:href="#m28883a8c77" x="211.910826" y="348.71835" style="stroke: #000000; stroke-width: 0.8"/>
      </g>
     </g>
    </g>
   </g>
   <g id="line2d_48">
    <path d="M 218.873932 420.525419 
L 220.280621 420.740159 
L 221.687309 420.954899 
L 223.093997 421.169639 
L 224.500685 421.384379 
L 225.907373 421.599119 
L 227.314062 421.813859 
L 228.72075 422.028599 
L 230.127438 422.243339 
L 231.534126 422.458079 
L 232.940815 422.672819 
L 234.347503 422.887559 
L 235.754191 423.102299 
L 237.160879 423.317039 
L 238.567568 423.531779 
L 239.974256 423.746519 
L 241.380944 423.961259 
L 242.787632 424.175999 
L 244.194321 424.390739 
L 245.601009 424.605479 
L 247.007697 424.820219 
L 248.414385 425.034959 
L 249.821074 425.249699 
L 251.227762 425.464439 
L 252.63445 425.679179 
L 254.041138 425.893919 
L 255.447826 426.108659 
L 256.854515 426.323399 
L 258.261203 426.538139 
L 259.667891 426.752879 
L 261.074579 426.967619 
L 262.481268 427.182359 
L 263.887956 427.397099 
L 265.294644 427.611839 
L 266.701332 427.826579 
L 268.108021 428.041319 
L 269.514709 428.256059 
L 270.921397 428.470799 
L 272.328085 428.685539 
L 273.734774 428.900279 
L 275.141462 429.115019 
L 276.54815 429.329759 
L 277.954838 429.544499 
L 279.361526 429.759239 
L 280.768215 429.973979 
L 282.174903 430.188719 
L 283.581591 430.403459 
L 284.988279 430.618199 
L 286.394968 430.832939 
L 287.801656 431.047679 
L 289.208344 431.262418 
L 290.615032 431.477158 
L 292.021721 431.691898 
L 293.428409 431.906638 
L 294.835097 432.121378 
L 296.241785 432.336118 
L 297.648474 432.550858 
L 299.055162 432.765598 
L 300.46185 432.980338 
L 301.868538 433.195078 
L 303.275226 433.409818 
L 304.681915 433.624558 
L 306.088603 433.839298 
L 307.495291 434.054038 
L 308.901979 434.268778 
L 310.308668 434.483518 
L 311.715356 434.698258 
L 313.122044 434.912998 
L 314.528732 435.127738 
L 315.935421 435.342478 
L 317.342109 435.557218 
L 318.748797 435.771958 
L 320.155485 435.986698 
L 321.562174 436.201438 
L 322.968862 436.416178 
L 324.37555 436.630918 
L 325.782238 436.845658 
L 327.188926 437.060398 
L 328.595615 437.275138 
L 330.002303 437.489878 
L 331.408991 437.704618 
L 332.815679 437.919358 
L 334.222368 438.134098 
L 335.629056 438.348838 
L 337.035744 438.563578 
L 338.442432 438.778318 
L 339.849121 438.993058 
L 341.255809 439.207798 
L 342.662497 439.422538 
L 344.069185 439.637278 
L 345.475874 439.852018 
L 346.882562 440.066758 
L 348.28925 440.281498 
L 349.695938 440.496238 
L 351.102627 440.710978 
L 352.509315 440.925718 
L 353.916003 441.140458 
L 355.322691 441.355198 
L 356.729379 441.569938 
L 358.136068 441.784678 
" clip-path="url(#p99495ceae7)" style="fill: none; stroke: #008000; stroke-opacity: 0.6; stroke-width: 2.25; stroke-linecap: square"/>
   </g>
   <g id="patch_13">
    <path d="M 211.910826 498.44 
L 211.910826 342.223607 
" style="fill: none; stroke: #000000; stroke-width: 0.8; stroke-linejoin: miter; stroke-linecap: square"/>
   </g>
   <g id="patch_14">
    <path d="M 211.910826 498.44 
L 365.099174 498.44 
" style="fill: none; stroke: #000000; stroke-width: 0.8; stroke-linejoin: miter; stroke-linecap: square"/>
   </g>
   <g id="text_36">
    <!-- r = -0.13  -->
    <g transform="translate(227.22966 357.845247) scale(0.1 -0.1)">
     <use xlink:href="#DejaVuSans-72"/>
     <use xlink:href="#DejaVuSans-20" x="41.113281"/>
     <use xlink:href="#DejaVuSans-3d" x="72.900391"/>
     <use xlink:href="#DejaVuSans-20" x="156.689453"/>
     <use xlink:href="#DejaVuSans-2d" x="188.476562"/>
     <use xlink:href="#DejaVuSans-30" x="224.560547"/>
     <use xlink:href="#DejaVuSans-2e" x="288.183594"/>
     <use xlink:href="#DejaVuSans-31" x="319.970703"/>
     <use xlink:href="#DejaVuSans-33" x="383.59375"/>
     <use xlink:href="#DejaVuSans-20" x="447.216797"/>
    </g>
   </g>
   <g id="text_37">
    <!-- p = 0.539 -->
    <g transform="translate(288.505 357.845247) scale(0.1 -0.1)">
     <use xlink:href="#DejaVuSans-70"/>
     <use xlink:href="#DejaVuSans-20" x="63.476562"/>
     <use xlink:href="#DejaVuSans-3d" x="95.263672"/>
     <use xlink:href="#DejaVuSans-20" x="179.052734"/>
     <use xlink:href="#DejaVuSans-30" x="210.839844"/>
     <use xlink:href="#DejaVuSans-2e" x="274.462891"/>
     <use xlink:href="#DejaVuSans-35" x="306.25"/>
     <use xlink:href="#DejaVuSans-33" x="369.873047"/>
     <use xlink:href="#DejaVuSans-39" x="433.496094"/>
    </g>
   </g>
  </g>
  <g id="axes_6">
   <g id="patch_15">
    <path d="M 376.411651 498.44 
L 529.6 498.44 
L 529.6 342.223607 
L 376.411651 342.223607 
z
" style="fill: #ffffff"/>
   </g>
   <g id="matplotlib.axis_9">
    <g id="xtick_26">
     <g id="line2d_49">
      <g>
       <use xlink:href="#maf6bf84369" x="403.916224" y="498.44" style="stroke: #000000; stroke-width: 0.8"/>
      </g>
     </g>
     <g id="text_38">
      <!-- 2 -->
      <g transform="translate(400.734974 513.038437) scale(0.1 -0.1)">
       <use xlink:href="#DejaVuSans-32"/>
      </g>
     </g>
    </g>
    <g id="xtick_27">
     <g id="line2d_50">
      <g>
       <use xlink:href="#maf6bf84369" x="451.642194" y="498.44" style="stroke: #000000; stroke-width: 0.8"/>
      </g>
     </g>
     <g id="text_39">
      <!-- 4 -->
      <g transform="translate(448.460944 513.038437) scale(0.1 -0.1)">
       <use xlink:href="#DejaVuSans-34"/>
      </g>
     </g>
    </g>
    <g id="xtick_28">
     <g id="line2d_51">
      <g>
       <use xlink:href="#maf6bf84369" x="499.368164" y="498.44" style="stroke: #000000; stroke-width: 0.8"/>
      </g>
     </g>
     <g id="text_40">
      <!-- 6 -->
      <g transform="translate(496.186914 513.038437) scale(0.1 -0.1)">
       <use xlink:href="#DejaVuSans-36"/>
      </g>
     </g>
    </g>
    <g id="text_41">
     <!-- dec temp -->
     <g transform="translate(429.335513 526.716563) scale(0.1 -0.1)">
      <use xlink:href="#DejaVuSans-64"/>
      <use xlink:href="#DejaVuSans-65" x="63.476562"/>
      <use xlink:href="#DejaVuSans-63" x="125"/>
      <use xlink:href="#DejaVuSans-20" x="179.980469"/>
      <use xlink:href="#DejaVuSans-74" x="211.767578"/>
      <use xlink:href="#DejaVuSans-65" x="250.976562"/>
      <use xlink:href="#DejaVuSans-6d" x="312.5"/>
      <use xlink:href="#DejaVuSans-70" x="409.912109"/>
     </g>
    </g>
   </g>
   <g id="patch_16">
    <path d="M 376.411651 498.44 
L 529.6 498.44 
" style="fill: none; stroke: #000000; stroke-width: 0.8; stroke-linejoin: miter; stroke-linecap: square"/>
   </g>
   <g id="text_42">
    <!-- r = 1.00  -->
    <g transform="translate(391.730486 357.845247) scale(0.1 -0.1)">
     <use xlink:href="#DejaVuSans-72"/>
     <use xlink:href="#DejaVuSans-20" x="41.113281"/>
     <use xlink:href="#DejaVuSans-3d" x="72.900391"/>
     <use xlink:href="#DejaVuSans-20" x="156.689453"/>
     <use xlink:href="#DejaVuSans-31" x="188.476562"/>
     <use xlink:href="#DejaVuSans-2e" x="252.099609"/>
     <use xlink:href="#DejaVuSans-30" x="283.886719"/>
     <use xlink:href="#DejaVuSans-30" x="347.509766"/>
     <use xlink:href="#DejaVuSans-20" x="411.132812"/>
    </g>
   </g>
   <g id="text_43">
    <!-- p = 0.000 -->
    <g transform="translate(453.005826 357.845247) scale(0.1 -0.1)">
     <use xlink:href="#DejaVuSans-70"/>
     <use xlink:href="#DejaVuSans-20" x="63.476562"/>
     <use xlink:href="#DejaVuSans-3d" x="95.263672"/>
     <use xlink:href="#DejaVuSans-20" x="179.052734"/>
     <use xlink:href="#DejaVuSans-30" x="210.839844"/>
     <use xlink:href="#DejaVuSans-2e" x="274.462891"/>
     <use xlink:href="#DejaVuSans-30" x="306.25"/>
     <use xlink:href="#DejaVuSans-30" x="369.873047"/>
     <use xlink:href="#DejaVuSans-30" x="433.496094"/>
    </g>
   </g>
  </g>
  <g id="axes_7">
   <g id="patch_17">
    <path d="M 54.373107 166.616393 
L 77.583463 166.616393 
L 77.583463 55.033255 
L 54.373107 55.033255 
z
" clip-path="url(#pc60524a7da)" style="fill: #1f77b4; fill-opacity: 0.75; stroke: #000000; stroke-linejoin: miter"/>
   </g>
   <g id="patch_18">
    <path d="M 77.583463 166.616393 
L 100.793819 166.616393 
L 100.793819 166.616393 
L 77.583463 166.616393 
z
" clip-path="url(#pc60524a7da)" style="fill: #1f77b4; fill-opacity: 0.75; stroke: #000000; stroke-linejoin: miter"/>
   </g>
   <g id="patch_19">
    <path d="M 100.793819 166.616393 
L 124.004174 166.616393 
L 124.004174 110.824824 
L 100.793819 110.824824 
z
" clip-path="url(#pc60524a7da)" style="fill: #1f77b4; fill-opacity: 0.75; stroke: #000000; stroke-linejoin: miter"/>
   </g>
   <g id="patch_20">
    <path d="M 124.004174 166.616393 
L 147.21453 166.616393 
L 147.21453 17.838876 
L 124.004174 17.838876 
z
" clip-path="url(#pc60524a7da)" style="fill: #1f77b4; fill-opacity: 0.75; stroke: #000000; stroke-linejoin: miter"/>
   </g>
   <g id="patch_21">
    <path d="M 147.21453 166.616393 
L 170.424886 166.616393 
L 170.424886 92.227634 
L 147.21453 92.227634 
z
" clip-path="url(#pc60524a7da)" style="fill: #1f77b4; fill-opacity: 0.75; stroke: #000000; stroke-linejoin: miter"/>
   </g>
   <g id="patch_22">
    <path d="M 170.424886 166.616393 
L 193.635242 166.616393 
L 193.635242 110.824824 
L 170.424886 110.824824 
z
" clip-path="url(#pc60524a7da)" style="fill: #1f77b4; fill-opacity: 0.75; stroke: #000000; stroke-linejoin: miter"/>
   </g>
  </g>
  <g id="axes_8">
   <g id="patch_23">
    <path d="M 218.873932 332.528196 
L 242.084288 332.528196 
L 242.084288 258.139438 
L 218.873932 258.139438 
z
" clip-path="url(#pbaa7db18c9)" style="fill: #1f77b4; fill-opacity: 0.75; stroke: #000000; stroke-linejoin: miter"/>
   </g>
   <g id="patch_24">
    <path d="M 242.084288 332.528196 
L 265.294644 332.528196 
L 265.294644 276.736628 
L 242.084288 276.736628 
z
" clip-path="url(#pbaa7db18c9)" style="fill: #1f77b4; fill-opacity: 0.75; stroke: #000000; stroke-linejoin: miter"/>
   </g>
   <g id="patch_25">
    <path d="M 265.294644 332.528196 
L 288.505 332.528196 
L 288.505 276.736628 
L 265.294644 276.736628 
z
" clip-path="url(#pbaa7db18c9)" style="fill: #1f77b4; fill-opacity: 0.75; stroke: #000000; stroke-linejoin: miter"/>
   </g>
   <g id="patch_26">
    <path d="M 288.505 332.528196 
L 311.715356 332.528196 
L 311.715356 239.542248 
L 288.505 239.542248 
z
" clip-path="url(#pbaa7db18c9)" style="fill: #1f77b4; fill-opacity: 0.75; stroke: #000000; stroke-linejoin: miter"/>
   </g>
   <g id="patch_27">
    <path d="M 311.715356 332.528196 
L 334.925712 332.528196 
L 334.925712 258.139438 
L 311.715356 258.139438 
z
" clip-path="url(#pbaa7db18c9)" style="fill: #1f77b4; fill-opacity: 0.75; stroke: #000000; stroke-linejoin: miter"/>
   </g>
   <g id="patch_28">
    <path d="M 334.925712 332.528196 
L 358.136068 332.528196 
L 358.136068 239.542248 
L 334.925712 239.542248 
z
" clip-path="url(#pbaa7db18c9)" style="fill: #1f77b4; fill-opacity: 0.75; stroke: #000000; stroke-linejoin: miter"/>
   </g>
  </g>
  <g id="axes_9">
   <g id="patch_29">
    <path d="M 383.374758 498.44 
L 406.585114 498.44 
L 406.585114 349.662483 
L 383.374758 349.662483 
z
" clip-path="url(#p99c799f857)" style="fill: #1f77b4; fill-opacity: 0.75; stroke: #000000; stroke-linejoin: miter"/>
   </g>
   <g id="patch_30">
    <path d="M 406.585114 498.44 
L 429.79547 498.44 
L 429.79547 442.648431 
L 406.585114 442.648431 
z
" clip-path="url(#p99c799f857)" style="fill: #1f77b4; fill-opacity: 0.75; stroke: #000000; stroke-linejoin: miter"/>
   </g>
   <g id="patch_31">
    <path d="M 429.79547 498.44 
L 453.005826 498.44 
L 453.005826 405.454052 
L 429.79547 405.454052 
z
" clip-path="url(#p99c799f857)" style="fill: #1f77b4; fill-opacity: 0.75; stroke: #000000; stroke-linejoin: miter"/>
   </g>
   <g id="patch_32">
    <path d="M 453.005826 498.44 
L 476.216181 498.44 
L 476.216181 461.245621 
L 453.005826 461.245621 
z
" clip-path="url(#p99c799f857)" style="fill: #1f77b4; fill-opacity: 0.75; stroke: #000000; stroke-linejoin: miter"/>
   </g>
   <g id="patch_33">
    <path d="M 476.216181 498.44 
L 499.426537 498.44 
L 499.426537 479.84281 
L 476.216181 479.84281 
z
" clip-path="url(#p99c799f857)" style="fill: #1f77b4; fill-opacity: 0.75; stroke: #000000; stroke-linejoin: miter"/>
   </g>
   <g id="patch_34">
    <path d="M 499.426537 498.44 
L 522.636893 498.44 
L 522.636893 405.454052 
L 499.426537 405.454052 
z
" clip-path="url(#p99c799f857)" style="fill: #1f77b4; fill-opacity: 0.75; stroke: #000000; stroke-linejoin: miter"/>
   </g>
  </g>
 </g>
 <defs>
  <clipPath id="pb44e501f24">
   <rect x="47.41" y="176.311804" width="153.188349" height="156.216393"/>
  </clipPath>
  <clipPath id="p8931af693a">
   <rect x="47.41" y="342.223607" width="153.188349" height="156.216393"/>
  </clipPath>
  <clipPath id="p99495ceae7">
   <rect x="211.910826" y="342.223607" width="153.188349" height="156.216393"/>
  </clipPath>
  <clipPath id="pc60524a7da">
   <rect x="47.41" y="10.4" width="153.188349" height="156.216393"/>
  </clipPath>
  <clipPath id="pbaa7db18c9">
   <rect x="211.910826" y="176.311804" width="153.188349" height="156.216393"/>
  </clipPath>
  <clipPath id="p99c799f857">
   <rect x="376.411651" y="342.223607" width="153.188349" height="156.216393"/>
  </clipPath>
 </defs>
</svg>
