<?xml version="1.0" encoding="utf-8" standalone="no"?>
<!DOCTYPE svg PUBLIC "-//W3C//DTD SVG 1.1//EN"
  "http://www.w3.org/Graphics/SVG/1.1/DTD/svg11.dtd">
<svg xmlns:xlink="http://www.w3.org/1999/xlink" width="720pt" height="360pt" viewBox="0 0 720 360" xmlns="http://www.w3.org/2000/svg" version="1.1">
 <metadata>
  <rdf:RDF xmlns:dc="http://purl.org/dc/elements/1.1/" xmlns:cc="http://creativecommons.org/ns#" xmlns:rdf="http://www.w3.org/1999/02/22-rdf-syntax-ns#">
   <cc:Work>
    <dc:type rdf:resource="http://purl.org/dc/dcmitype/StillImage"/>
    <dc:date>2025-03-20T13:38:29.120694</dc:date>
    <dc:format>image/svg+xml</dc:format>
    <dc:creator>
     <cc:Agent>
      <dc:title>Matplotlib v3.8.4, https://matplotlib.org/</dc:title>
     </cc:Agent>
    </dc:creator>
   </cc:Work>
  </rdf:RDF>
 </metadata>
 <defs>
  <style type="text/css">*{stroke-linejoin: round; stroke-linecap: butt}</style>
 </defs>
 <g id="figure_1">
  <g id="patch_1">
   <path d="M 0 360 
L 720 360 
L 720 0 
L 0 0 
z
" style="fill: #ffffff"/>
  </g>
  <g id="axes_1">
   <g id="patch_2">
    <path d="M 90 320.4 
L 648 320.4 
L 648 43.2 
L 90 43.2 
z
" style="fill: #ffffff"/>
   </g>
   <g id="matplotlib.axis_1">
    <g id="xtick_1">
     <g id="line2d_1">
      <defs>
       <path id="m5b9f175bb8" d="M 0 0 
L 0 3.5 
" style="stroke: #000000; stroke-width: 0.8"/>
      </defs>
      <g>
       <use xlink:href="#m5b9f175bb8" x="90.277336" y="320.4" style="stroke: #000000; stroke-width: 0.8"/>
      </g>
     </g>
     <g id="text_1">
      <!-- 0 -->
      <g transform="translate(84.551086 341.077187) scale(0.18 -0.18)">
       <defs>
        <path id="DejaVuSans-30" d="M 2034 4250 
Q 1547 4250 1301 3770 
Q 1056 3291 1056 2328 
Q 1056 1369 1301 889 
Q 1547 409 2034 409 
Q 2525 409 2770 889 
Q 3016 1369 3016 2328 
Q 3016 3291 2770 3770 
Q 2525 4250 2034 4250 
z
M 2034 4750 
Q 2819 4750 3233 4129 
Q 3647 3509 3647 2328 
Q 3647 1150 3233 529 
Q 2819 -91 2034 -91 
Q 1250 -91 836 529 
Q 422 1150 422 2328 
Q 422 3509 836 4129 
Q 1250 4750 2034 4750 
z
" transform="scale(0.015625)"/>
       </defs>
       <use xlink:href="#DejaVuSans-30"/>
      </g>
     </g>
    </g>
    <g id="xtick_2">
     <g id="line2d_2">
      <g>
       <use xlink:href="#m5b9f175bb8" x="228.945328" y="320.4" style="stroke: #000000; stroke-width: 0.8"/>
      </g>
     </g>
     <g id="text_2">
      <!-- 50 -->
      <g transform="translate(217.492828 341.077187) scale(0.18 -0.18)">
       <defs>
        <path id="DejaVuSans-35" d="M 691 4666 
L 3169 4666 
L 3169 4134 
L 1269 4134 
L 1269 2991 
Q 1406 3038 1543 3061 
Q 1681 3084 1819 3084 
Q 2600 3084 3056 2656 
Q 3513 2228 3513 1497 
Q 3513 744 3044 326 
Q 2575 -91 1722 -91 
Q 1428 -91 1123 -41 
Q 819 9 494 109 
L 494 744 
Q 775 591 1075 516 
Q 1375 441 1709 441 
Q 2250 441 2565 725 
Q 2881 1009 2881 1497 
Q 2881 1984 2565 2268 
Q 2250 2553 1709 2553 
Q 1456 2553 1204 2497 
Q 953 2441 691 2322 
L 691 4666 
z
" transform="scale(0.015625)"/>
       </defs>
       <use xlink:href="#DejaVuSans-35"/>
       <use xlink:href="#DejaVuSans-30" x="63.623047"/>
      </g>
     </g>
    </g>
    <g id="xtick_3">
     <g id="line2d_3">
      <g>
       <use xlink:href="#m5b9f175bb8" x="367.61332" y="320.4" style="stroke: #000000; stroke-width: 0.8"/>
      </g>
     </g>
     <g id="text_3">
      <!-- 100 -->
      <g transform="translate(350.43457 341.077187) scale(0.18 -0.18)">
       <defs>
        <path id="DejaVuSans-31" d="M 794 531 
L 1825 531 
L 1825 4091 
L 703 3866 
L 703 4441 
L 1819 4666 
L 2450 4666 
L 2450 531 
L 3481 531 
L 3481 0 
L 794 0 
L 794 531 
z
" transform="scale(0.015625)"/>
       </defs>
       <use xlink:href="#DejaVuSans-31"/>
       <use xlink:href="#DejaVuSans-30" x="63.623047"/>
       <use xlink:href="#DejaVuSans-30" x="127.246094"/>
      </g>
     </g>
    </g>
    <g id="xtick_4">
     <g id="line2d_4">
      <g>
       <use xlink:href="#m5b9f175bb8" x="506.281312" y="320.4" style="stroke: #000000; stroke-width: 0.8"/>
      </g>
     </g>
     <g id="text_4">
      <!-- 150 -->
      <g transform="translate(489.102562 341.077187) scale(0.18 -0.18)">
       <use xlink:href="#DejaVuSans-31"/>
       <use xlink:href="#DejaVuSans-35" x="63.623047"/>
       <use xlink:href="#DejaVuSans-30" x="127.246094"/>
      </g>
     </g>
    </g>
    <g id="xtick_5">
     <g id="line2d_5">
      <g>
       <use xlink:href="#m5b9f175bb8" x="644.949304" y="320.4" style="stroke: #000000; stroke-width: 0.8"/>
      </g>
     </g>
     <g id="text_5">
      <!-- 200 -->
      <g transform="translate(627.770554 341.077187) scale(0.18 -0.18)">
       <defs>
        <path id="DejaVuSans-32" d="M 1228 531 
L 3431 531 
L 3431 0 
L 469 0 
L 469 531 
Q 828 903 1448 1529 
Q 2069 2156 2228 2338 
Q 2531 2678 2651 2914 
Q 2772 3150 2772 3378 
Q 2772 3750 2511 3984 
Q 2250 4219 1831 4219 
Q 1534 4219 1204 4116 
Q 875 4013 500 3803 
L 500 4441 
Q 881 4594 1212 4672 
Q 1544 4750 1819 4750 
Q 2544 4750 2975 4387 
Q 3406 4025 3406 3419 
Q 3406 3131 3298 2873 
Q 3191 2616 2906 2266 
Q 2828 2175 2409 1742 
Q 1991 1309 1228 531 
z
" transform="scale(0.015625)"/>
       </defs>
       <use xlink:href="#DejaVuSans-32"/>
       <use xlink:href="#DejaVuSans-30" x="63.623047"/>
       <use xlink:href="#DejaVuSans-30" x="127.246094"/>
      </g>
     </g>
    </g>
    <g id="text_6">
     <!-- trials -->
     <g transform="translate(344.075 364.0175) scale(0.2 -0.2)">
      <defs>
       <path id="DejaVuSans-74" d="M 1172 4494 
L 1172 3500 
L 2356 3500 
L 2356 3053 
L 1172 3053 
L 1172 1153 
Q 1172 725 1289 603 
Q 1406 481 1766 481 
L 2356 481 
L 2356 0 
L 1766 0 
Q 1100 0 847 248 
Q 594 497 594 1153 
L 594 3053 
L 172 3053 
L 172 3500 
L 594 3500 
L 594 4494 
L 1172 4494 
z
" transform="scale(0.015625)"/>
       <path id="DejaVuSans-72" d="M 2631 2963 
Q 2534 3019 2420 3045 
Q 2306 3072 2169 3072 
Q 1681 3072 1420 2755 
Q 1159 2438 1159 1844 
L 1159 0 
L 581 0 
L 581 3500 
L 1159 3500 
L 1159 2956 
Q 1341 3275 1631 3429 
Q 1922 3584 2338 3584 
Q 2397 3584 2469 3576 
Q 2541 3569 2628 3553 
L 2631 2963 
z
" transform="scale(0.015625)"/>
       <path id="DejaVuSans-69" d="M 603 3500 
L 1178 3500 
L 1178 0 
L 603 0 
L 603 3500 
z
M 603 4863 
L 1178 4863 
L 1178 4134 
L 603 4134 
L 603 4863 
z
" transform="scale(0.015625)"/>
       <path id="DejaVuSans-61" d="M 2194 1759 
Q 1497 1759 1228 1600 
Q 959 1441 959 1056 
Q 959 750 1161 570 
Q 1363 391 1709 391 
Q 2188 391 2477 730 
Q 2766 1069 2766 1631 
L 2766 1759 
L 2194 1759 
z
M 3341 1997 
L 3341 0 
L 2766 0 
L 2766 531 
Q 2569 213 2275 61 
Q 1981 -91 1556 -91 
Q 1019 -91 701 211 
Q 384 513 384 1019 
Q 384 1609 779 1909 
Q 1175 2209 1959 2209 
L 2766 2209 
L 2766 2266 
Q 2766 2663 2505 2880 
Q 2244 3097 1772 3097 
Q 1472 3097 1187 3025 
Q 903 2953 641 2809 
L 641 3341 
Q 956 3463 1253 3523 
Q 1550 3584 1831 3584 
Q 2591 3584 2966 3190 
Q 3341 2797 3341 1997 
z
" transform="scale(0.015625)"/>
       <path id="DejaVuSans-6c" d="M 603 4863 
L 1178 4863 
L 1178 0 
L 603 0 
L 603 4863 
z
" transform="scale(0.015625)"/>
       <path id="DejaVuSans-73" d="M 2834 3397 
L 2834 2853 
Q 2591 2978 2328 3040 
Q 2066 3103 1784 3103 
Q 1356 3103 1142 2972 
Q 928 2841 928 2578 
Q 928 2378 1081 2264 
Q 1234 2150 1697 2047 
L 1894 2003 
Q 2506 1872 2764 1633 
Q 3022 1394 3022 966 
Q 3022 478 2636 193 
Q 2250 -91 1575 -91 
Q 1294 -91 989 -36 
Q 684 19 347 128 
L 347 722 
Q 666 556 975 473 
Q 1284 391 1588 391 
Q 1994 391 2212 530 
Q 2431 669 2431 922 
Q 2431 1156 2273 1281 
Q 2116 1406 1581 1522 
L 1381 1569 
Q 847 1681 609 1914 
Q 372 2147 372 2553 
Q 372 3047 722 3315 
Q 1072 3584 1716 3584 
Q 2034 3584 2315 3537 
Q 2597 3491 2834 3397 
z
" transform="scale(0.015625)"/>
      </defs>
      <use xlink:href="#DejaVuSans-74"/>
      <use xlink:href="#DejaVuSans-72" x="39.208984"/>
      <use xlink:href="#DejaVuSans-69" x="80.322266"/>
      <use xlink:href="#DejaVuSans-61" x="108.105469"/>
      <use xlink:href="#DejaVuSans-6c" x="169.384766"/>
      <use xlink:href="#DejaVuSans-73" x="197.167969"/>
     </g>
    </g>
   </g>
   <g id="matplotlib.axis_2">
    <g id="ytick_1">
     <g id="line2d_6">
      <defs>
       <path id="m0baddc231f" d="M 0 0 
L -3.5 0 
" style="stroke: #000000; stroke-width: 0.8"/>
      </defs>
      <g>
       <use xlink:href="#m0baddc231f" x="90" y="320.4" style="stroke: #000000; stroke-width: 0.8"/>
      </g>
     </g>
     <g id="text_7">
      <!-- 0.0 -->
      <g transform="translate(54.374375 327.238594) scale(0.18 -0.18)">
       <defs>
        <path id="DejaVuSans-2e" d="M 684 794 
L 1344 794 
L 1344 0 
L 684 0 
L 684 794 
z
" transform="scale(0.015625)"/>
       </defs>
       <use xlink:href="#DejaVuSans-30"/>
       <use xlink:href="#DejaVuSans-2e" x="63.623047"/>
       <use xlink:href="#DejaVuSans-30" x="95.410156"/>
      </g>
     </g>
    </g>
    <g id="ytick_2">
     <g id="line2d_7">
      <g>
       <use xlink:href="#m0baddc231f" x="90" y="264.96" style="stroke: #000000; stroke-width: 0.8"/>
      </g>
     </g>
     <g id="text_8">
      <!-- 0.2 -->
      <g transform="translate(54.374375 271.798594) scale(0.18 -0.18)">
       <use xlink:href="#DejaVuSans-30"/>
       <use xlink:href="#DejaVuSans-2e" x="63.623047"/>
       <use xlink:href="#DejaVuSans-32" x="95.410156"/>
      </g>
     </g>
    </g>
    <g id="ytick_3">
     <g id="line2d_8">
      <g>
       <use xlink:href="#m0baddc231f" x="90" y="209.52" style="stroke: #000000; stroke-width: 0.8"/>
      </g>
     </g>
     <g id="text_9">
      <!-- 0.4 -->
      <g transform="translate(54.374375 216.358594) scale(0.18 -0.18)">
       <defs>
        <path id="DejaVuSans-34" d="M 2419 4116 
L 825 1625 
L 2419 1625 
L 2419 4116 
z
M 2253 4666 
L 3047 4666 
L 3047 1625 
L 3713 1625 
L 3713 1100 
L 3047 1100 
L 3047 0 
L 2419 0 
L 2419 1100 
L 313 1100 
L 313 1709 
L 2253 4666 
z
" transform="scale(0.015625)"/>
       </defs>
       <use xlink:href="#DejaVuSans-30"/>
       <use xlink:href="#DejaVuSans-2e" x="63.623047"/>
       <use xlink:href="#DejaVuSans-34" x="95.410156"/>
      </g>
     </g>
    </g>
    <g id="ytick_4">
     <g id="line2d_9">
      <g>
       <use xlink:href="#m0baddc231f" x="90" y="154.08" style="stroke: #000000; stroke-width: 0.8"/>
      </g>
     </g>
     <g id="text_10">
      <!-- 0.6 -->
      <g transform="translate(54.374375 160.918594) scale(0.18 -0.18)">
       <defs>
        <path id="DejaVuSans-36" d="M 2113 2584 
Q 1688 2584 1439 2293 
Q 1191 2003 1191 1497 
Q 1191 994 1439 701 
Q 1688 409 2113 409 
Q 2538 409 2786 701 
Q 3034 994 3034 1497 
Q 3034 2003 2786 2293 
Q 2538 2584 2113 2584 
z
M 3366 4563 
L 3366 3988 
Q 3128 4100 2886 4159 
Q 2644 4219 2406 4219 
Q 1781 4219 1451 3797 
Q 1122 3375 1075 2522 
Q 1259 2794 1537 2939 
Q 1816 3084 2150 3084 
Q 2853 3084 3261 2657 
Q 3669 2231 3669 1497 
Q 3669 778 3244 343 
Q 2819 -91 2113 -91 
Q 1303 -91 875 529 
Q 447 1150 447 2328 
Q 447 3434 972 4092 
Q 1497 4750 2381 4750 
Q 2619 4750 2861 4703 
Q 3103 4656 3366 4563 
z
" transform="scale(0.015625)"/>
       </defs>
       <use xlink:href="#DejaVuSans-30"/>
       <use xlink:href="#DejaVuSans-2e" x="63.623047"/>
       <use xlink:href="#DejaVuSans-36" x="95.410156"/>
      </g>
     </g>
    </g>
    <g id="ytick_5">
     <g id="line2d_10">
      <g>
       <use xlink:href="#m0baddc231f" x="90" y="98.64" style="stroke: #000000; stroke-width: 0.8"/>
      </g>
     </g>
     <g id="text_11">
      <!-- 0.8 -->
      <g transform="translate(54.374375 105.478594) scale(0.18 -0.18)">
       <defs>
        <path id="DejaVuSans-38" d="M 2034 2216 
Q 1584 2216 1326 1975 
Q 1069 1734 1069 1313 
Q 1069 891 1326 650 
Q 1584 409 2034 409 
Q 2484 409 2743 651 
Q 3003 894 3003 1313 
Q 3003 1734 2745 1975 
Q 2488 2216 2034 2216 
z
M 1403 2484 
Q 997 2584 770 2862 
Q 544 3141 544 3541 
Q 544 4100 942 4425 
Q 1341 4750 2034 4750 
Q 2731 4750 3128 4425 
Q 3525 4100 3525 3541 
Q 3525 3141 3298 2862 
Q 3072 2584 2669 2484 
Q 3125 2378 3379 2068 
Q 3634 1759 3634 1313 
Q 3634 634 3220 271 
Q 2806 -91 2034 -91 
Q 1263 -91 848 271 
Q 434 634 434 1313 
Q 434 1759 690 2068 
Q 947 2378 1403 2484 
z
M 1172 3481 
Q 1172 3119 1398 2916 
Q 1625 2713 2034 2713 
Q 2441 2713 2670 2916 
Q 2900 3119 2900 3481 
Q 2900 3844 2670 4047 
Q 2441 4250 2034 4250 
Q 1625 4250 1398 4047 
Q 1172 3844 1172 3481 
z
" transform="scale(0.015625)"/>
       </defs>
       <use xlink:href="#DejaVuSans-30"/>
       <use xlink:href="#DejaVuSans-2e" x="63.623047"/>
       <use xlink:href="#DejaVuSans-38" x="95.410156"/>
      </g>
     </g>
    </g>
    <g id="ytick_6">
     <g id="line2d_11">
      <g>
       <use xlink:href="#m0baddc231f" x="90" y="43.2" style="stroke: #000000; stroke-width: 0.8"/>
      </g>
     </g>
     <g id="text_12">
      <!-- 1.0 -->
      <g transform="translate(54.374375 50.038594) scale(0.18 -0.18)">
       <use xlink:href="#DejaVuSans-31"/>
       <use xlink:href="#DejaVuSans-2e" x="63.623047"/>
       <use xlink:href="#DejaVuSans-30" x="95.410156"/>
      </g>
     </g>
    </g>
    <g id="text_13">
     <!-- reward probability -->
     <g transform="translate(46.215 272.959375) rotate(-90) scale(0.2 -0.2)">
      <defs>
       <path id="DejaVuSans-65" d="M 3597 1894 
L 3597 1613 
L 953 1613 
Q 991 1019 1311 708 
Q 1631 397 2203 397 
Q 2534 397 2845 478 
Q 3156 559 3463 722 
L 3463 178 
Q 3153 47 2828 -22 
Q 2503 -91 2169 -91 
Q 1331 -91 842 396 
Q 353 884 353 1716 
Q 353 2575 817 3079 
Q 1281 3584 2069 3584 
Q 2775 3584 3186 3129 
Q 3597 2675 3597 1894 
z
M 3022 2063 
Q 3016 2534 2758 2815 
Q 2500 3097 2075 3097 
Q 1594 3097 1305 2825 
Q 1016 2553 972 2059 
L 3022 2063 
z
" transform="scale(0.015625)"/>
       <path id="DejaVuSans-77" d="M 269 3500 
L 844 3500 
L 1563 769 
L 2278 3500 
L 2956 3500 
L 3675 769 
L 4391 3500 
L 4966 3500 
L 4050 0 
L 3372 0 
L 2619 2869 
L 1863 0 
L 1184 0 
L 269 3500 
z
" transform="scale(0.015625)"/>
       <path id="DejaVuSans-64" d="M 2906 2969 
L 2906 4863 
L 3481 4863 
L 3481 0 
L 2906 0 
L 2906 525 
Q 2725 213 2448 61 
Q 2172 -91 1784 -91 
Q 1150 -91 751 415 
Q 353 922 353 1747 
Q 353 2572 751 3078 
Q 1150 3584 1784 3584 
Q 2172 3584 2448 3432 
Q 2725 3281 2906 2969 
z
M 947 1747 
Q 947 1113 1208 752 
Q 1469 391 1925 391 
Q 2381 391 2643 752 
Q 2906 1113 2906 1747 
Q 2906 2381 2643 2742 
Q 2381 3103 1925 3103 
Q 1469 3103 1208 2742 
Q 947 2381 947 1747 
z
" transform="scale(0.015625)"/>
       <path id="DejaVuSans-20" transform="scale(0.015625)"/>
       <path id="DejaVuSans-70" d="M 1159 525 
L 1159 -1331 
L 581 -1331 
L 581 3500 
L 1159 3500 
L 1159 2969 
Q 1341 3281 1617 3432 
Q 1894 3584 2278 3584 
Q 2916 3584 3314 3078 
Q 3713 2572 3713 1747 
Q 3713 922 3314 415 
Q 2916 -91 2278 -91 
Q 1894 -91 1617 61 
Q 1341 213 1159 525 
z
M 3116 1747 
Q 3116 2381 2855 2742 
Q 2594 3103 2138 3103 
Q 1681 3103 1420 2742 
Q 1159 2381 1159 1747 
Q 1159 1113 1420 752 
Q 1681 391 2138 391 
Q 2594 391 2855 752 
Q 3116 1113 3116 1747 
z
" transform="scale(0.015625)"/>
       <path id="DejaVuSans-6f" d="M 1959 3097 
Q 1497 3097 1228 2736 
Q 959 2375 959 1747 
Q 959 1119 1226 758 
Q 1494 397 1959 397 
Q 2419 397 2687 759 
Q 2956 1122 2956 1747 
Q 2956 2369 2687 2733 
Q 2419 3097 1959 3097 
z
M 1959 3584 
Q 2709 3584 3137 3096 
Q 3566 2609 3566 1747 
Q 3566 888 3137 398 
Q 2709 -91 1959 -91 
Q 1206 -91 779 398 
Q 353 888 353 1747 
Q 353 2609 779 3096 
Q 1206 3584 1959 3584 
z
" transform="scale(0.015625)"/>
       <path id="DejaVuSans-62" d="M 3116 1747 
Q 3116 2381 2855 2742 
Q 2594 3103 2138 3103 
Q 1681 3103 1420 2742 
Q 1159 2381 1159 1747 
Q 1159 1113 1420 752 
Q 1681 391 2138 391 
Q 2594 391 2855 752 
Q 3116 1113 3116 1747 
z
M 1159 2969 
Q 1341 3281 1617 3432 
Q 1894 3584 2278 3584 
Q 2916 3584 3314 3078 
Q 3713 2572 3713 1747 
Q 3713 922 3314 415 
Q 2916 -91 2278 -91 
Q 1894 -91 1617 61 
Q 1341 213 1159 525 
L 1159 0 
L 581 0 
L 581 4863 
L 1159 4863 
L 1159 2969 
z
" transform="scale(0.015625)"/>
       <path id="DejaVuSans-79" d="M 2059 -325 
Q 1816 -950 1584 -1140 
Q 1353 -1331 966 -1331 
L 506 -1331 
L 506 -850 
L 844 -850 
Q 1081 -850 1212 -737 
Q 1344 -625 1503 -206 
L 1606 56 
L 191 3500 
L 800 3500 
L 1894 763 
L 2988 3500 
L 3597 3500 
L 2059 -325 
z
" transform="scale(0.015625)"/>
      </defs>
      <use xlink:href="#DejaVuSans-72"/>
      <use xlink:href="#DejaVuSans-65" x="38.863281"/>
      <use xlink:href="#DejaVuSans-77" x="100.386719"/>
      <use xlink:href="#DejaVuSans-61" x="182.173828"/>
      <use xlink:href="#DejaVuSans-72" x="243.453125"/>
      <use xlink:href="#DejaVuSans-64" x="282.816406"/>
      <use xlink:href="#DejaVuSans-20" x="346.292969"/>
      <use xlink:href="#DejaVuSans-70" x="378.080078"/>
      <use xlink:href="#DejaVuSans-72" x="441.556641"/>
      <use xlink:href="#DejaVuSans-6f" x="480.419922"/>
      <use xlink:href="#DejaVuSans-62" x="541.601562"/>
      <use xlink:href="#DejaVuSans-61" x="605.078125"/>
      <use xlink:href="#DejaVuSans-62" x="666.357422"/>
      <use xlink:href="#DejaVuSans-69" x="729.833984"/>
      <use xlink:href="#DejaVuSans-6c" x="757.617188"/>
      <use xlink:href="#DejaVuSans-69" x="785.400391"/>
      <use xlink:href="#DejaVuSans-74" x="813.183594"/>
      <use xlink:href="#DejaVuSans-79" x="852.392578"/>
     </g>
    </g>
   </g>
   <g id="line2d_12">
    <path d="M 90.277336 114.320455 
L 93.050696 116.139195 
L 95.824056 117.503312 
L 98.597416 120.193962 
L 101.370775 120.425721 
L 104.144135 132.421888 
L 106.917495 136.072851 
L 109.690855 142.666804 
L 112.464215 138.680607 
L 115.237575 142.925862 
L 118.010934 155.601013 
L 120.784294 155.922069 
L 123.557654 153.29578 
L 126.331014 156.892153 
L 129.104374 154.928074 
L 131.877734 139.836163 
L 134.651093 140.592345 
L 137.424453 144.083892 
L 140.197813 142.701353 
L 142.971173 151.476667 
L 145.744533 140.770123 
L 148.517893 139.185039 
L 151.291252 144.167275 
L 154.064612 150.155098 
L 156.837972 143.371694 
L 159.611332 144.934465 
L 162.384692 151.336718 
L 165.158052 153.261395 
L 167.931412 155.932762 
L 170.704771 152.741593 
L 173.478131 158.761198 
L 176.251491 153.922353 
L 179.024851 149.643603 
L 181.798211 151.512819 
L 184.571571 154.041128 
L 187.34493 156.346056 
L 190.11829 158.310993 
L 192.89165 143.713916 
L 195.66501 148.3136 
L 198.43837 158.319633 
L 201.21173 138.350505 
L 203.985089 149.190139 
L 206.758449 163.116241 
L 209.531809 166.895842 
L 212.305169 168.268892 
L 215.078529 172.026226 
L 217.851889 169.309132 
L 220.625249 172.071088 
L 226.171968 178.859275 
L 228.945328 178.063601 
L 231.718688 169.682149 
L 234.492048 165.613741 
L 237.265408 160.334722 
L 240.038767 154.172856 
L 242.812127 163.622807 
L 245.585487 169.834866 
L 248.358847 174.399515 
L 251.132207 179.99761 
L 253.905567 174.560997 
L 256.678926 176.161738 
L 259.452286 169.541618 
L 262.225646 173.75321 
L 264.999006 167.293462 
L 270.545726 170.034372 
L 273.319085 174.942233 
L 276.092445 185.520293 
L 278.865805 176.082733 
L 281.639165 172.188778 
L 284.412525 160.083377 
L 287.185885 173.946336 
L 289.959245 172.871224 
L 292.732604 166.33955 
L 295.505964 177.777092 
L 298.279324 182.090465 
L 301.052684 185.196927 
L 303.826044 177.354832 
L 306.599404 165.206589 
L 309.372763 159.549658 
L 312.146123 155.140252 
L 314.919483 147.553577 
L 317.692843 149.567476 
L 320.466203 133.266219 
L 323.239563 141.850864 
L 326.012922 131.772535 
L 328.786282 130.505269 
L 331.559642 133.675815 
L 334.333002 142.418984 
L 337.106362 153.026918 
L 339.879722 154.595708 
L 342.653082 166.820002 
L 345.426441 162.590158 
L 348.199801 157.071504 
L 350.973161 161.266604 
L 353.746521 162.699143 
L 356.519881 160.966945 
L 359.293241 152.931825 
L 364.83996 150.990506 
L 367.61332 146.336969 
L 370.38668 149.295963 
L 373.16004 155.682167 
L 375.9334 151.652352 
L 378.706759 151.638498 
L 381.480119 143.815586 
L 384.253479 149.032387 
L 387.026839 144.441695 
L 389.800199 148.312803 
L 392.573559 144.489447 
L 395.346918 145.012421 
L 398.120278 139.590064 
L 400.893638 143.441574 
L 403.666998 147.808388 
L 406.440358 159.113936 
L 409.213718 158.25966 
L 411.987078 159.630859 
L 414.760437 170.51273 
L 417.533797 171.98832 
L 420.307157 171.280633 
L 423.080517 175.983246 
L 425.853877 181.781645 
L 428.627237 192.358141 
L 431.400596 199.202158 
L 434.173956 200.208649 
L 436.947316 210.465717 
L 439.720676 195.897578 
L 442.494036 191.473911 
L 445.267396 179.686636 
L 448.040755 179.827176 
L 450.814115 178.256167 
L 453.587475 187.501288 
L 456.360835 185.993415 
L 459.134195 173.941435 
L 461.907555 166.621495 
L 464.680915 162.842398 
L 467.454274 166.047636 
L 470.227634 169.016 
L 473.000994 172.768047 
L 475.774354 178.410275 
L 478.547714 180.937441 
L 481.321074 173.331747 
L 484.094433 178.84527 
L 486.867793 175.926228 
L 489.641153 183.704076 
L 492.414513 188.611073 
L 495.187873 184.063015 
L 497.961233 192.496181 
L 500.734592 196.022195 
L 503.507952 190.318203 
L 506.281312 191.708771 
L 509.054672 181.230169 
L 511.828032 172.807091 
L 514.601392 170.66039 
L 517.374751 176.306856 
L 520.148111 186.87529 
L 522.921471 189.579223 
L 525.694831 190.646536 
L 528.468191 181.420709 
L 531.241551 174.284545 
L 534.014911 172.404519 
L 536.78827 176.106733 
L 539.56163 177.064302 
L 542.33499 166.86835 
L 545.10835 163.967432 
L 547.88171 160.529765 
L 550.65507 150.247625 
L 556.201789 132.527025 
L 558.975149 140.992053 
L 561.748509 132.069439 
L 564.521869 124.593154 
L 567.295229 136.029673 
L 570.068588 123.215836 
L 572.841948 115.594131 
L 575.615308 132.038233 
L 578.388668 127.908533 
L 581.162028 140.813715 
L 583.935388 145.41814 
L 586.708748 139.542744 
L 589.482107 141.22569 
L 592.255467 138.007077 
L 595.028827 136.88469 
L 597.802187 143.699799 
L 600.575547 148.159497 
L 603.348907 155.770971 
L 606.122266 165.138496 
L 608.895626 157.528706 
L 611.668986 167.485645 
L 614.442346 176.227859 
L 617.215706 174.261114 
L 619.989066 169.131658 
L 622.762425 167.627327 
L 625.535785 161.426384 
L 628.309145 165.48413 
L 631.082505 160.740654 
L 636.629225 185.469009 
L 639.402584 178.95006 
L 642.175944 183.01909 
L 644.949304 190.151437 
L 644.949304 190.151437 
" clip-path="url(#p21c726cc21)" style="fill: none; stroke: #1f77b4; stroke-width: 4; stroke-linecap: square"/>
   </g>
   <g id="line2d_13">
    <path d="M 90.277336 154.382436 
L 93.050696 141.780915 
L 95.824056 139.618676 
L 98.597416 133.823592 
L 101.370775 148.234409 
L 104.144135 143.345034 
L 106.917495 151.871541 
L 109.690855 140.664145 
L 112.464215 150.206718 
L 115.237575 154.757169 
L 118.010934 162.610669 
L 120.784294 161.150224 
L 123.557654 153.076102 
L 126.331014 157.704123 
L 129.104374 145.704437 
L 131.877734 145.3821 
L 134.651093 142.559502 
L 137.424453 141.010383 
L 140.197813 140.680889 
L 142.971173 144.948599 
L 148.517893 157.797463 
L 151.291252 159.448476 
L 154.064612 153.53233 
L 156.837972 156.264846 
L 159.611332 169.314507 
L 162.384692 161.994856 
L 165.158052 146.945022 
L 167.931412 148.074873 
L 170.704771 161.447392 
L 173.478131 154.170743 
L 179.024851 136.414234 
L 181.798211 142.14428 
L 184.571571 142.592171 
L 187.34493 136.097964 
L 190.11829 129.976092 
L 192.89165 132.679655 
L 195.66501 136.825942 
L 198.43837 130.756856 
L 201.21173 130.739659 
L 203.985089 135.481794 
L 206.758449 138.31294 
L 209.531809 131.008827 
L 212.305169 130.151945 
L 215.078529 140.481839 
L 217.851889 148.64595 
L 220.625249 151.714961 
L 223.398608 164.121639 
L 226.171968 168.696134 
L 228.945328 162.44557 
L 231.718688 153.242254 
L 234.492048 143.040611 
L 237.265408 149.835257 
L 240.038767 135.259723 
L 242.812127 135.960411 
L 245.585487 134.262281 
L 248.358847 137.672991 
L 251.132207 139.232592 
L 253.905567 138.327257 
L 256.678926 120.156477 
L 259.452286 130.084053 
L 262.225646 130.143545 
L 264.999006 134.846323 
L 267.772366 141.326747 
L 270.545726 145.038252 
L 273.319085 136.09336 
L 276.092445 129.677168 
L 278.865805 117.667077 
L 281.639165 123.13248 
L 284.412525 119.632132 
L 287.185885 123.464308 
L 289.959245 116.488013 
L 292.732604 120.340751 
L 295.505964 114.274348 
L 298.279324 120.32435 
L 301.052684 112.677183 
L 303.826044 119.146495 
L 306.599404 119.377941 
L 309.372763 131.435873 
L 312.146123 131.317048 
L 314.919483 130.596387 
L 317.692843 134.246031 
L 320.466203 136.418853 
L 323.239563 141.860925 
L 326.012922 152.781078 
L 328.786282 149.344494 
L 331.559642 156.612212 
L 334.333002 164.265946 
L 337.106362 162.212056 
L 339.879722 165.259895 
L 342.653082 154.577881 
L 345.426441 156.808917 
L 348.199801 155.484785 
L 350.973161 141.508731 
L 353.746521 143.988472 
L 356.519881 157.712408 
L 359.293241 149.731306 
L 362.0666 158.59944 
L 364.83996 158.856959 
L 367.61332 164.406839 
L 373.16004 171.200503 
L 375.9334 177.212914 
L 378.706759 187.51714 
L 381.480119 190.848223 
L 384.253479 184.502789 
L 387.026839 184.842432 
L 389.800199 184.501117 
L 392.573559 169.161608 
L 395.346918 170.999213 
L 398.120278 178.509752 
L 400.893638 188.588815 
L 403.666998 202.314809 
L 406.440358 200.133753 
L 409.213718 206.945581 
L 411.987078 205.944517 
L 414.760437 201.362526 
L 417.533797 199.60774 
L 420.307157 195.372164 
L 423.080517 187.015084 
L 425.853877 183.705676 
L 428.627237 176.532833 
L 431.400596 174.280399 
L 434.173956 181.625404 
L 436.947316 180.946828 
L 439.720676 182.627374 
L 442.494036 183.885769 
L 445.267396 167.582251 
L 448.040755 168.443858 
L 450.814115 181.328885 
L 453.587475 184.089422 
L 456.360835 176.28952 
L 459.134195 179.712752 
L 461.907555 178.37128 
L 464.680915 179.194393 
L 467.454274 184.725134 
L 470.227634 179.176355 
L 473.000994 174.360953 
L 475.774354 162.748401 
L 478.547714 161.276409 
L 481.321074 165.565224 
L 484.094433 180.93589 
L 486.867793 182.207822 
L 489.641153 178.649228 
L 492.414513 184.312994 
L 495.187873 187.690028 
L 497.961233 187.11806 
L 500.734592 187.14659 
L 503.507952 186.074355 
L 509.054672 200.403419 
L 511.828032 197.026222 
L 514.601392 191.708152 
L 517.374751 185.549614 
L 520.148111 185.903727 
L 522.921471 193.471405 
L 525.694831 192.451031 
L 528.468191 185.669537 
L 531.241551 190.441913 
L 534.014911 190.835779 
L 536.78827 191.933781 
L 539.56163 191.862347 
L 542.33499 190.602538 
L 545.10835 193.742724 
L 547.88171 194.422994 
L 550.65507 188.790834 
L 553.428429 185.819962 
L 556.201789 177.40516 
L 558.975149 178.817661 
L 567.295229 195.819668 
L 570.068588 200.470956 
L 572.841948 203.456606 
L 575.615308 202.223603 
L 578.388668 199.795224 
L 581.162028 201.170237 
L 583.935388 212.94182 
L 586.708748 212.300286 
L 589.482107 203.055623 
L 592.255467 203.549242 
L 595.028827 197.860466 
L 597.802187 197.051435 
L 600.575547 208.684992 
L 603.348907 206.782768 
L 606.122266 211.854116 
L 608.895626 205.653757 
L 611.668986 219.885459 
L 614.442346 226.962194 
L 617.215706 228.444321 
L 619.989066 228.48678 
L 622.762425 222.450437 
L 625.535785 230.999176 
L 628.309145 240.483808 
L 631.082505 234.809133 
L 633.855865 227.65329 
L 636.629225 230.150305 
L 639.402584 228.898208 
L 642.175944 221.995265 
L 644.949304 233.039462 
L 644.949304 233.039462 
" clip-path="url(#p21c726cc21)" style="fill: none; stroke: #ff7f0e; stroke-width: 4; stroke-linecap: square"/>
   </g>
   <g id="line2d_14">
    <path d="M 90.277336 196.64869 
L 93.050696 185.825214 
L 95.824056 180.237918 
L 98.597416 172.694288 
L 104.144135 167.492039 
L 106.917495 162.559989 
L 109.690855 150.380937 
L 112.464215 151.481751 
L 115.237575 160.941571 
L 118.010934 158.77417 
L 120.784294 159.093458 
L 123.557654 166.69688 
L 126.331014 163.088198 
L 129.104374 169.150841 
L 131.877734 168.05158 
L 134.651093 165.589696 
L 137.424453 162.441473 
L 140.197813 159.949627 
L 142.971173 152.633899 
L 145.744533 147.812052 
L 148.517893 155.628026 
L 151.291252 152.561088 
L 154.064612 154.056939 
L 156.837972 158.31743 
L 159.611332 150.427995 
L 162.384692 154.070579 
L 165.158052 148.817468 
L 167.931412 142.373603 
L 170.704771 142.248627 
L 173.478131 141.358503 
L 176.251491 141.790469 
L 179.024851 140.702246 
L 181.798211 147.055451 
L 184.571571 144.321685 
L 187.34493 145.295624 
L 190.11829 149.586582 
L 192.89165 160.390618 
L 195.66501 152.455488 
L 198.43837 147.978941 
L 201.21173 153.165331 
L 203.985089 148.58732 
L 206.758449 151.062545 
L 209.531809 142.965245 
L 212.305169 145.017124 
L 215.078529 149.268973 
L 217.851889 150.356249 
L 220.625249 157.977803 
L 223.398608 154.714847 
L 226.171968 150.477727 
L 228.945328 149.820384 
L 231.718688 140.926725 
L 234.492048 150.155214 
L 237.265408 153.22642 
L 240.038767 152.599111 
L 242.812127 140.41239 
L 245.585487 132.12392 
L 248.358847 130.334502 
L 251.132207 125.115443 
L 253.905567 138.934857 
L 256.678926 139.243619 
L 259.452286 132.930188 
L 262.225646 128.81757 
L 264.999006 129.46928 
L 267.772366 114.287004 
L 270.545726 116.993135 
L 273.319085 112.504849 
L 276.092445 120.523895 
L 278.865805 121.602412 
L 281.639165 119.600042 
L 284.412525 112.658524 
L 287.185885 114.846498 
L 289.959245 120.466991 
L 292.732604 122.334352 
L 295.505964 124.439711 
L 298.279324 132.070887 
L 301.052684 133.641001 
L 303.826044 147.046798 
L 306.599404 148.032069 
L 309.372763 151.967555 
L 312.146123 145.43987 
L 314.919483 140.525396 
L 317.692843 138.682838 
L 320.466203 130.967128 
L 323.239563 130.368134 
L 326.012922 130.293713 
L 328.786282 140.32933 
L 331.559642 140.394909 
L 334.333002 135.23354 
L 337.106362 135.326176 
L 339.879722 136.217313 
L 342.653082 127.560193 
L 345.426441 121.155659 
L 348.199801 119.335957 
L 350.973161 124.088628 
L 353.746521 117.190244 
L 356.519881 113.976471 
L 359.293241 112.91511 
L 362.0666 118.126759 
L 364.83996 123.949478 
L 367.61332 120.635956 
L 370.38668 134.398459 
L 373.16004 141.598503 
L 375.9334 128.275171 
L 378.706759 145.314331 
L 381.480119 140.447413 
L 384.253479 142.94467 
L 387.026839 146.479941 
L 389.800199 140.980002 
L 392.573559 145.933369 
L 395.346918 143.578203 
L 398.120278 140.329897 
L 400.893638 148.896457 
L 403.666998 156.149637 
L 406.440358 153.715555 
L 409.213718 154.739099 
L 411.987078 144.290755 
L 414.760437 151.07598 
L 417.533797 150.907651 
L 420.307157 159.567151 
L 423.080517 164.114543 
L 425.853877 159.987932 
L 431.400596 146.454136 
L 434.173956 144.80248 
L 436.947316 138.791231 
L 439.720676 139.814245 
L 442.494036 139.514846 
L 445.267396 142.843729 
L 448.040755 140.044742 
L 450.814115 137.898153 
L 453.587475 138.559024 
L 456.360835 138.003826 
L 459.134195 146.995801 
L 461.907555 150.039211 
L 464.680915 156.598711 
L 467.454274 171.550138 
L 470.227634 170.057447 
L 473.000994 173.135528 
L 475.774354 170.482608 
L 478.547714 175.30819 
L 481.321074 184.757823 
L 486.867793 167.87703 
L 489.641153 164.617372 
L 492.414513 162.12191 
L 495.187873 158.929838 
L 497.961233 169.188046 
L 500.734592 164.52544 
L 503.507952 162.836398 
L 506.281312 164.657773 
L 509.054672 169.28147 
L 511.828032 171.061918 
L 514.601392 162.372453 
L 517.374751 169.016739 
L 520.148111 164.047981 
L 522.921471 163.265541 
L 525.694831 168.193151 
L 528.468191 169.780209 
L 531.241551 162.254386 
L 534.014911 151.218493 
L 536.78827 147.516287 
L 539.56163 155.231286 
L 542.33499 164.865034 
L 545.10835 175.676771 
L 547.88171 183.372643 
L 550.65507 175.017046 
L 553.428429 163.293812 
L 556.201789 166.733709 
L 558.975149 173.492276 
L 561.748509 157.314105 
L 564.521869 145.469801 
L 570.068588 171.197048 
L 572.841948 178.402518 
L 575.615308 166.690876 
L 578.388668 169.280194 
L 581.162028 178.298941 
L 583.935388 169.437162 
L 586.708748 175.370956 
L 589.482107 170.46315 
L 592.255467 184.419804 
L 595.028827 192.702131 
L 597.802187 199.68018 
L 600.575547 200.067929 
L 603.348907 191.409295 
L 606.122266 195.03851 
L 608.895626 196.736505 
L 611.668986 194.000182 
L 614.442346 185.970147 
L 617.215706 183.69865 
L 619.989066 189.459926 
L 622.762425 190.879667 
L 625.535785 192.884385 
L 628.309145 223.306659 
L 631.082505 217.811081 
L 633.855865 207.545161 
L 636.629225 217.700545 
L 639.402584 222.378411 
L 642.175944 225.604949 
L 644.949304 233.114434 
L 644.949304 233.114434 
" clip-path="url(#p21c726cc21)" style="fill: none; stroke: #2ca02c; stroke-width: 4; stroke-linecap: square"/>
   </g>
   <g id="line2d_15">
    <path d="M 90.277336 116.649317 
L 93.050696 117.394844 
L 95.824056 114.237304 
L 98.597416 123.055396 
L 101.370775 125.361858 
L 104.144135 124.093608 
L 106.917495 133.818085 
L 109.690855 135.813696 
L 112.464215 138.283333 
L 115.237575 143.630856 
L 118.010934 143.822361 
L 120.784294 137.585274 
L 123.557654 138.889438 
L 126.331014 139.0827 
L 129.104374 141.801158 
L 131.877734 143.548466 
L 134.651093 142.927012 
L 137.424453 150.683409 
L 140.197813 164.130988 
L 142.971173 156.923042 
L 145.744533 169.385769 
L 148.517893 184.461774 
L 151.291252 177.521112 
L 154.064612 183.669171 
L 156.837972 178.182367 
L 159.611332 171.327686 
L 162.384692 168.0918 
L 165.158052 174.976463 
L 167.931412 167.138616 
L 170.704771 173.918647 
L 173.478131 176.613072 
L 176.251491 173.641587 
L 179.024851 177.469482 
L 181.798211 179.104786 
L 184.571571 174.945664 
L 187.34493 165.764031 
L 190.11829 153.384565 
L 192.89165 159.765863 
L 195.66501 159.110317 
L 198.43837 164.755938 
L 201.21173 169.972012 
L 203.985089 182.131452 
L 206.758449 182.804495 
L 209.531809 173.418742 
L 212.305169 171.347488 
L 215.078529 171.215299 
L 217.851889 172.923861 
L 220.625249 161.631556 
L 223.398608 173.319552 
L 226.171968 172.207972 
L 228.945328 179.077324 
L 231.718688 182.852226 
L 234.492048 182.853296 
L 237.265408 180.356551 
L 240.038767 183.314258 
L 242.812127 177.38746 
L 245.585487 170.50604 
L 248.358847 148.463728 
L 251.132207 146.524656 
L 253.905567 147.795622 
L 256.678926 141.197494 
L 259.452286 137.736669 
L 262.225646 140.599939 
L 264.999006 135.58202 
L 267.772366 125.959239 
L 270.545726 122.701912 
L 273.319085 113.057205 
L 276.092445 121.76131 
L 278.865805 125.913761 
L 281.639165 125.894761 
L 284.412525 124.201862 
L 287.185885 130.016843 
L 289.959245 126.48657 
L 292.732604 134.802374 
L 295.505964 132.5209 
L 298.279324 127.450753 
L 301.052684 123.607213 
L 303.826044 132.176097 
L 306.599404 128.653989 
L 309.372763 133.905427 
L 312.146123 135.391494 
L 314.919483 129.412573 
L 317.692843 120.655565 
L 320.466203 114.089593 
L 323.239563 116.637661 
L 326.012922 132.524307 
L 328.786282 141.313672 
L 331.559642 137.098498 
L 334.333002 144.955586 
L 337.106362 153.568464 
L 339.879722 148.469676 
L 342.653082 146.442409 
L 345.426441 155.148846 
L 348.199801 158.407089 
L 350.973161 170.72691 
L 356.519881 159.17394 
L 359.293241 152.452137 
L 362.0666 151.571753 
L 364.83996 150.55631 
L 367.61332 155.553408 
L 370.38668 152.000537 
L 373.16004 146.550588 
L 375.9334 156.548764 
L 378.706759 162.054837 
L 381.480119 155.403412 
L 384.253479 149.932303 
L 387.026839 148.620125 
L 389.800199 149.770164 
L 392.573559 137.428479 
L 395.346918 128.322857 
L 398.120278 131.10307 
L 400.893638 136.094221 
L 403.666998 126.792926 
L 406.440358 124.622816 
L 409.213718 126.574506 
L 411.987078 129.172746 
L 414.760437 124.182906 
L 417.533797 128.346117 
L 420.307157 128.336281 
L 423.080517 128.68804 
L 425.853877 134.616032 
L 428.627237 148.123243 
L 431.400596 149.209861 
L 434.173956 146.850179 
L 436.947316 142.437063 
L 439.720676 148.474074 
L 442.494036 152.090833 
L 445.267396 144.432538 
L 448.040755 149.580276 
L 450.814115 145.870177 
L 453.587475 155.554459 
L 456.360835 146.839545 
L 459.134195 139.135698 
L 461.907555 141.609759 
L 464.680915 140.186299 
L 467.454274 158.546397 
L 470.227634 165.728144 
L 473.000994 178.577755 
L 475.774354 172.109584 
L 478.547714 165.933881 
L 481.321074 167.028826 
L 484.094433 179.618302 
L 486.867793 178.380737 
L 489.641153 164.628501 
L 492.414513 160.652899 
L 495.187873 157.140442 
L 497.961233 165.461342 
L 500.734592 171.663245 
L 503.507952 162.533199 
L 506.281312 151.611458 
L 509.054672 147.734882 
L 511.828032 139.591093 
L 514.601392 136.933496 
L 517.374751 141.017584 
L 520.148111 140.458379 
L 522.921471 141.223198 
L 525.694831 138.626494 
L 528.468191 126.00187 
L 531.241551 130.426927 
L 534.014911 134.335298 
L 536.78827 132.787563 
L 539.56163 130.713686 
L 542.33499 123.84222 
L 545.10835 127.274338 
L 547.88171 120.428629 
L 550.65507 126.548138 
L 553.428429 119.523405 
L 556.201789 121.564862 
L 558.975149 117.930764 
L 561.748509 123.802559 
L 564.521869 115.70669 
L 567.295229 117.803458 
L 570.068588 120.840801 
L 572.841948 129.833404 
L 575.615308 133.981433 
L 578.388668 142.010705 
L 581.162028 146.625066 
L 583.935388 134.63608 
L 586.708748 136.422661 
L 589.482107 138.345491 
L 592.255467 136.244599 
L 595.028827 143.989882 
L 597.802187 147.626722 
L 600.575547 141.65198 
L 603.348907 138.606924 
L 606.122266 141.578456 
L 608.895626 142.8556 
L 611.668986 156.151104 
L 614.442346 153.169775 
L 617.215706 164.130408 
L 619.989066 170.701381 
L 622.762425 186.923781 
L 625.535785 180.917045 
L 628.309145 174.288791 
L 631.082505 161.757499 
L 633.855865 161.104526 
L 636.629225 161.497739 
L 639.402584 149.975722 
L 642.175944 151.560333 
L 644.949304 149.835262 
L 644.949304 149.835262 
" clip-path="url(#p21c726cc21)" style="fill: none; stroke: #d62728; stroke-width: 4; stroke-linecap: square"/>
   </g>
   <g id="patch_3">
    <path d="M 90 320.4 
L 90 43.2 
" style="fill: none; stroke: #000000; stroke-width: 0.8; stroke-linejoin: miter; stroke-linecap: square"/>
   </g>
   <g id="patch_4">
    <path d="M 648 320.4 
L 648 43.2 
" style="fill: none; stroke: #000000; stroke-width: 0.8; stroke-linejoin: miter; stroke-linecap: square"/>
   </g>
   <g id="patch_5">
    <path d="M 90 320.4 
L 648 320.4 
" style="fill: none; stroke: #000000; stroke-width: 0.8; stroke-linejoin: miter; stroke-linecap: square"/>
   </g>
   <g id="patch_6">
    <path d="M 90 43.2 
L 648 43.2 
" style="fill: none; stroke: #000000; stroke-width: 0.8; stroke-linejoin: miter; stroke-linecap: square"/>
   </g>
   <g id="legend_1">
    <g id="patch_7">
     <path d="M 682.92 163.42875 
L 760.5 163.42875 
Q 764.1 163.42875 764.1 159.82875 
L 764.1 55.8 
Q 764.1 52.2 760.5 52.2 
L 682.92 52.2 
Q 679.32 52.2 679.32 55.8 
L 679.32 159.82875 
Q 679.32 163.42875 682.92 163.42875 
z
" style="fill: #ffffff; opacity: 0.8; stroke: #cccccc; stroke-linejoin: miter"/>
    </g>
    <g id="line2d_16">
     <path d="M 686.52 66.777187 
L 704.52 66.777187 
L 721 66.777187 
" style="fill: none; stroke: #1f77b4; stroke-width: 4; stroke-linecap: square"/>
    </g>
    <g id="text_14">
     <!-- $p_1$ -->
     <g transform="translate(736.92 73.077187) scale(0.18 -0.18)">
      <defs>
       <path id="DejaVuSans-Oblique-70" d="M 3175 2156 
Q 3175 2616 2975 2859 
Q 2775 3103 2400 3103 
Q 2144 3103 1911 2972 
Q 1678 2841 1497 2591 
Q 1319 2344 1212 1994 
Q 1106 1644 1106 1300 
Q 1106 863 1306 627 
Q 1506 391 1875 391 
Q 2147 391 2380 519 
Q 2613 647 2778 891 
Q 2956 1147 3065 1494 
Q 3175 1841 3175 2156 
z
M 1394 2969 
Q 1625 3272 1939 3428 
Q 2253 3584 2638 3584 
Q 3175 3584 3472 3232 
Q 3769 2881 3769 2247 
Q 3769 1728 3584 1258 
Q 3400 788 3053 416 
Q 2822 169 2531 39 
Q 2241 -91 1919 -91 
Q 1547 -91 1294 64 
Q 1041 219 916 525 
L 556 -1331 
L -19 -1331 
L 922 3500 
L 1497 3500 
L 1394 2969 
z
" transform="scale(0.015625)"/>
      </defs>
      <use xlink:href="#DejaVuSans-Oblique-70"/>
      <use xlink:href="#DejaVuSans-31" transform="translate(63.476562 -16.40625) scale(0.7)"/>
     </g>
    </g>
    <g id="line2d_17">
     <path d="M 686.52 93.234375 
L 704.52 93.234375 
L 721 93.234375 
" style="fill: none; stroke: #ff7f0e; stroke-width: 4; stroke-linecap: square"/>
    </g>
    <g id="text_15">
     <!-- $p_2$ -->
     <g transform="translate(736.92 99.534375) scale(0.18 -0.18)">
      <use xlink:href="#DejaVuSans-Oblique-70"/>
      <use xlink:href="#DejaVuSans-32" transform="translate(63.476562 -16.40625) scale(0.7)"/>
     </g>
    </g>
    <g id="line2d_18">
     <path d="M 686.52 119.691562 
L 704.52 119.691562 
L 721 119.691562 
" style="fill: none; stroke: #2ca02c; stroke-width: 4; stroke-linecap: square"/>
    </g>
    <g id="text_16">
     <!-- $p_3$ -->
     <g transform="translate(736.92 125.991562) scale(0.18 -0.18)">
      <defs>
       <path id="DejaVuSans-33" d="M 2597 2516 
Q 3050 2419 3304 2112 
Q 3559 1806 3559 1356 
Q 3559 666 3084 287 
Q 2609 -91 1734 -91 
Q 1441 -91 1130 -33 
Q 819 25 488 141 
L 488 750 
Q 750 597 1062 519 
Q 1375 441 1716 441 
Q 2309 441 2620 675 
Q 2931 909 2931 1356 
Q 2931 1769 2642 2001 
Q 2353 2234 1838 2234 
L 1294 2234 
L 1294 2753 
L 1863 2753 
Q 2328 2753 2575 2939 
Q 2822 3125 2822 3475 
Q 2822 3834 2567 4026 
Q 2313 4219 1838 4219 
Q 1578 4219 1281 4162 
Q 984 4106 628 3988 
L 628 4550 
Q 988 4650 1302 4700 
Q 1616 4750 1894 4750 
Q 2613 4750 3031 4423 
Q 3450 4097 3450 3541 
Q 3450 3153 3228 2886 
Q 3006 2619 2597 2516 
z
" transform="scale(0.015625)"/>
      </defs>
      <use xlink:href="#DejaVuSans-Oblique-70"/>
      <use xlink:href="#DejaVuSans-33" transform="translate(63.476562 -16.40625) scale(0.7)"/>
     </g>
    </g>
    <g id="line2d_19">
     <path d="M 686.52 146.14875 
L 704.52 146.14875 
L 721 146.14875 
" style="fill: none; stroke: #d62728; stroke-width: 4; stroke-linecap: square"/>
    </g>
    <g id="text_17">
     <!-- $p_4$ -->
     <g transform="translate(736.92 152.44875) scale(0.18 -0.18)">
      <use xlink:href="#DejaVuSans-Oblique-70"/>
      <use xlink:href="#DejaVuSans-34" transform="translate(63.476562 -16.40625) scale(0.7)"/>
     </g>
    </g>
   </g>
  </g>
 </g>
 <defs>
  <clipPath id="p21c726cc21">
   <rect x="90" y="43.2" width="558" height="277.2"/>
  </clipPath>
 </defs>
</svg>
