<?xml version="1.0" encoding="utf-8" standalone="no"?>
<!DOCTYPE svg PUBLIC "-//W3C//DTD SVG 1.1//EN"
  "http://www.w3.org/Graphics/SVG/1.1/DTD/svg11.dtd">
<svg xmlns:xlink="http://www.w3.org/1999/xlink" width="720pt" height="360pt" viewBox="0 0 720 360" xmlns="http://www.w3.org/2000/svg" version="1.1">
 <metadata>
  <rdf:RDF xmlns:dc="http://purl.org/dc/elements/1.1/" xmlns:cc="http://creativecommons.org/ns#" xmlns:rdf="http://www.w3.org/1999/02/22-rdf-syntax-ns#">
   <cc:Work>
    <dc:type rdf:resource="http://purl.org/dc/dcmitype/StillImage"/>
    <dc:date>2025-03-20T16:34:28.545400</dc:date>
    <dc:format>image/svg+xml</dc:format>
    <dc:creator>
     <cc:Agent>
      <dc:title>Matplotlib v3.8.4, https://matplotlib.org/</dc:title>
     </cc:Agent>
    </dc:creator>
   </cc:Work>
  </rdf:RDF>
 </metadata>
 <defs>
  <style type="text/css">*{stroke-linejoin: round; stroke-linecap: butt}</style>
 </defs>
 <g id="figure_1">
  <g id="patch_1">
   <path d="M 0 360 
L 720 360 
L 720 0 
L 0 0 
z
" style="fill: #ffffff"/>
  </g>
  <g id="axes_1">
   <g id="patch_2">
    <path d="M 90 320.4 
L 648 320.4 
L 648 43.2 
L 90 43.2 
z
" style="fill: #ffffff"/>
   </g>
   <g id="matplotlib.axis_1">
    <g id="xtick_1">
     <g id="line2d_1">
      <defs>
       <path id="m1d9b282671" d="M 0 0 
L 0 3.5 
" style="stroke: #000000; stroke-width: 0.8"/>
      </defs>
      <g>
       <use xlink:href="#m1d9b282671" x="90.275964" y="320.4" style="stroke: #000000; stroke-width: 0.8"/>
      </g>
     </g>
     <g id="text_1">
      <!-- 0 -->
      <g transform="translate(84.549714 341.077187) scale(0.18 -0.18)">
       <defs>
        <path id="DejaVuSans-30" d="M 2034 4250 
Q 1547 4250 1301 3770 
Q 1056 3291 1056 2328 
Q 1056 1369 1301 889 
Q 1547 409 2034 409 
Q 2525 409 2770 889 
Q 3016 1369 3016 2328 
Q 3016 3291 2770 3770 
Q 2525 4250 2034 4250 
z
M 2034 4750 
Q 2819 4750 3233 4129 
Q 3647 3509 3647 2328 
Q 3647 1150 3233 529 
Q 2819 -91 2034 -91 
Q 1250 -91 836 529 
Q 422 1150 422 2328 
Q 422 3509 836 4129 
Q 1250 4750 2034 4750 
z
" transform="scale(0.015625)"/>
       </defs>
       <use xlink:href="#DejaVuSans-30"/>
      </g>
     </g>
    </g>
    <g id="xtick_2">
     <g id="line2d_2">
      <g>
       <use xlink:href="#m1d9b282671" x="228.25816" y="320.4" style="stroke: #000000; stroke-width: 0.8"/>
      </g>
     </g>
     <g id="text_2">
      <!-- 50 -->
      <g transform="translate(216.80566 341.077187) scale(0.18 -0.18)">
       <defs>
        <path id="DejaVuSans-35" d="M 691 4666 
L 3169 4666 
L 3169 4134 
L 1269 4134 
L 1269 2991 
Q 1406 3038 1543 3061 
Q 1681 3084 1819 3084 
Q 2600 3084 3056 2656 
Q 3513 2228 3513 1497 
Q 3513 744 3044 326 
Q 2575 -91 1722 -91 
Q 1428 -91 1123 -41 
Q 819 9 494 109 
L 494 744 
Q 775 591 1075 516 
Q 1375 441 1709 441 
Q 2250 441 2565 725 
Q 2881 1009 2881 1497 
Q 2881 1984 2565 2268 
Q 2250 2553 1709 2553 
Q 1456 2553 1204 2497 
Q 953 2441 691 2322 
L 691 4666 
z
" transform="scale(0.015625)"/>
       </defs>
       <use xlink:href="#DejaVuSans-35"/>
       <use xlink:href="#DejaVuSans-30" x="63.623047"/>
      </g>
     </g>
    </g>
    <g id="xtick_3">
     <g id="line2d_3">
      <g>
       <use xlink:href="#m1d9b282671" x="366.240356" y="320.4" style="stroke: #000000; stroke-width: 0.8"/>
      </g>
     </g>
     <g id="text_3">
      <!-- 100 -->
      <g transform="translate(349.061606 341.077187) scale(0.18 -0.18)">
       <defs>
        <path id="DejaVuSans-31" d="M 794 531 
L 1825 531 
L 1825 4091 
L 703 3866 
L 703 4441 
L 1819 4666 
L 2450 4666 
L 2450 531 
L 3481 531 
L 3481 0 
L 794 0 
L 794 531 
z
" transform="scale(0.015625)"/>
       </defs>
       <use xlink:href="#DejaVuSans-31"/>
       <use xlink:href="#DejaVuSans-30" x="63.623047"/>
       <use xlink:href="#DejaVuSans-30" x="127.246094"/>
      </g>
     </g>
    </g>
    <g id="xtick_4">
     <g id="line2d_4">
      <g>
       <use xlink:href="#m1d9b282671" x="504.222552" y="320.4" style="stroke: #000000; stroke-width: 0.8"/>
      </g>
     </g>
     <g id="text_4">
      <!-- 150 -->
      <g transform="translate(487.043802 341.077187) scale(0.18 -0.18)">
       <use xlink:href="#DejaVuSans-31"/>
       <use xlink:href="#DejaVuSans-35" x="63.623047"/>
       <use xlink:href="#DejaVuSans-30" x="127.246094"/>
      </g>
     </g>
    </g>
    <g id="xtick_5">
     <g id="line2d_5">
      <g>
       <use xlink:href="#m1d9b282671" x="642.204748" y="320.4" style="stroke: #000000; stroke-width: 0.8"/>
      </g>
     </g>
     <g id="text_5">
      <!-- 200 -->
      <g transform="translate(625.025998 341.077187) scale(0.18 -0.18)">
       <defs>
        <path id="DejaVuSans-32" d="M 1228 531 
L 3431 531 
L 3431 0 
L 469 0 
L 469 531 
Q 828 903 1448 1529 
Q 2069 2156 2228 2338 
Q 2531 2678 2651 2914 
Q 2772 3150 2772 3378 
Q 2772 3750 2511 3984 
Q 2250 4219 1831 4219 
Q 1534 4219 1204 4116 
Q 875 4013 500 3803 
L 500 4441 
Q 881 4594 1212 4672 
Q 1544 4750 1819 4750 
Q 2544 4750 2975 4387 
Q 3406 4025 3406 3419 
Q 3406 3131 3298 2873 
Q 3191 2616 2906 2266 
Q 2828 2175 2409 1742 
Q 1991 1309 1228 531 
z
" transform="scale(0.015625)"/>
       </defs>
       <use xlink:href="#DejaVuSans-32"/>
       <use xlink:href="#DejaVuSans-30" x="63.623047"/>
       <use xlink:href="#DejaVuSans-30" x="127.246094"/>
      </g>
     </g>
    </g>
    <g id="text_6">
     <!-- trials -->
     <g transform="translate(344.075 364.0175) scale(0.2 -0.2)">
      <defs>
       <path id="DejaVuSans-74" d="M 1172 4494 
L 1172 3500 
L 2356 3500 
L 2356 3053 
L 1172 3053 
L 1172 1153 
Q 1172 725 1289 603 
Q 1406 481 1766 481 
L 2356 481 
L 2356 0 
L 1766 0 
Q 1100 0 847 248 
Q 594 497 594 1153 
L 594 3053 
L 172 3053 
L 172 3500 
L 594 3500 
L 594 4494 
L 1172 4494 
z
" transform="scale(0.015625)"/>
       <path id="DejaVuSans-72" d="M 2631 2963 
Q 2534 3019 2420 3045 
Q 2306 3072 2169 3072 
Q 1681 3072 1420 2755 
Q 1159 2438 1159 1844 
L 1159 0 
L 581 0 
L 581 3500 
L 1159 3500 
L 1159 2956 
Q 1341 3275 1631 3429 
Q 1922 3584 2338 3584 
Q 2397 3584 2469 3576 
Q 2541 3569 2628 3553 
L 2631 2963 
z
" transform="scale(0.015625)"/>
       <path id="DejaVuSans-69" d="M 603 3500 
L 1178 3500 
L 1178 0 
L 603 0 
L 603 3500 
z
M 603 4863 
L 1178 4863 
L 1178 4134 
L 603 4134 
L 603 4863 
z
" transform="scale(0.015625)"/>
       <path id="DejaVuSans-61" d="M 2194 1759 
Q 1497 1759 1228 1600 
Q 959 1441 959 1056 
Q 959 750 1161 570 
Q 1363 391 1709 391 
Q 2188 391 2477 730 
Q 2766 1069 2766 1631 
L 2766 1759 
L 2194 1759 
z
M 3341 1997 
L 3341 0 
L 2766 0 
L 2766 531 
Q 2569 213 2275 61 
Q 1981 -91 1556 -91 
Q 1019 -91 701 211 
Q 384 513 384 1019 
Q 384 1609 779 1909 
Q 1175 2209 1959 2209 
L 2766 2209 
L 2766 2266 
Q 2766 2663 2505 2880 
Q 2244 3097 1772 3097 
Q 1472 3097 1187 3025 
Q 903 2953 641 2809 
L 641 3341 
Q 956 3463 1253 3523 
Q 1550 3584 1831 3584 
Q 2591 3584 2966 3190 
Q 3341 2797 3341 1997 
z
" transform="scale(0.015625)"/>
       <path id="DejaVuSans-6c" d="M 603 4863 
L 1178 4863 
L 1178 0 
L 603 0 
L 603 4863 
z
" transform="scale(0.015625)"/>
       <path id="DejaVuSans-73" d="M 2834 3397 
L 2834 2853 
Q 2591 2978 2328 3040 
Q 2066 3103 1784 3103 
Q 1356 3103 1142 2972 
Q 928 2841 928 2578 
Q 928 2378 1081 2264 
Q 1234 2150 1697 2047 
L 1894 2003 
Q 2506 1872 2764 1633 
Q 3022 1394 3022 966 
Q 3022 478 2636 193 
Q 2250 -91 1575 -91 
Q 1294 -91 989 -36 
Q 684 19 347 128 
L 347 722 
Q 666 556 975 473 
Q 1284 391 1588 391 
Q 1994 391 2212 530 
Q 2431 669 2431 922 
Q 2431 1156 2273 1281 
Q 2116 1406 1581 1522 
L 1381 1569 
Q 847 1681 609 1914 
Q 372 2147 372 2553 
Q 372 3047 722 3315 
Q 1072 3584 1716 3584 
Q 2034 3584 2315 3537 
Q 2597 3491 2834 3397 
z
" transform="scale(0.015625)"/>
      </defs>
      <use xlink:href="#DejaVuSans-74"/>
      <use xlink:href="#DejaVuSans-72" x="39.208984"/>
      <use xlink:href="#DejaVuSans-69" x="80.322266"/>
      <use xlink:href="#DejaVuSans-61" x="108.105469"/>
      <use xlink:href="#DejaVuSans-6c" x="169.384766"/>
      <use xlink:href="#DejaVuSans-73" x="197.167969"/>
     </g>
    </g>
   </g>
   <g id="matplotlib.axis_2">
    <g id="ytick_1">
     <g id="line2d_6">
      <defs>
       <path id="mba81492588" d="M 0 0 
L -3.5 0 
" style="stroke: #000000; stroke-width: 0.8"/>
      </defs>
      <g>
       <use xlink:href="#mba81492588" x="90" y="320.4" style="stroke: #000000; stroke-width: 0.8"/>
      </g>
     </g>
     <g id="text_7">
      <!-- 0.0 -->
      <g transform="translate(54.374375 327.238594) scale(0.18 -0.18)">
       <defs>
        <path id="DejaVuSans-2e" d="M 684 794 
L 1344 794 
L 1344 0 
L 684 0 
L 684 794 
z
" transform="scale(0.015625)"/>
       </defs>
       <use xlink:href="#DejaVuSans-30"/>
       <use xlink:href="#DejaVuSans-2e" x="63.623047"/>
       <use xlink:href="#DejaVuSans-30" x="95.410156"/>
      </g>
     </g>
    </g>
    <g id="ytick_2">
     <g id="line2d_7">
      <g>
       <use xlink:href="#mba81492588" x="90" y="264.96" style="stroke: #000000; stroke-width: 0.8"/>
      </g>
     </g>
     <g id="text_8">
      <!-- 0.2 -->
      <g transform="translate(54.374375 271.798594) scale(0.18 -0.18)">
       <use xlink:href="#DejaVuSans-30"/>
       <use xlink:href="#DejaVuSans-2e" x="63.623047"/>
       <use xlink:href="#DejaVuSans-32" x="95.410156"/>
      </g>
     </g>
    </g>
    <g id="ytick_3">
     <g id="line2d_8">
      <g>
       <use xlink:href="#mba81492588" x="90" y="209.52" style="stroke: #000000; stroke-width: 0.8"/>
      </g>
     </g>
     <g id="text_9">
      <!-- 0.4 -->
      <g transform="translate(54.374375 216.358594) scale(0.18 -0.18)">
       <defs>
        <path id="DejaVuSans-34" d="M 2419 4116 
L 825 1625 
L 2419 1625 
L 2419 4116 
z
M 2253 4666 
L 3047 4666 
L 3047 1625 
L 3713 1625 
L 3713 1100 
L 3047 1100 
L 3047 0 
L 2419 0 
L 2419 1100 
L 313 1100 
L 313 1709 
L 2253 4666 
z
" transform="scale(0.015625)"/>
       </defs>
       <use xlink:href="#DejaVuSans-30"/>
       <use xlink:href="#DejaVuSans-2e" x="63.623047"/>
       <use xlink:href="#DejaVuSans-34" x="95.410156"/>
      </g>
     </g>
    </g>
    <g id="ytick_4">
     <g id="line2d_9">
      <g>
       <use xlink:href="#mba81492588" x="90" y="154.08" style="stroke: #000000; stroke-width: 0.8"/>
      </g>
     </g>
     <g id="text_10">
      <!-- 0.6 -->
      <g transform="translate(54.374375 160.918594) scale(0.18 -0.18)">
       <defs>
        <path id="DejaVuSans-36" d="M 2113 2584 
Q 1688 2584 1439 2293 
Q 1191 2003 1191 1497 
Q 1191 994 1439 701 
Q 1688 409 2113 409 
Q 2538 409 2786 701 
Q 3034 994 3034 1497 
Q 3034 2003 2786 2293 
Q 2538 2584 2113 2584 
z
M 3366 4563 
L 3366 3988 
Q 3128 4100 2886 4159 
Q 2644 4219 2406 4219 
Q 1781 4219 1451 3797 
Q 1122 3375 1075 2522 
Q 1259 2794 1537 2939 
Q 1816 3084 2150 3084 
Q 2853 3084 3261 2657 
Q 3669 2231 3669 1497 
Q 3669 778 3244 343 
Q 2819 -91 2113 -91 
Q 1303 -91 875 529 
Q 447 1150 447 2328 
Q 447 3434 972 4092 
Q 1497 4750 2381 4750 
Q 2619 4750 2861 4703 
Q 3103 4656 3366 4563 
z
" transform="scale(0.015625)"/>
       </defs>
       <use xlink:href="#DejaVuSans-30"/>
       <use xlink:href="#DejaVuSans-2e" x="63.623047"/>
       <use xlink:href="#DejaVuSans-36" x="95.410156"/>
      </g>
     </g>
    </g>
    <g id="ytick_5">
     <g id="line2d_10">
      <g>
       <use xlink:href="#mba81492588" x="90" y="98.64" style="stroke: #000000; stroke-width: 0.8"/>
      </g>
     </g>
     <g id="text_11">
      <!-- 0.8 -->
      <g transform="translate(54.374375 105.478594) scale(0.18 -0.18)">
       <defs>
        <path id="DejaVuSans-38" d="M 2034 2216 
Q 1584 2216 1326 1975 
Q 1069 1734 1069 1313 
Q 1069 891 1326 650 
Q 1584 409 2034 409 
Q 2484 409 2743 651 
Q 3003 894 3003 1313 
Q 3003 1734 2745 1975 
Q 2488 2216 2034 2216 
z
M 1403 2484 
Q 997 2584 770 2862 
Q 544 3141 544 3541 
Q 544 4100 942 4425 
Q 1341 4750 2034 4750 
Q 2731 4750 3128 4425 
Q 3525 4100 3525 3541 
Q 3525 3141 3298 2862 
Q 3072 2584 2669 2484 
Q 3125 2378 3379 2068 
Q 3634 1759 3634 1313 
Q 3634 634 3220 271 
Q 2806 -91 2034 -91 
Q 1263 -91 848 271 
Q 434 634 434 1313 
Q 434 1759 690 2068 
Q 947 2378 1403 2484 
z
M 1172 3481 
Q 1172 3119 1398 2916 
Q 1625 2713 2034 2713 
Q 2441 2713 2670 2916 
Q 2900 3119 2900 3481 
Q 2900 3844 2670 4047 
Q 2441 4250 2034 4250 
Q 1625 4250 1398 4047 
Q 1172 3844 1172 3481 
z
" transform="scale(0.015625)"/>
       </defs>
       <use xlink:href="#DejaVuSans-30"/>
       <use xlink:href="#DejaVuSans-2e" x="63.623047"/>
       <use xlink:href="#DejaVuSans-38" x="95.410156"/>
      </g>
     </g>
    </g>
    <g id="ytick_6">
     <g id="line2d_11">
      <g>
       <use xlink:href="#mba81492588" x="90" y="43.2" style="stroke: #000000; stroke-width: 0.8"/>
      </g>
     </g>
     <g id="text_12">
      <!-- 1.0 -->
      <g transform="translate(54.374375 50.038594) scale(0.18 -0.18)">
       <use xlink:href="#DejaVuSans-31"/>
       <use xlink:href="#DejaVuSans-2e" x="63.623047"/>
       <use xlink:href="#DejaVuSans-30" x="95.410156"/>
      </g>
     </g>
    </g>
    <g id="text_13">
     <!-- reward probability -->
     <g transform="translate(46.215 272.959375) rotate(-90) scale(0.2 -0.2)">
      <defs>
       <path id="DejaVuSans-65" d="M 3597 1894 
L 3597 1613 
L 953 1613 
Q 991 1019 1311 708 
Q 1631 397 2203 397 
Q 2534 397 2845 478 
Q 3156 559 3463 722 
L 3463 178 
Q 3153 47 2828 -22 
Q 2503 -91 2169 -91 
Q 1331 -91 842 396 
Q 353 884 353 1716 
Q 353 2575 817 3079 
Q 1281 3584 2069 3584 
Q 2775 3584 3186 3129 
Q 3597 2675 3597 1894 
z
M 3022 2063 
Q 3016 2534 2758 2815 
Q 2500 3097 2075 3097 
Q 1594 3097 1305 2825 
Q 1016 2553 972 2059 
L 3022 2063 
z
" transform="scale(0.015625)"/>
       <path id="DejaVuSans-77" d="M 269 3500 
L 844 3500 
L 1563 769 
L 2278 3500 
L 2956 3500 
L 3675 769 
L 4391 3500 
L 4966 3500 
L 4050 0 
L 3372 0 
L 2619 2869 
L 1863 0 
L 1184 0 
L 269 3500 
z
" transform="scale(0.015625)"/>
       <path id="DejaVuSans-64" d="M 2906 2969 
L 2906 4863 
L 3481 4863 
L 3481 0 
L 2906 0 
L 2906 525 
Q 2725 213 2448 61 
Q 2172 -91 1784 -91 
Q 1150 -91 751 415 
Q 353 922 353 1747 
Q 353 2572 751 3078 
Q 1150 3584 1784 3584 
Q 2172 3584 2448 3432 
Q 2725 3281 2906 2969 
z
M 947 1747 
Q 947 1113 1208 752 
Q 1469 391 1925 391 
Q 2381 391 2643 752 
Q 2906 1113 2906 1747 
Q 2906 2381 2643 2742 
Q 2381 3103 1925 3103 
Q 1469 3103 1208 2742 
Q 947 2381 947 1747 
z
" transform="scale(0.015625)"/>
       <path id="DejaVuSans-20" transform="scale(0.015625)"/>
       <path id="DejaVuSans-70" d="M 1159 525 
L 1159 -1331 
L 581 -1331 
L 581 3500 
L 1159 3500 
L 1159 2969 
Q 1341 3281 1617 3432 
Q 1894 3584 2278 3584 
Q 2916 3584 3314 3078 
Q 3713 2572 3713 1747 
Q 3713 922 3314 415 
Q 2916 -91 2278 -91 
Q 1894 -91 1617 61 
Q 1341 213 1159 525 
z
M 3116 1747 
Q 3116 2381 2855 2742 
Q 2594 3103 2138 3103 
Q 1681 3103 1420 2742 
Q 1159 2381 1159 1747 
Q 1159 1113 1420 752 
Q 1681 391 2138 391 
Q 2594 391 2855 752 
Q 3116 1113 3116 1747 
z
" transform="scale(0.015625)"/>
       <path id="DejaVuSans-6f" d="M 1959 3097 
Q 1497 3097 1228 2736 
Q 959 2375 959 1747 
Q 959 1119 1226 758 
Q 1494 397 1959 397 
Q 2419 397 2687 759 
Q 2956 1122 2956 1747 
Q 2956 2369 2687 2733 
Q 2419 3097 1959 3097 
z
M 1959 3584 
Q 2709 3584 3137 3096 
Q 3566 2609 3566 1747 
Q 3566 888 3137 398 
Q 2709 -91 1959 -91 
Q 1206 -91 779 398 
Q 353 888 353 1747 
Q 353 2609 779 3096 
Q 1206 3584 1959 3584 
z
" transform="scale(0.015625)"/>
       <path id="DejaVuSans-62" d="M 3116 1747 
Q 3116 2381 2855 2742 
Q 2594 3103 2138 3103 
Q 1681 3103 1420 2742 
Q 1159 2381 1159 1747 
Q 1159 1113 1420 752 
Q 1681 391 2138 391 
Q 2594 391 2855 752 
Q 3116 1113 3116 1747 
z
M 1159 2969 
Q 1341 3281 1617 3432 
Q 1894 3584 2278 3584 
Q 2916 3584 3314 3078 
Q 3713 2572 3713 1747 
Q 3713 922 3314 415 
Q 2916 -91 2278 -91 
Q 1894 -91 1617 61 
Q 1341 213 1159 525 
L 1159 0 
L 581 0 
L 581 4863 
L 1159 4863 
L 1159 2969 
z
" transform="scale(0.015625)"/>
       <path id="DejaVuSans-79" d="M 2059 -325 
Q 1816 -950 1584 -1140 
Q 1353 -1331 966 -1331 
L 506 -1331 
L 506 -850 
L 844 -850 
Q 1081 -850 1212 -737 
Q 1344 -625 1503 -206 
L 1606 56 
L 191 3500 
L 800 3500 
L 1894 763 
L 2988 3500 
L 3597 3500 
L 2059 -325 
z
" transform="scale(0.015625)"/>
      </defs>
      <use xlink:href="#DejaVuSans-72"/>
      <use xlink:href="#DejaVuSans-65" x="38.863281"/>
      <use xlink:href="#DejaVuSans-77" x="100.386719"/>
      <use xlink:href="#DejaVuSans-61" x="182.173828"/>
      <use xlink:href="#DejaVuSans-72" x="243.453125"/>
      <use xlink:href="#DejaVuSans-64" x="282.816406"/>
      <use xlink:href="#DejaVuSans-20" x="346.292969"/>
      <use xlink:href="#DejaVuSans-70" x="378.080078"/>
      <use xlink:href="#DejaVuSans-72" x="441.556641"/>
      <use xlink:href="#DejaVuSans-6f" x="480.419922"/>
      <use xlink:href="#DejaVuSans-62" x="541.601562"/>
      <use xlink:href="#DejaVuSans-61" x="605.078125"/>
      <use xlink:href="#DejaVuSans-62" x="666.357422"/>
      <use xlink:href="#DejaVuSans-69" x="729.833984"/>
      <use xlink:href="#DejaVuSans-6c" x="757.617188"/>
      <use xlink:href="#DejaVuSans-69" x="785.400391"/>
      <use xlink:href="#DejaVuSans-74" x="813.183594"/>
      <use xlink:href="#DejaVuSans-79" x="852.392578"/>
     </g>
    </g>
   </g>
   <g id="line2d_12">
    <path d="M 90.275964 128.538573 
L 93.035608 120.802997 
L 95.795252 123.072615 
L 98.554896 117.708031 
L 101.31454 122.275826 
L 104.074184 131.512553 
L 106.833828 133.344762 
L 109.593472 131.156601 
L 112.353116 133.819894 
L 115.11276 131.48327 
L 117.872404 133.494645 
L 120.632047 134.441438 
L 123.391691 142.800051 
L 126.151335 135.601739 
L 128.910979 120.080079 
L 131.670623 122.802886 
L 134.430267 133.722164 
L 137.189911 130.639939 
L 139.949555 134.754198 
L 142.709199 140.248647 
L 145.468843 130.91612 
L 148.228487 135.481748 
L 150.988131 136.180226 
L 153.747774 146.373025 
L 156.507418 136.052694 
L 159.267062 130.519277 
L 162.026706 121.847915 
L 164.78635 122.385093 
L 167.545994 117.667868 
L 170.305638 124.649677 
L 173.065282 122.451625 
L 175.824926 122.313858 
L 178.58457 117.732716 
L 181.344214 122.074647 
L 184.103858 130.053722 
L 186.863501 130.559706 
L 189.623145 120.420991 
L 192.382789 114.356691 
L 195.142433 114.233968 
L 197.902077 115.994991 
L 200.661721 124.3571 
L 203.421365 138.217067 
L 206.181009 140.653709 
L 208.940653 133.967984 
L 211.700297 139.924761 
L 214.459941 124.757267 
L 217.219585 114.033361 
L 219.979228 117.611499 
L 222.738872 119.54284 
L 225.498516 125.19893 
L 228.25816 129.350796 
L 231.017804 123.3885 
L 236.537092 118.566541 
L 239.296736 126.131598 
L 242.05638 129.782678 
L 244.816024 134.975344 
L 247.575668 131.573349 
L 250.335312 127.663868 
L 253.094955 119.52978 
L 255.854599 121.635701 
L 258.614243 122.334949 
L 261.373887 118.680436 
L 264.133531 121.62505 
L 266.893175 125.705113 
L 269.652819 136.741873 
L 272.412463 137.755041 
L 275.172107 130.905754 
L 277.931751 130.198809 
L 280.691395 123.789645 
L 283.451039 125.690824 
L 286.210682 136.666101 
L 288.970326 145.338912 
L 291.72997 139.393724 
L 294.489614 145.267623 
L 297.249258 127.673769 
L 300.008902 138.575312 
L 302.768546 142.945156 
L 305.52819 139.373247 
L 308.287834 148.347486 
L 311.047478 140.937009 
L 313.807122 146.519397 
L 316.566766 141.086873 
L 319.326409 139.292912 
L 322.086053 137.110679 
L 327.605341 138.094344 
L 330.364985 137.355633 
L 333.124629 129.111692 
L 338.643917 143.242386 
L 341.403561 147.074411 
L 344.163205 149.475929 
L 346.922849 142.12046 
L 349.682493 136.38342 
L 352.442136 146.696757 
L 355.20178 143.303669 
L 357.961424 148.616484 
L 360.721068 155.939892 
L 363.480712 165.540154 
L 366.240356 161.581317 
L 369 160.103424 
L 371.759644 163.091312 
L 374.519288 159.532593 
L 380.038576 128.47947 
L 382.79822 134.531569 
L 385.557864 139.023967 
L 388.317507 133.526552 
L 391.077151 139.641271 
L 393.836795 141.100399 
L 396.596439 160.242274 
L 399.356083 153.958186 
L 402.115727 165.783039 
L 404.875371 165.137777 
L 407.635015 168.537862 
L 410.394659 174.239014 
L 413.154303 170.950797 
L 415.913947 149.001041 
L 418.673591 144.635723 
L 421.433234 137.394146 
L 424.192878 143.285507 
L 426.952522 143.445735 
L 429.712166 139.512101 
L 432.47181 129.299399 
L 435.231454 134.791 
L 437.991098 141.671702 
L 440.750742 129.347775 
L 443.510386 132.004024 
L 446.27003 128.260617 
L 449.029674 118.850116 
L 451.789318 117.601926 
L 454.548961 120.348913 
L 457.308605 122.458024 
L 460.068249 119.20747 
L 462.827893 123.053021 
L 465.587537 131.203438 
L 468.347181 134.561711 
L 471.106825 133.78604 
L 473.866469 128.08202 
L 476.626113 129.52118 
L 479.385757 124.714846 
L 482.145401 124.513038 
L 484.905045 125.720003 
L 487.664688 131.321706 
L 490.424332 131.408673 
L 493.183976 137.252602 
L 495.94362 130.410114 
L 498.703264 130.755499 
L 501.462908 123.04982 
L 504.222552 121.434819 
L 506.982196 119.971712 
L 509.74184 119.365957 
L 512.501484 120.4291 
L 518.020772 123.456801 
L 520.780415 131.213692 
L 523.540059 140.060312 
L 526.299703 125.354806 
L 529.059347 127.192179 
L 531.818991 127.877096 
L 534.578635 127.855889 
L 537.338279 128.539024 
L 540.097923 126.721609 
L 542.857567 125.989572 
L 545.617211 124.656943 
L 548.376855 126.725733 
L 551.136499 135.042033 
L 553.896142 133.537787 
L 556.655786 133.602794 
L 559.41543 137.868554 
L 562.175074 128.920021 
L 564.934718 129.369986 
L 567.694362 133.197993 
L 570.454006 127.965539 
L 573.21365 123.34373 
L 575.973294 113.268135 
L 578.732938 115.165401 
L 581.492582 114.183645 
L 584.252226 115.306916 
L 587.011869 126.762276 
L 589.771513 127.359071 
L 592.531157 135.987715 
L 595.290801 135.586745 
L 598.050445 142.300278 
L 600.810089 148.498874 
L 603.569733 152.269755 
L 606.329377 162.911447 
L 609.089021 156.653917 
L 611.848665 161.20851 
L 614.608309 160.21456 
L 617.367953 154.330173 
L 620.127596 149.250887 
L 622.88724 151.722128 
L 625.646884 147.30714 
L 628.406528 151.046528 
L 631.166172 148.790643 
L 633.925816 141.91577 
L 636.68546 155.926944 
L 639.445104 163.976054 
L 642.204748 167.635645 
L 644.964392 164.538686 
L 644.964392 164.538686 
" clip-path="url(#pc3b0b05999)" style="fill: none; stroke: #1f77b4; stroke-width: 4; stroke-linecap: square"/>
   </g>
   <g id="line2d_13">
    <path d="M 90.275964 234.004239 
L 93.035608 235.055222 
L 98.554896 232.108418 
L 101.31454 223.92762 
L 104.074184 226.465354 
L 106.833828 218.099684 
L 109.593472 224.052689 
L 112.353116 221.157923 
L 115.11276 226.201059 
L 117.872404 232.732633 
L 120.632047 222.841639 
L 123.391691 219.635931 
L 126.151335 225.523461 
L 128.910979 224.665136 
L 131.670623 225.671937 
L 134.430267 224.809163 
L 137.189911 227.807445 
L 139.949555 225.278005 
L 142.709199 220.844215 
L 145.468843 231.342525 
L 148.228487 226.26563 
L 150.988131 218.346339 
L 153.747774 220.339857 
L 156.507418 215.54742 
L 159.267062 225.099003 
L 162.026706 221.765472 
L 164.78635 220.478797 
L 167.545994 221.720102 
L 170.305638 228.936344 
L 173.065282 224.923892 
L 175.824926 219.26058 
L 178.58457 217.462254 
L 181.344214 219.392584 
L 184.103858 230.348442 
L 186.863501 235.856239 
L 189.623145 229.761737 
L 192.382789 219.781751 
L 195.142433 215.23691 
L 197.902077 202.432524 
L 203.421365 203.890404 
L 206.181009 201.679898 
L 208.940653 199.617956 
L 214.459941 194.656681 
L 217.219585 190.153153 
L 219.979228 189.66556 
L 222.738872 195.163546 
L 225.498516 194.11811 
L 228.25816 202.349135 
L 231.017804 204.420071 
L 233.777448 210.419254 
L 236.537092 212.734659 
L 239.296736 205.806197 
L 242.05638 196.863385 
L 244.816024 204.931066 
L 247.575668 209.184684 
L 253.094955 228.666264 
L 255.854599 224.595343 
L 258.614243 217.303208 
L 261.373887 219.538916 
L 264.133531 213.365199 
L 266.893175 211.53921 
L 269.652819 203.428305 
L 272.412463 219.948366 
L 275.172107 228.372964 
L 277.931751 229.01064 
L 280.691395 232.071949 
L 286.210682 250.921179 
L 288.970326 245.715162 
L 291.72997 245.668897 
L 294.489614 246.449944 
L 297.249258 238.580508 
L 300.008902 240.335565 
L 302.768546 234.345893 
L 305.52819 235.649721 
L 308.287834 243.511423 
L 311.047478 236.148635 
L 313.807122 244.868991 
L 316.566766 248.86432 
L 319.326409 243.858726 
L 322.086053 246.403419 
L 324.845697 239.295338 
L 327.605341 238.914862 
L 330.364985 242.103208 
L 333.124629 251.011889 
L 335.884273 248.028349 
L 338.643917 242.691808 
L 341.403561 232.807463 
L 344.163205 227.511531 
L 346.922849 235.823991 
L 349.682493 250.645332 
L 352.442136 242.022326 
L 355.20178 237.458208 
L 357.961424 235.05931 
L 360.721068 230.572557 
L 363.480712 233.750945 
L 366.240356 242.181346 
L 369 232.25567 
L 371.759644 230.172468 
L 374.519288 233.973068 
L 377.278932 234.558893 
L 380.038576 232.072526 
L 382.79822 215.708433 
L 385.557864 210.896589 
L 388.317507 206.820697 
L 391.077151 210.046457 
L 393.836795 207.068887 
L 396.596439 201.00974 
L 399.356083 192.063376 
L 402.115727 193.756449 
L 404.875371 202.430838 
L 407.635015 204.411057 
L 410.394659 213.530915 
L 413.154303 209.962728 
L 415.913947 217.753884 
L 418.673591 222.421848 
L 421.433234 217.483096 
L 424.192878 220.611251 
L 426.952522 209.994815 
L 429.712166 212.617691 
L 432.47181 220.028322 
L 435.231454 229.027809 
L 440.750742 215.414572 
L 443.510386 219.590189 
L 446.27003 214.940386 
L 449.029674 212.835594 
L 451.789318 213.092107 
L 454.548961 210.32167 
L 457.308605 199.34833 
L 460.068249 183.599346 
L 462.827893 180.311454 
L 465.587537 184.350942 
L 468.347181 169.965667 
L 471.106825 187.696515 
L 473.866469 186.725533 
L 476.626113 189.667723 
L 479.385757 195.730643 
L 482.145401 195.935042 
L 484.905045 191.598235 
L 487.664688 190.318695 
L 490.424332 202.225472 
L 493.183976 213.282818 
L 495.94362 207.255512 
L 498.703264 200.168654 
L 501.462908 198.030488 
L 504.222552 201.619302 
L 506.982196 201.68969 
L 509.74184 205.940776 
L 512.501484 209.209108 
L 515.261128 215.452464 
L 518.020772 204.75151 
L 520.780415 199.411106 
L 523.540059 193.067255 
L 526.299703 198.313589 
L 529.059347 193.786061 
L 531.818991 185.939105 
L 534.578635 185.303538 
L 537.338279 194.708923 
L 540.097923 195.217444 
L 542.857567 194.466634 
L 545.617211 182.245237 
L 548.376855 177.422148 
L 551.136499 184.304312 
L 553.896142 182.507723 
L 556.655786 182.682831 
L 559.41543 176.467234 
L 562.175074 160.944794 
L 564.934718 154.911887 
L 567.694362 161.778325 
L 570.454006 155.119199 
L 573.21365 150.308195 
L 575.973294 146.528135 
L 578.732938 151.151417 
L 581.492582 156.071737 
L 584.252226 169.946643 
L 587.011869 159.204922 
L 589.771513 157.327359 
L 592.531157 157.237781 
L 595.290801 159.966176 
L 598.050445 161.807982 
L 600.810089 164.583439 
L 603.569733 174.302011 
L 606.329377 181.776402 
L 609.089021 180.964576 
L 611.848665 176.381378 
L 614.608309 174.365818 
L 617.367953 169.759456 
L 620.127596 170.495808 
L 622.88724 168.497497 
L 625.646884 166.687097 
L 628.406528 163.434199 
L 631.166172 150.800002 
L 633.925816 139.110512 
L 636.68546 147.980712 
L 639.445104 144.030609 
L 642.204748 142.423002 
L 644.964392 141.060187 
L 644.964392 141.060187 
" clip-path="url(#pc3b0b05999)" style="fill: none; stroke: #ff7f0e; stroke-width: 4; stroke-linecap: square"/>
   </g>
   <g id="line2d_14">
    <path d="M 90.275964 195.180779 
L 93.035608 213.4213 
L 95.795252 212.241015 
L 98.554896 202.255307 
L 101.31454 202.583253 
L 104.074184 209.466963 
L 106.833828 215.78024 
L 109.593472 212.66859 
L 112.353116 215.632461 
L 115.11276 229.155434 
L 117.872404 230.256328 
L 120.632047 232.064048 
L 123.391691 234.069043 
L 126.151335 235.429632 
L 128.910979 236.323176 
L 134.430267 235.021772 
L 137.189911 229.632516 
L 139.949555 230.104532 
L 142.709199 237.811329 
L 145.468843 239.567577 
L 148.228487 232.560766 
L 150.988131 245.032242 
L 153.747774 250.535564 
L 156.507418 248.916578 
L 159.267062 245.568314 
L 162.026706 244.182915 
L 164.78635 245.941573 
L 167.545994 249.146345 
L 170.305638 244.052718 
L 173.065282 241.511263 
L 175.824926 246.807926 
L 178.58457 239.382627 
L 184.103858 240.596819 
L 186.863501 238.932785 
L 192.382789 248.905792 
L 195.142433 242.344195 
L 197.902077 238.75226 
L 200.661721 239.860737 
L 203.421365 243.791719 
L 206.181009 243.424676 
L 208.940653 250.830439 
L 211.700297 249.214255 
L 214.459941 248.672664 
L 217.219585 249.196827 
L 219.979228 242.285975 
L 222.738872 239.071769 
L 225.498516 248.610727 
L 228.25816 243.42656 
L 231.017804 239.174756 
L 233.777448 237.254976 
L 236.537092 227.717789 
L 239.296736 223.997103 
L 242.05638 218.992961 
L 244.816024 214.747233 
L 247.575668 223.31908 
L 250.335312 224.303379 
L 253.094955 234.587632 
L 255.854599 228.614801 
L 258.614243 233.410238 
L 261.373887 229.806497 
L 264.133531 224.501341 
L 266.893175 238.639465 
L 269.652819 241.752036 
L 272.412463 229.243163 
L 275.172107 231.801158 
L 277.931751 235.178874 
L 280.691395 229.200457 
L 283.451039 226.235437 
L 286.210682 233.411133 
L 288.970326 228.799214 
L 291.72997 233.524318 
L 294.489614 230.871934 
L 297.249258 224.276506 
L 300.008902 229.396433 
L 302.768546 226.64924 
L 305.52819 232.54056 
L 308.287834 223.836964 
L 311.047478 218.575334 
L 313.807122 214.290753 
L 316.566766 217.756952 
L 319.326409 220.387685 
L 322.086053 225.07609 
L 324.845697 230.703309 
L 327.605341 225.305422 
L 330.364985 228.084163 
L 333.124629 244.517612 
L 335.884273 230.961187 
L 338.643917 231.658659 
L 341.403561 249.251617 
L 344.163205 245.605428 
L 346.922849 246.173605 
L 349.682493 238.366262 
L 352.442136 242.51673 
L 355.20178 236.56224 
L 357.961424 243.701787 
L 360.721068 247.283419 
L 363.480712 246.44097 
L 366.240356 241.081099 
L 369 248.920044 
L 371.759644 249.103159 
L 374.519288 247.920767 
L 377.278932 248.000996 
L 380.038576 237.149381 
L 382.79822 240.580132 
L 385.557864 243.006795 
L 388.317507 241.619313 
L 391.077151 235.426067 
L 393.836795 236.651345 
L 396.596439 235.737203 
L 399.356083 223.974629 
L 402.115727 232.656108 
L 404.875371 229.262447 
L 407.635015 233.742719 
L 410.394659 244.502025 
L 413.154303 248.673268 
L 415.913947 244.079502 
L 418.673591 237.866663 
L 421.433234 235.208787 
L 424.192878 234.371129 
L 426.952522 247.702961 
L 429.712166 246.443192 
L 432.47181 249.761947 
L 435.231454 247.433854 
L 437.991098 243.898909 
L 440.750742 243.1221 
L 443.510386 246.493149 
L 446.27003 250.183037 
L 449.029674 247.339174 
L 451.789318 250.846501 
L 454.548961 247.867823 
L 457.308605 250.323186 
L 460.068249 238.776311 
L 462.827893 238.986347 
L 465.587537 229.632368 
L 468.347181 228.001046 
L 471.106825 230.951292 
L 473.866469 234.473855 
L 476.626113 242.519537 
L 479.385757 234.637697 
L 482.145401 238.666733 
L 484.905045 239.185172 
L 487.664688 225.454682 
L 490.424332 228.579912 
L 493.183976 225.300425 
L 495.94362 234.15672 
L 498.703264 235.049262 
L 501.462908 227.962711 
L 504.222552 237.79193 
L 506.982196 235.405208 
L 509.74184 227.693436 
L 512.501484 229.341761 
L 515.261128 232.85306 
L 518.020772 220.637776 
L 520.780415 209.496189 
L 523.540059 210.710333 
L 526.299703 223.893369 
L 529.059347 230.185779 
L 531.818991 230.533896 
L 534.578635 229.345653 
L 537.338279 230.101697 
L 540.097923 231.055591 
L 542.857567 240.156845 
L 545.617211 238.811502 
L 548.376855 241.376106 
L 551.136499 245.729764 
L 553.896142 237.993394 
L 556.655786 236.804369 
L 559.41543 227.690831 
L 562.175074 231.473616 
L 564.934718 227.7949 
L 567.694362 216.108147 
L 570.454006 214.950185 
L 573.21365 220.135199 
L 575.973294 211.232351 
L 578.732938 196.347335 
L 581.492582 198.927987 
L 584.252226 193.521323 
L 587.011869 193.155772 
L 589.771513 198.400693 
L 592.531157 195.179321 
L 595.290801 200.210724 
L 598.050445 197.855471 
L 600.810089 185.259554 
L 603.569733 182.24614 
L 609.089021 192.677524 
L 611.848665 190.384102 
L 614.608309 201.340008 
L 617.367953 207.118827 
L 620.127596 203.280913 
L 622.88724 200.750119 
L 625.646884 200.592876 
L 628.406528 204.320038 
L 631.166172 209.70149 
L 633.925816 221.010259 
L 636.68546 234.721765 
L 639.445104 231.752229 
L 642.204748 240.013367 
L 644.964392 234.950018 
L 644.964392 234.950018 
" clip-path="url(#pc3b0b05999)" style="fill: none; stroke: #2ca02c; stroke-width: 4; stroke-linecap: square"/>
   </g>
   <g id="line2d_15">
    <path d="M 90.275964 128.578515 
L 93.035608 127.482739 
L 95.795252 119.468386 
L 98.554896 118.506678 
L 101.31454 116.384289 
L 104.074184 118.047021 
L 106.833828 113.584923 
L 109.593472 114.351461 
L 112.353116 113.042971 
L 115.11276 112.570388 
L 117.872404 112.903402 
L 120.632047 117.544478 
L 123.391691 113.717671 
L 126.151335 114.194149 
L 128.910979 117.268564 
L 131.670623 113.137961 
L 134.430267 113.504078 
L 137.189911 123.752906 
L 139.949555 124.880077 
L 142.709199 124.625287 
L 145.468843 122.820889 
L 148.228487 125.516286 
L 150.988131 122.697318 
L 153.747774 132.978246 
L 156.507418 124.824117 
L 159.267062 120.27289 
L 162.026706 114.643285 
L 164.78635 116.322048 
L 167.545994 127.653666 
L 170.305638 131.529998 
L 173.065282 136.882623 
L 175.824926 130.685555 
L 178.58457 146.437141 
L 181.344214 150.167035 
L 184.103858 147.560108 
L 186.863501 143.406505 
L 189.623145 146.11548 
L 192.382789 155.946118 
L 195.142433 158.855739 
L 197.902077 157.863072 
L 200.661721 156.101462 
L 203.421365 141.632652 
L 206.181009 141.445346 
L 208.940653 134.072399 
L 211.700297 118.085274 
L 214.459941 116.847131 
L 217.219585 122.022311 
L 219.979228 121.929726 
L 222.738872 124.952575 
L 225.498516 125.435734 
L 228.25816 132.084018 
L 231.017804 133.154143 
L 233.777448 133.940629 
L 236.537092 120.627585 
L 239.296736 113.362847 
L 242.05638 112.959742 
L 244.816024 120.276872 
L 247.575668 117.967365 
L 250.335312 119.841499 
L 253.094955 114.525169 
L 255.854599 120.769861 
L 258.614243 117.593685 
L 261.373887 118.525444 
L 264.133531 125.514891 
L 266.893175 126.949088 
L 269.652819 139.533921 
L 272.412463 131.251193 
L 275.172107 131.493269 
L 277.931751 133.714668 
L 280.691395 137.816396 
L 283.451039 140.208457 
L 286.210682 136.18372 
L 288.970326 140.838466 
L 291.72997 133.429841 
L 294.489614 133.931394 
L 297.249258 126.551472 
L 300.008902 129.74743 
L 302.768546 130.630388 
L 305.52819 132.543159 
L 308.287834 119.484046 
L 311.047478 123.479718 
L 313.807122 134.23319 
L 316.566766 124.573656 
L 319.326409 123.204549 
L 322.086053 116.880153 
L 324.845697 116.501776 
L 327.605341 129.181452 
L 330.364985 133.878412 
L 333.124629 131.753028 
L 335.884273 133.70218 
L 338.643917 138.523532 
L 341.403561 125.029722 
L 344.163205 114.030541 
L 346.922849 118.384897 
L 349.682493 113.601669 
L 352.442136 113.921853 
L 355.20178 125.375715 
L 357.961424 126.69052 
L 360.721068 125.866551 
L 363.480712 127.179635 
L 366.240356 114.273227 
L 369 122.009349 
L 371.759644 124.117124 
L 374.519288 130.848475 
L 377.278932 123.988519 
L 380.038576 116.60675 
L 382.79822 129.950596 
L 385.557864 134.784245 
L 388.317507 136.309719 
L 391.077151 132.496767 
L 393.836795 129.549419 
L 396.596439 117.79443 
L 399.356083 121.041975 
L 402.115727 128.794239 
L 404.875371 122.543995 
L 407.635015 122.794094 
L 413.154303 130.683953 
L 415.913947 139.233836 
L 418.673591 144.67766 
L 421.433234 138.037756 
L 424.192878 128.110387 
L 426.952522 123.44154 
L 429.712166 125.320981 
L 432.47181 126.443983 
L 435.231454 123.392408 
L 437.991098 119.715679 
L 440.750742 116.269821 
L 443.510386 121.208445 
L 446.27003 118.686908 
L 449.029674 119.635136 
L 451.789318 117.551794 
L 454.548961 127.83759 
L 457.308605 124.472683 
L 460.068249 129.302532 
L 462.827893 136.978807 
L 465.587537 130.921064 
L 468.347181 130.616387 
L 471.106825 117.168638 
L 473.866469 119.189277 
L 476.626113 123.419921 
L 479.385757 134.250682 
L 482.145401 129.86939 
L 484.905045 127.313672 
L 487.664688 125.184161 
L 490.424332 120.879136 
L 493.183976 121.073521 
L 495.94362 131.351877 
L 498.703264 126.409583 
L 501.462908 130.884434 
L 504.222552 133.419104 
L 506.982196 146.829642 
L 509.74184 146.435441 
L 512.501484 152.232704 
L 515.261128 145.269569 
L 518.020772 149.492061 
L 520.780415 149.605803 
L 523.540059 158.117113 
L 526.299703 176.686337 
L 529.059347 181.062673 
L 531.818991 178.794493 
L 534.578635 172.263078 
L 537.338279 186.285 
L 540.097923 194.69779 
L 542.857567 196.911334 
L 545.617211 199.940603 
L 548.376855 200.18204 
L 551.136499 199.697601 
L 553.896142 199.415301 
L 556.655786 199.762456 
L 559.41543 186.714059 
L 562.175074 202.987608 
L 564.934718 212.87072 
L 567.694362 196.111347 
L 570.454006 210.380101 
L 573.21365 212.555754 
L 575.973294 214.106812 
L 578.732938 209.096759 
L 581.492582 218.640684 
L 584.252226 222.874949 
L 587.011869 231.816299 
L 589.771513 225.472563 
L 592.531157 222.522471 
L 595.290801 211.764005 
L 598.050445 212.649137 
L 600.810089 214.720036 
L 603.569733 210.803221 
L 606.329377 222.312015 
L 609.089021 227.879532 
L 611.848665 230.105974 
L 614.608309 235.602809 
L 617.367953 234.412602 
L 620.127596 241.849774 
L 622.88724 238.873333 
L 625.646884 246.262259 
L 628.406528 242.862926 
L 631.166172 246.384705 
L 633.925816 243.563138 
L 636.68546 247.532794 
L 639.445104 242.415914 
L 642.204748 245.208939 
L 644.964392 250.743065 
L 644.964392 250.743065 
" clip-path="url(#pc3b0b05999)" style="fill: none; stroke: #d62728; stroke-width: 4; stroke-linecap: square"/>
   </g>
   <g id="patch_3">
    <path d="M 90 320.4 
L 90 43.2 
" style="fill: none; stroke: #000000; stroke-width: 0.8; stroke-linejoin: miter; stroke-linecap: square"/>
   </g>
   <g id="patch_4">
    <path d="M 648 320.4 
L 648 43.2 
" style="fill: none; stroke: #000000; stroke-width: 0.8; stroke-linejoin: miter; stroke-linecap: square"/>
   </g>
   <g id="patch_5">
    <path d="M 90 320.4 
L 648 320.4 
" style="fill: none; stroke: #000000; stroke-width: 0.8; stroke-linejoin: miter; stroke-linecap: square"/>
   </g>
   <g id="patch_6">
    <path d="M 90 43.2 
L 648 43.2 
" style="fill: none; stroke: #000000; stroke-width: 0.8; stroke-linejoin: miter; stroke-linecap: square"/>
   </g>
   <g id="legend_1">
    <g id="patch_7">
     <path d="M 682.92 163.42875 
L 760.5 163.42875 
Q 764.1 163.42875 764.1 159.82875 
L 764.1 55.8 
Q 764.1 52.2 760.5 52.2 
L 682.92 52.2 
Q 679.32 52.2 679.32 55.8 
L 679.32 159.82875 
Q 679.32 163.42875 682.92 163.42875 
z
" style="fill: #ffffff; opacity: 0.8; stroke: #cccccc; stroke-linejoin: miter"/>
    </g>
    <g id="line2d_16">
     <path d="M 686.52 66.777187 
L 704.52 66.777187 
L 721 66.777187 
" style="fill: none; stroke: #1f77b4; stroke-width: 4; stroke-linecap: square"/>
    </g>
    <g id="text_14">
     <!-- $p_1$ -->
     <g transform="translate(736.92 73.077187) scale(0.18 -0.18)">
      <defs>
       <path id="DejaVuSans-Oblique-70" d="M 3175 2156 
Q 3175 2616 2975 2859 
Q 2775 3103 2400 3103 
Q 2144 3103 1911 2972 
Q 1678 2841 1497 2591 
Q 1319 2344 1212 1994 
Q 1106 1644 1106 1300 
Q 1106 863 1306 627 
Q 1506 391 1875 391 
Q 2147 391 2380 519 
Q 2613 647 2778 891 
Q 2956 1147 3065 1494 
Q 3175 1841 3175 2156 
z
M 1394 2969 
Q 1625 3272 1939 3428 
Q 2253 3584 2638 3584 
Q 3175 3584 3472 3232 
Q 3769 2881 3769 2247 
Q 3769 1728 3584 1258 
Q 3400 788 3053 416 
Q 2822 169 2531 39 
Q 2241 -91 1919 -91 
Q 1547 -91 1294 64 
Q 1041 219 916 525 
L 556 -1331 
L -19 -1331 
L 922 3500 
L 1497 3500 
L 1394 2969 
z
" transform="scale(0.015625)"/>
      </defs>
      <use xlink:href="#DejaVuSans-Oblique-70"/>
      <use xlink:href="#DejaVuSans-31" transform="translate(63.476562 -16.40625) scale(0.7)"/>
     </g>
    </g>
    <g id="line2d_17">
     <path d="M 686.52 93.234375 
L 704.52 93.234375 
L 721 93.234375 
" style="fill: none; stroke: #ff7f0e; stroke-width: 4; stroke-linecap: square"/>
    </g>
    <g id="text_15">
     <!-- $p_2$ -->
     <g transform="translate(736.92 99.534375) scale(0.18 -0.18)">
      <use xlink:href="#DejaVuSans-Oblique-70"/>
      <use xlink:href="#DejaVuSans-32" transform="translate(63.476562 -16.40625) scale(0.7)"/>
     </g>
    </g>
    <g id="line2d_18">
     <path d="M 686.52 119.691562 
L 704.52 119.691562 
L 721 119.691562 
" style="fill: none; stroke: #2ca02c; stroke-width: 4; stroke-linecap: square"/>
    </g>
    <g id="text_16">
     <!-- $p_3$ -->
     <g transform="translate(736.92 125.991562) scale(0.18 -0.18)">
      <defs>
       <path id="DejaVuSans-33" d="M 2597 2516 
Q 3050 2419 3304 2112 
Q 3559 1806 3559 1356 
Q 3559 666 3084 287 
Q 2609 -91 1734 -91 
Q 1441 -91 1130 -33 
Q 819 25 488 141 
L 488 750 
Q 750 597 1062 519 
Q 1375 441 1716 441 
Q 2309 441 2620 675 
Q 2931 909 2931 1356 
Q 2931 1769 2642 2001 
Q 2353 2234 1838 2234 
L 1294 2234 
L 1294 2753 
L 1863 2753 
Q 2328 2753 2575 2939 
Q 2822 3125 2822 3475 
Q 2822 3834 2567 4026 
Q 2313 4219 1838 4219 
Q 1578 4219 1281 4162 
Q 984 4106 628 3988 
L 628 4550 
Q 988 4650 1302 4700 
Q 1616 4750 1894 4750 
Q 2613 4750 3031 4423 
Q 3450 4097 3450 3541 
Q 3450 3153 3228 2886 
Q 3006 2619 2597 2516 
z
" transform="scale(0.015625)"/>
      </defs>
      <use xlink:href="#DejaVuSans-Oblique-70"/>
      <use xlink:href="#DejaVuSans-33" transform="translate(63.476562 -16.40625) scale(0.7)"/>
     </g>
    </g>
    <g id="line2d_19">
     <path d="M 686.52 146.14875 
L 704.52 146.14875 
L 721 146.14875 
" style="fill: none; stroke: #d62728; stroke-width: 4; stroke-linecap: square"/>
    </g>
    <g id="text_17">
     <!-- $p_4$ -->
     <g transform="translate(736.92 152.44875) scale(0.18 -0.18)">
      <use xlink:href="#DejaVuSans-Oblique-70"/>
      <use xlink:href="#DejaVuSans-34" transform="translate(63.476562 -16.40625) scale(0.7)"/>
     </g>
    </g>
   </g>
  </g>
 </g>
 <defs>
  <clipPath id="pc3b0b05999">
   <rect x="90" y="43.2" width="558" height="277.2"/>
  </clipPath>
 </defs>
</svg>
