<?xml version="1.0" encoding="utf-8" standalone="no"?>
<!DOCTYPE svg PUBLIC "-//W3C//DTD SVG 1.1//EN"
  "http://www.w3.org/Graphics/SVG/1.1/DTD/svg11.dtd">
<svg xmlns:xlink="http://www.w3.org/1999/xlink" width="720pt" height="360pt" viewBox="0 0 720 360" xmlns="http://www.w3.org/2000/svg" version="1.1">
 <metadata>
  <rdf:RDF xmlns:dc="http://purl.org/dc/elements/1.1/" xmlns:cc="http://creativecommons.org/ns#" xmlns:rdf="http://www.w3.org/1999/02/22-rdf-syntax-ns#">
   <cc:Work>
    <dc:type rdf:resource="http://purl.org/dc/dcmitype/StillImage"/>
    <dc:date>2025-03-20T13:38:28.975351</dc:date>
    <dc:format>image/svg+xml</dc:format>
    <dc:creator>
     <cc:Agent>
      <dc:title>Matplotlib v3.8.4, https://matplotlib.org/</dc:title>
     </cc:Agent>
    </dc:creator>
   </cc:Work>
  </rdf:RDF>
 </metadata>
 <defs>
  <style type="text/css">*{stroke-linejoin: round; stroke-linecap: butt}</style>
 </defs>
 <g id="figure_1">
  <g id="patch_1">
   <path d="M 0 360 
L 720 360 
L 720 0 
L 0 0 
z
" style="fill: #ffffff"/>
  </g>
  <g id="axes_1">
   <g id="patch_2">
    <path d="M 90 320.4 
L 648 320.4 
L 648 43.2 
L 90 43.2 
z
" style="fill: #ffffff"/>
   </g>
   <g id="matplotlib.axis_1">
    <g id="xtick_1">
     <g id="line2d_1">
      <defs>
       <path id="m3a88f62bdb" d="M 0 0 
L 0 3.5 
" style="stroke: #000000; stroke-width: 0.8"/>
      </defs>
      <g>
       <use xlink:href="#m3a88f62bdb" x="90.277336" y="320.4" style="stroke: #000000; stroke-width: 0.8"/>
      </g>
     </g>
     <g id="text_1">
      <!-- 0 -->
      <g transform="translate(84.551086 341.077187) scale(0.18 -0.18)">
       <defs>
        <path id="DejaVuSans-30" d="M 2034 4250 
Q 1547 4250 1301 3770 
Q 1056 3291 1056 2328 
Q 1056 1369 1301 889 
Q 1547 409 2034 409 
Q 2525 409 2770 889 
Q 3016 1369 3016 2328 
Q 3016 3291 2770 3770 
Q 2525 4250 2034 4250 
z
M 2034 4750 
Q 2819 4750 3233 4129 
Q 3647 3509 3647 2328 
Q 3647 1150 3233 529 
Q 2819 -91 2034 -91 
Q 1250 -91 836 529 
Q 422 1150 422 2328 
Q 422 3509 836 4129 
Q 1250 4750 2034 4750 
z
" transform="scale(0.015625)"/>
       </defs>
       <use xlink:href="#DejaVuSans-30"/>
      </g>
     </g>
    </g>
    <g id="xtick_2">
     <g id="line2d_2">
      <g>
       <use xlink:href="#m3a88f62bdb" x="228.945328" y="320.4" style="stroke: #000000; stroke-width: 0.8"/>
      </g>
     </g>
     <g id="text_2">
      <!-- 50 -->
      <g transform="translate(217.492828 341.077187) scale(0.18 -0.18)">
       <defs>
        <path id="DejaVuSans-35" d="M 691 4666 
L 3169 4666 
L 3169 4134 
L 1269 4134 
L 1269 2991 
Q 1406 3038 1543 3061 
Q 1681 3084 1819 3084 
Q 2600 3084 3056 2656 
Q 3513 2228 3513 1497 
Q 3513 744 3044 326 
Q 2575 -91 1722 -91 
Q 1428 -91 1123 -41 
Q 819 9 494 109 
L 494 744 
Q 775 591 1075 516 
Q 1375 441 1709 441 
Q 2250 441 2565 725 
Q 2881 1009 2881 1497 
Q 2881 1984 2565 2268 
Q 2250 2553 1709 2553 
Q 1456 2553 1204 2497 
Q 953 2441 691 2322 
L 691 4666 
z
" transform="scale(0.015625)"/>
       </defs>
       <use xlink:href="#DejaVuSans-35"/>
       <use xlink:href="#DejaVuSans-30" x="63.623047"/>
      </g>
     </g>
    </g>
    <g id="xtick_3">
     <g id="line2d_3">
      <g>
       <use xlink:href="#m3a88f62bdb" x="367.61332" y="320.4" style="stroke: #000000; stroke-width: 0.8"/>
      </g>
     </g>
     <g id="text_3">
      <!-- 100 -->
      <g transform="translate(350.43457 341.077187) scale(0.18 -0.18)">
       <defs>
        <path id="DejaVuSans-31" d="M 794 531 
L 1825 531 
L 1825 4091 
L 703 3866 
L 703 4441 
L 1819 4666 
L 2450 4666 
L 2450 531 
L 3481 531 
L 3481 0 
L 794 0 
L 794 531 
z
" transform="scale(0.015625)"/>
       </defs>
       <use xlink:href="#DejaVuSans-31"/>
       <use xlink:href="#DejaVuSans-30" x="63.623047"/>
       <use xlink:href="#DejaVuSans-30" x="127.246094"/>
      </g>
     </g>
    </g>
    <g id="xtick_4">
     <g id="line2d_4">
      <g>
       <use xlink:href="#m3a88f62bdb" x="506.281312" y="320.4" style="stroke: #000000; stroke-width: 0.8"/>
      </g>
     </g>
     <g id="text_4">
      <!-- 150 -->
      <g transform="translate(489.102562 341.077187) scale(0.18 -0.18)">
       <use xlink:href="#DejaVuSans-31"/>
       <use xlink:href="#DejaVuSans-35" x="63.623047"/>
       <use xlink:href="#DejaVuSans-30" x="127.246094"/>
      </g>
     </g>
    </g>
    <g id="xtick_5">
     <g id="line2d_5">
      <g>
       <use xlink:href="#m3a88f62bdb" x="644.949304" y="320.4" style="stroke: #000000; stroke-width: 0.8"/>
      </g>
     </g>
     <g id="text_5">
      <!-- 200 -->
      <g transform="translate(627.770554 341.077187) scale(0.18 -0.18)">
       <defs>
        <path id="DejaVuSans-32" d="M 1228 531 
L 3431 531 
L 3431 0 
L 469 0 
L 469 531 
Q 828 903 1448 1529 
Q 2069 2156 2228 2338 
Q 2531 2678 2651 2914 
Q 2772 3150 2772 3378 
Q 2772 3750 2511 3984 
Q 2250 4219 1831 4219 
Q 1534 4219 1204 4116 
Q 875 4013 500 3803 
L 500 4441 
Q 881 4594 1212 4672 
Q 1544 4750 1819 4750 
Q 2544 4750 2975 4387 
Q 3406 4025 3406 3419 
Q 3406 3131 3298 2873 
Q 3191 2616 2906 2266 
Q 2828 2175 2409 1742 
Q 1991 1309 1228 531 
z
" transform="scale(0.015625)"/>
       </defs>
       <use xlink:href="#DejaVuSans-32"/>
       <use xlink:href="#DejaVuSans-30" x="63.623047"/>
       <use xlink:href="#DejaVuSans-30" x="127.246094"/>
      </g>
     </g>
    </g>
    <g id="text_6">
     <!-- trials -->
     <g transform="translate(344.075 364.0175) scale(0.2 -0.2)">
      <defs>
       <path id="DejaVuSans-74" d="M 1172 4494 
L 1172 3500 
L 2356 3500 
L 2356 3053 
L 1172 3053 
L 1172 1153 
Q 1172 725 1289 603 
Q 1406 481 1766 481 
L 2356 481 
L 2356 0 
L 1766 0 
Q 1100 0 847 248 
Q 594 497 594 1153 
L 594 3053 
L 172 3053 
L 172 3500 
L 594 3500 
L 594 4494 
L 1172 4494 
z
" transform="scale(0.015625)"/>
       <path id="DejaVuSans-72" d="M 2631 2963 
Q 2534 3019 2420 3045 
Q 2306 3072 2169 3072 
Q 1681 3072 1420 2755 
Q 1159 2438 1159 1844 
L 1159 0 
L 581 0 
L 581 3500 
L 1159 3500 
L 1159 2956 
Q 1341 3275 1631 3429 
Q 1922 3584 2338 3584 
Q 2397 3584 2469 3576 
Q 2541 3569 2628 3553 
L 2631 2963 
z
" transform="scale(0.015625)"/>
       <path id="DejaVuSans-69" d="M 603 3500 
L 1178 3500 
L 1178 0 
L 603 0 
L 603 3500 
z
M 603 4863 
L 1178 4863 
L 1178 4134 
L 603 4134 
L 603 4863 
z
" transform="scale(0.015625)"/>
       <path id="DejaVuSans-61" d="M 2194 1759 
Q 1497 1759 1228 1600 
Q 959 1441 959 1056 
Q 959 750 1161 570 
Q 1363 391 1709 391 
Q 2188 391 2477 730 
Q 2766 1069 2766 1631 
L 2766 1759 
L 2194 1759 
z
M 3341 1997 
L 3341 0 
L 2766 0 
L 2766 531 
Q 2569 213 2275 61 
Q 1981 -91 1556 -91 
Q 1019 -91 701 211 
Q 384 513 384 1019 
Q 384 1609 779 1909 
Q 1175 2209 1959 2209 
L 2766 2209 
L 2766 2266 
Q 2766 2663 2505 2880 
Q 2244 3097 1772 3097 
Q 1472 3097 1187 3025 
Q 903 2953 641 2809 
L 641 3341 
Q 956 3463 1253 3523 
Q 1550 3584 1831 3584 
Q 2591 3584 2966 3190 
Q 3341 2797 3341 1997 
z
" transform="scale(0.015625)"/>
       <path id="DejaVuSans-6c" d="M 603 4863 
L 1178 4863 
L 1178 0 
L 603 0 
L 603 4863 
z
" transform="scale(0.015625)"/>
       <path id="DejaVuSans-73" d="M 2834 3397 
L 2834 2853 
Q 2591 2978 2328 3040 
Q 2066 3103 1784 3103 
Q 1356 3103 1142 2972 
Q 928 2841 928 2578 
Q 928 2378 1081 2264 
Q 1234 2150 1697 2047 
L 1894 2003 
Q 2506 1872 2764 1633 
Q 3022 1394 3022 966 
Q 3022 478 2636 193 
Q 2250 -91 1575 -91 
Q 1294 -91 989 -36 
Q 684 19 347 128 
L 347 722 
Q 666 556 975 473 
Q 1284 391 1588 391 
Q 1994 391 2212 530 
Q 2431 669 2431 922 
Q 2431 1156 2273 1281 
Q 2116 1406 1581 1522 
L 1381 1569 
Q 847 1681 609 1914 
Q 372 2147 372 2553 
Q 372 3047 722 3315 
Q 1072 3584 1716 3584 
Q 2034 3584 2315 3537 
Q 2597 3491 2834 3397 
z
" transform="scale(0.015625)"/>
      </defs>
      <use xlink:href="#DejaVuSans-74"/>
      <use xlink:href="#DejaVuSans-72" x="39.208984"/>
      <use xlink:href="#DejaVuSans-69" x="80.322266"/>
      <use xlink:href="#DejaVuSans-61" x="108.105469"/>
      <use xlink:href="#DejaVuSans-6c" x="169.384766"/>
      <use xlink:href="#DejaVuSans-73" x="197.167969"/>
     </g>
    </g>
   </g>
   <g id="matplotlib.axis_2">
    <g id="ytick_1">
     <g id="line2d_6">
      <defs>
       <path id="mb2c77ee489" d="M 0 0 
L -3.5 0 
" style="stroke: #000000; stroke-width: 0.8"/>
      </defs>
      <g>
       <use xlink:href="#mb2c77ee489" x="90" y="320.4" style="stroke: #000000; stroke-width: 0.8"/>
      </g>
     </g>
     <g id="text_7">
      <!-- 0.0 -->
      <g transform="translate(54.374375 327.238594) scale(0.18 -0.18)">
       <defs>
        <path id="DejaVuSans-2e" d="M 684 794 
L 1344 794 
L 1344 0 
L 684 0 
L 684 794 
z
" transform="scale(0.015625)"/>
       </defs>
       <use xlink:href="#DejaVuSans-30"/>
       <use xlink:href="#DejaVuSans-2e" x="63.623047"/>
       <use xlink:href="#DejaVuSans-30" x="95.410156"/>
      </g>
     </g>
    </g>
    <g id="ytick_2">
     <g id="line2d_7">
      <g>
       <use xlink:href="#mb2c77ee489" x="90" y="264.96" style="stroke: #000000; stroke-width: 0.8"/>
      </g>
     </g>
     <g id="text_8">
      <!-- 0.2 -->
      <g transform="translate(54.374375 271.798594) scale(0.18 -0.18)">
       <use xlink:href="#DejaVuSans-30"/>
       <use xlink:href="#DejaVuSans-2e" x="63.623047"/>
       <use xlink:href="#DejaVuSans-32" x="95.410156"/>
      </g>
     </g>
    </g>
    <g id="ytick_3">
     <g id="line2d_8">
      <g>
       <use xlink:href="#mb2c77ee489" x="90" y="209.52" style="stroke: #000000; stroke-width: 0.8"/>
      </g>
     </g>
     <g id="text_9">
      <!-- 0.4 -->
      <g transform="translate(54.374375 216.358594) scale(0.18 -0.18)">
       <defs>
        <path id="DejaVuSans-34" d="M 2419 4116 
L 825 1625 
L 2419 1625 
L 2419 4116 
z
M 2253 4666 
L 3047 4666 
L 3047 1625 
L 3713 1625 
L 3713 1100 
L 3047 1100 
L 3047 0 
L 2419 0 
L 2419 1100 
L 313 1100 
L 313 1709 
L 2253 4666 
z
" transform="scale(0.015625)"/>
       </defs>
       <use xlink:href="#DejaVuSans-30"/>
       <use xlink:href="#DejaVuSans-2e" x="63.623047"/>
       <use xlink:href="#DejaVuSans-34" x="95.410156"/>
      </g>
     </g>
    </g>
    <g id="ytick_4">
     <g id="line2d_9">
      <g>
       <use xlink:href="#mb2c77ee489" x="90" y="154.08" style="stroke: #000000; stroke-width: 0.8"/>
      </g>
     </g>
     <g id="text_10">
      <!-- 0.6 -->
      <g transform="translate(54.374375 160.918594) scale(0.18 -0.18)">
       <defs>
        <path id="DejaVuSans-36" d="M 2113 2584 
Q 1688 2584 1439 2293 
Q 1191 2003 1191 1497 
Q 1191 994 1439 701 
Q 1688 409 2113 409 
Q 2538 409 2786 701 
Q 3034 994 3034 1497 
Q 3034 2003 2786 2293 
Q 2538 2584 2113 2584 
z
M 3366 4563 
L 3366 3988 
Q 3128 4100 2886 4159 
Q 2644 4219 2406 4219 
Q 1781 4219 1451 3797 
Q 1122 3375 1075 2522 
Q 1259 2794 1537 2939 
Q 1816 3084 2150 3084 
Q 2853 3084 3261 2657 
Q 3669 2231 3669 1497 
Q 3669 778 3244 343 
Q 2819 -91 2113 -91 
Q 1303 -91 875 529 
Q 447 1150 447 2328 
Q 447 3434 972 4092 
Q 1497 4750 2381 4750 
Q 2619 4750 2861 4703 
Q 3103 4656 3366 4563 
z
" transform="scale(0.015625)"/>
       </defs>
       <use xlink:href="#DejaVuSans-30"/>
       <use xlink:href="#DejaVuSans-2e" x="63.623047"/>
       <use xlink:href="#DejaVuSans-36" x="95.410156"/>
      </g>
     </g>
    </g>
    <g id="ytick_5">
     <g id="line2d_10">
      <g>
       <use xlink:href="#mb2c77ee489" x="90" y="98.64" style="stroke: #000000; stroke-width: 0.8"/>
      </g>
     </g>
     <g id="text_11">
      <!-- 0.8 -->
      <g transform="translate(54.374375 105.478594) scale(0.18 -0.18)">
       <defs>
        <path id="DejaVuSans-38" d="M 2034 2216 
Q 1584 2216 1326 1975 
Q 1069 1734 1069 1313 
Q 1069 891 1326 650 
Q 1584 409 2034 409 
Q 2484 409 2743 651 
Q 3003 894 3003 1313 
Q 3003 1734 2745 1975 
Q 2488 2216 2034 2216 
z
M 1403 2484 
Q 997 2584 770 2862 
Q 544 3141 544 3541 
Q 544 4100 942 4425 
Q 1341 4750 2034 4750 
Q 2731 4750 3128 4425 
Q 3525 4100 3525 3541 
Q 3525 3141 3298 2862 
Q 3072 2584 2669 2484 
Q 3125 2378 3379 2068 
Q 3634 1759 3634 1313 
Q 3634 634 3220 271 
Q 2806 -91 2034 -91 
Q 1263 -91 848 271 
Q 434 634 434 1313 
Q 434 1759 690 2068 
Q 947 2378 1403 2484 
z
M 1172 3481 
Q 1172 3119 1398 2916 
Q 1625 2713 2034 2713 
Q 2441 2713 2670 2916 
Q 2900 3119 2900 3481 
Q 2900 3844 2670 4047 
Q 2441 4250 2034 4250 
Q 1625 4250 1398 4047 
Q 1172 3844 1172 3481 
z
" transform="scale(0.015625)"/>
       </defs>
       <use xlink:href="#DejaVuSans-30"/>
       <use xlink:href="#DejaVuSans-2e" x="63.623047"/>
       <use xlink:href="#DejaVuSans-38" x="95.410156"/>
      </g>
     </g>
    </g>
    <g id="ytick_6">
     <g id="line2d_11">
      <g>
       <use xlink:href="#mb2c77ee489" x="90" y="43.2" style="stroke: #000000; stroke-width: 0.8"/>
      </g>
     </g>
     <g id="text_12">
      <!-- 1.0 -->
      <g transform="translate(54.374375 50.038594) scale(0.18 -0.18)">
       <use xlink:href="#DejaVuSans-31"/>
       <use xlink:href="#DejaVuSans-2e" x="63.623047"/>
       <use xlink:href="#DejaVuSans-30" x="95.410156"/>
      </g>
     </g>
    </g>
    <g id="text_13">
     <!-- reward probability -->
     <g transform="translate(46.215 272.959375) rotate(-90) scale(0.2 -0.2)">
      <defs>
       <path id="DejaVuSans-65" d="M 3597 1894 
L 3597 1613 
L 953 1613 
Q 991 1019 1311 708 
Q 1631 397 2203 397 
Q 2534 397 2845 478 
Q 3156 559 3463 722 
L 3463 178 
Q 3153 47 2828 -22 
Q 2503 -91 2169 -91 
Q 1331 -91 842 396 
Q 353 884 353 1716 
Q 353 2575 817 3079 
Q 1281 3584 2069 3584 
Q 2775 3584 3186 3129 
Q 3597 2675 3597 1894 
z
M 3022 2063 
Q 3016 2534 2758 2815 
Q 2500 3097 2075 3097 
Q 1594 3097 1305 2825 
Q 1016 2553 972 2059 
L 3022 2063 
z
" transform="scale(0.015625)"/>
       <path id="DejaVuSans-77" d="M 269 3500 
L 844 3500 
L 1563 769 
L 2278 3500 
L 2956 3500 
L 3675 769 
L 4391 3500 
L 4966 3500 
L 4050 0 
L 3372 0 
L 2619 2869 
L 1863 0 
L 1184 0 
L 269 3500 
z
" transform="scale(0.015625)"/>
       <path id="DejaVuSans-64" d="M 2906 2969 
L 2906 4863 
L 3481 4863 
L 3481 0 
L 2906 0 
L 2906 525 
Q 2725 213 2448 61 
Q 2172 -91 1784 -91 
Q 1150 -91 751 415 
Q 353 922 353 1747 
Q 353 2572 751 3078 
Q 1150 3584 1784 3584 
Q 2172 3584 2448 3432 
Q 2725 3281 2906 2969 
z
M 947 1747 
Q 947 1113 1208 752 
Q 1469 391 1925 391 
Q 2381 391 2643 752 
Q 2906 1113 2906 1747 
Q 2906 2381 2643 2742 
Q 2381 3103 1925 3103 
Q 1469 3103 1208 2742 
Q 947 2381 947 1747 
z
" transform="scale(0.015625)"/>
       <path id="DejaVuSans-20" transform="scale(0.015625)"/>
       <path id="DejaVuSans-70" d="M 1159 525 
L 1159 -1331 
L 581 -1331 
L 581 3500 
L 1159 3500 
L 1159 2969 
Q 1341 3281 1617 3432 
Q 1894 3584 2278 3584 
Q 2916 3584 3314 3078 
Q 3713 2572 3713 1747 
Q 3713 922 3314 415 
Q 2916 -91 2278 -91 
Q 1894 -91 1617 61 
Q 1341 213 1159 525 
z
M 3116 1747 
Q 3116 2381 2855 2742 
Q 2594 3103 2138 3103 
Q 1681 3103 1420 2742 
Q 1159 2381 1159 1747 
Q 1159 1113 1420 752 
Q 1681 391 2138 391 
Q 2594 391 2855 752 
Q 3116 1113 3116 1747 
z
" transform="scale(0.015625)"/>
       <path id="DejaVuSans-6f" d="M 1959 3097 
Q 1497 3097 1228 2736 
Q 959 2375 959 1747 
Q 959 1119 1226 758 
Q 1494 397 1959 397 
Q 2419 397 2687 759 
Q 2956 1122 2956 1747 
Q 2956 2369 2687 2733 
Q 2419 3097 1959 3097 
z
M 1959 3584 
Q 2709 3584 3137 3096 
Q 3566 2609 3566 1747 
Q 3566 888 3137 398 
Q 2709 -91 1959 -91 
Q 1206 -91 779 398 
Q 353 888 353 1747 
Q 353 2609 779 3096 
Q 1206 3584 1959 3584 
z
" transform="scale(0.015625)"/>
       <path id="DejaVuSans-62" d="M 3116 1747 
Q 3116 2381 2855 2742 
Q 2594 3103 2138 3103 
Q 1681 3103 1420 2742 
Q 1159 2381 1159 1747 
Q 1159 1113 1420 752 
Q 1681 391 2138 391 
Q 2594 391 2855 752 
Q 3116 1113 3116 1747 
z
M 1159 2969 
Q 1341 3281 1617 3432 
Q 1894 3584 2278 3584 
Q 2916 3584 3314 3078 
Q 3713 2572 3713 1747 
Q 3713 922 3314 415 
Q 2916 -91 2278 -91 
Q 1894 -91 1617 61 
Q 1341 213 1159 525 
L 1159 0 
L 581 0 
L 581 4863 
L 1159 4863 
L 1159 2969 
z
" transform="scale(0.015625)"/>
       <path id="DejaVuSans-79" d="M 2059 -325 
Q 1816 -950 1584 -1140 
Q 1353 -1331 966 -1331 
L 506 -1331 
L 506 -850 
L 844 -850 
Q 1081 -850 1212 -737 
Q 1344 -625 1503 -206 
L 1606 56 
L 191 3500 
L 800 3500 
L 1894 763 
L 2988 3500 
L 3597 3500 
L 2059 -325 
z
" transform="scale(0.015625)"/>
      </defs>
      <use xlink:href="#DejaVuSans-72"/>
      <use xlink:href="#DejaVuSans-65" x="38.863281"/>
      <use xlink:href="#DejaVuSans-77" x="100.386719"/>
      <use xlink:href="#DejaVuSans-61" x="182.173828"/>
      <use xlink:href="#DejaVuSans-72" x="243.453125"/>
      <use xlink:href="#DejaVuSans-64" x="282.816406"/>
      <use xlink:href="#DejaVuSans-20" x="346.292969"/>
      <use xlink:href="#DejaVuSans-70" x="378.080078"/>
      <use xlink:href="#DejaVuSans-72" x="441.556641"/>
      <use xlink:href="#DejaVuSans-6f" x="480.419922"/>
      <use xlink:href="#DejaVuSans-62" x="541.601562"/>
      <use xlink:href="#DejaVuSans-61" x="605.078125"/>
      <use xlink:href="#DejaVuSans-62" x="666.357422"/>
      <use xlink:href="#DejaVuSans-69" x="729.833984"/>
      <use xlink:href="#DejaVuSans-6c" x="757.617188"/>
      <use xlink:href="#DejaVuSans-69" x="785.400391"/>
      <use xlink:href="#DejaVuSans-74" x="813.183594"/>
      <use xlink:href="#DejaVuSans-79" x="852.392578"/>
     </g>
    </g>
   </g>
   <g id="line2d_12">
    <path d="M 90.277336 125.058649 
L 93.050696 125.212044 
L 95.824056 119.681218 
L 98.597416 116.771459 
L 104.144135 132.105339 
L 106.917495 124.0719 
L 109.690855 120.889903 
L 112.464215 119.155138 
L 115.237575 116.66445 
L 118.010934 114.991343 
L 120.784294 115.940899 
L 123.557654 120.698994 
L 126.331014 117.034881 
L 129.104374 117.941758 
L 131.877734 125.752641 
L 134.651093 132.415333 
L 137.424453 131.774493 
L 140.197813 133.508547 
L 142.971173 141.275519 
L 145.744533 148.034305 
L 148.517893 149.364976 
L 151.291252 147.664683 
L 154.064612 129.39312 
L 156.837972 125.857193 
L 159.611332 114.974822 
L 162.384692 127.569691 
L 165.158052 116.945767 
L 167.931412 113.897573 
L 170.704771 120.933045 
L 173.478131 113.196568 
L 176.251491 115.489705 
L 179.024851 115.184163 
L 181.798211 113.415012 
L 184.571571 123.801832 
L 187.34493 129.346031 
L 190.11829 132.736407 
L 192.89165 133.916247 
L 195.66501 140.377332 
L 198.43837 152.0068 
L 201.21173 153.66018 
L 203.985089 156.305117 
L 206.758449 159.269613 
L 209.531809 171.665405 
L 212.305169 180.222887 
L 215.078529 184.302067 
L 217.851889 186.043821 
L 220.625249 182.568537 
L 223.398608 184.443117 
L 226.171968 191.495539 
L 228.945328 187.550023 
L 231.718688 185.336152 
L 234.492048 179.352491 
L 237.265408 183.628534 
L 240.038767 178.5982 
L 245.585487 181.264547 
L 248.358847 189.261321 
L 251.132207 185.035477 
L 253.905567 192.706111 
L 256.678926 188.248073 
L 259.452286 180.376773 
L 262.225646 170.664945 
L 264.999006 163.705082 
L 267.772366 173.716573 
L 270.545726 180.540503 
L 273.319085 173.532481 
L 276.092445 172.619363 
L 278.865805 159.578688 
L 281.639165 170.89973 
L 284.412525 173.693663 
L 287.185885 180.801576 
L 289.959245 187.522897 
L 292.732604 183.717286 
L 295.505964 178.413019 
L 298.279324 171.84696 
L 301.052684 178.099721 
L 303.826044 181.63718 
L 306.599404 171.119317 
L 309.372763 167.471181 
L 312.146123 165.887526 
L 314.919483 168.115998 
L 317.692843 174.542257 
L 320.466203 179.578671 
L 323.239563 183.278766 
L 326.012922 180.080973 
L 328.786282 179.368379 
L 331.559642 180.773081 
L 334.333002 175.623309 
L 337.106362 167.121339 
L 339.879722 183.408101 
L 342.653082 179.020649 
L 345.426441 167.63963 
L 348.199801 165.598302 
L 350.973161 169.716832 
L 353.746521 166.272379 
L 356.519881 177.481154 
L 359.293241 168.596224 
L 362.0666 176.882087 
L 364.83996 168.288103 
L 367.61332 174.011794 
L 373.16004 171.853348 
L 375.9334 168.479187 
L 378.706759 161.46606 
L 381.480119 156.809327 
L 384.253479 165.31815 
L 387.026839 164.970253 
L 389.800199 167.168753 
L 392.573559 175.645881 
L 395.346918 181.164468 
L 398.120278 185.679603 
L 400.893638 186.027414 
L 403.666998 190.52476 
L 406.440358 192.008539 
L 409.213718 195.707869 
L 411.987078 196.49091 
L 414.760437 201.685322 
L 417.533797 203.150466 
L 420.307157 207.826405 
L 423.080517 205.64189 
L 425.853877 210.716589 
L 428.627237 214.031089 
L 431.400596 201.452904 
L 434.173956 201.664864 
L 436.947316 212.80431 
L 439.720676 205.510504 
L 442.494036 205.324391 
L 445.267396 213.344839 
L 448.040755 216.116591 
L 450.814115 211.669422 
L 453.587475 209.995498 
L 456.360835 209.638152 
L 459.134195 210.838628 
L 461.907555 214.249682 
L 464.680915 213.34727 
L 467.454274 204.330012 
L 470.227634 208.45219 
L 473.000994 223.324817 
L 478.547714 223.520925 
L 481.321074 238.794288 
L 484.094433 242.931038 
L 486.867793 240.886839 
L 489.641153 245.998981 
L 492.414513 240.639054 
L 495.187873 232.854152 
L 497.961233 234.415422 
L 500.734592 233.22857 
L 503.507952 234.258187 
L 506.281312 234.873615 
L 509.054672 233.486829 
L 511.828032 239.139606 
L 514.601392 232.036247 
L 517.374751 236.338604 
L 520.148111 229.737756 
L 522.921471 226.38151 
L 525.694831 224.328505 
L 528.468191 223.329858 
L 531.241551 231.937578 
L 534.014911 222.220774 
L 536.78827 227.421962 
L 539.56163 225.932784 
L 542.33499 230.821205 
L 545.10835 240.933804 
L 547.88171 242.946815 
L 550.65507 240.936346 
L 553.428429 230.1056 
L 556.201789 237.028736 
L 558.975149 232.214375 
L 561.748509 219.971385 
L 564.521869 219.228107 
L 567.295229 227.543928 
L 570.068588 222.005004 
L 572.841948 220.115624 
L 575.615308 219.78892 
L 578.388668 217.655489 
L 581.162028 211.907812 
L 583.935388 220.882561 
L 586.708748 223.217509 
L 589.482107 219.73611 
L 592.255467 229.805682 
L 595.028827 219.45586 
L 597.802187 230.513128 
L 600.575547 220.171056 
L 603.348907 210.799227 
L 606.122266 210.765377 
L 608.895626 223.065763 
L 611.668986 215.076349 
L 614.442346 212.829424 
L 617.215706 226.028391 
L 619.989066 221.901617 
L 622.762425 215.040272 
L 625.535785 213.159709 
L 628.309145 214.259993 
L 631.082505 216.043406 
L 633.855865 209.033285 
L 636.629225 196.726177 
L 642.175944 201.490725 
L 644.949304 199.737818 
L 644.949304 199.737818 
" clip-path="url(#pb1c6068b13)" style="fill: none; stroke: #1f77b4; stroke-width: 4; stroke-linecap: square"/>
   </g>
   <g id="line2d_13">
    <path d="M 90.277336 156.535323 
L 93.050696 160.212936 
L 95.824056 165.420945 
L 98.597416 162.650484 
L 101.370775 160.938704 
L 104.144135 150.068247 
L 106.917495 155.723259 
L 109.690855 152.315022 
L 112.464215 151.867669 
L 115.237575 149.713853 
L 118.010934 150.567302 
L 120.784294 158.175444 
L 123.557654 169.588864 
L 126.331014 162.666438 
L 129.104374 156.784876 
L 131.877734 149.560566 
L 134.651093 152.518354 
L 137.424453 158.85657 
L 140.197813 156.936925 
L 142.971173 155.338903 
L 145.744533 157.501269 
L 148.517893 155.869954 
L 151.291252 148.124245 
L 154.064612 141.754729 
L 156.837972 149.631354 
L 159.611332 148.220694 
L 162.384692 141.803427 
L 165.158052 143.683826 
L 167.931412 144.960823 
L 170.704771 144.412986 
L 173.478131 137.047553 
L 176.251491 141.438062 
L 179.024851 136.622723 
L 181.798211 143.049758 
L 184.571571 143.772469 
L 187.34493 142.528314 
L 192.89165 158.994664 
L 195.66501 162.893864 
L 198.43837 156.216473 
L 201.21173 162.276375 
L 203.985089 153.180678 
L 206.758449 145.827762 
L 209.531809 147.84578 
L 212.305169 156.872684 
L 215.078529 160.894116 
L 217.851889 151.193387 
L 220.625249 154.146264 
L 223.398608 151.240349 
L 226.171968 158.644456 
L 228.945328 148.01448 
L 231.718688 148.900825 
L 234.492048 151.86782 
L 237.265408 151.752414 
L 242.812127 138.281686 
L 245.585487 152.044642 
L 248.358847 152.600214 
L 251.132207 143.560477 
L 253.905567 140.165604 
L 256.678926 128.832433 
L 259.452286 138.433099 
L 262.225646 137.321538 
L 264.999006 127.874866 
L 267.772366 125.370882 
L 270.545726 127.64235 
L 273.319085 136.475249 
L 276.092445 138.329549 
L 278.865805 140.385204 
L 281.639165 147.211937 
L 284.412525 136.258332 
L 287.185885 137.14889 
L 289.959245 139.445148 
L 292.732604 140.810739 
L 295.505964 145.618208 
L 298.279324 158.555366 
L 301.052684 163.749132 
L 303.826044 148.775339 
L 306.599404 156.340567 
L 309.372763 157.201822 
L 312.146123 161.66552 
L 314.919483 165.459868 
L 317.692843 162.560939 
L 320.466203 160.361849 
L 323.239563 153.753678 
L 326.012922 139.792147 
L 328.786282 148.122646 
L 331.559642 148.938478 
L 334.333002 156.163832 
L 337.106362 167.239097 
L 339.879722 175.387834 
L 342.653082 166.392457 
L 345.426441 173.451663 
L 348.199801 168.320479 
L 350.973161 161.004267 
L 353.746521 160.944259 
L 356.519881 173.32506 
L 359.293241 173.695564 
L 362.0666 178.399899 
L 364.83996 175.440604 
L 367.61332 173.090005 
L 370.38668 176.864339 
L 373.16004 177.367119 
L 375.9334 181.848003 
L 378.706759 173.418717 
L 381.480119 161.149234 
L 384.253479 167.320731 
L 387.026839 157.315572 
L 389.800199 145.779383 
L 392.573559 143.365735 
L 395.346918 147.490893 
L 398.120278 131.867697 
L 400.893638 140.012097 
L 403.666998 141.390967 
L 406.440358 144.829822 
L 409.213718 145.577697 
L 411.987078 134.112566 
L 414.760437 144.77433 
L 417.533797 141.797956 
L 420.307157 135.459505 
L 423.080517 147.960103 
L 425.853877 164.086079 
L 428.627237 158.155094 
L 431.400596 153.63383 
L 434.173956 153.947351 
L 436.947316 158.044506 
L 439.720676 144.266085 
L 442.494036 148.360713 
L 445.267396 154.734082 
L 448.040755 159.714633 
L 456.360835 182.3128 
L 459.134195 178.836041 
L 461.907555 191.95631 
L 464.680915 190.244049 
L 467.454274 185.768688 
L 470.227634 191.038738 
L 473.000994 195.310159 
L 475.774354 195.643502 
L 478.547714 196.220104 
L 481.321074 204.290049 
L 484.094433 198.922512 
L 486.867793 196.642503 
L 489.641153 195.141114 
L 492.414513 194.525086 
L 495.187873 188.313685 
L 497.961233 187.761567 
L 500.734592 189.83885 
L 503.507952 192.368659 
L 506.281312 191.247671 
L 509.054672 191.067577 
L 511.828032 171.004003 
L 514.601392 171.654955 
L 517.374751 172.809565 
L 520.148111 175.206989 
L 522.921471 173.278355 
L 525.694831 175.135846 
L 528.468191 177.750753 
L 534.014911 195.691226 
L 536.78827 195.864298 
L 539.56163 186.540977 
L 542.33499 183.648342 
L 545.10835 181.225355 
L 547.88171 175.518028 
L 550.65507 176.848199 
L 553.428429 177.098009 
L 556.201789 175.666936 
L 558.975149 170.606951 
L 561.748509 180.864283 
L 564.521869 190.170774 
L 567.295229 190.181816 
L 570.068588 177.39029 
L 572.841948 171.376085 
L 575.615308 170.979642 
L 578.388668 162.686619 
L 581.162028 160.550476 
L 583.935388 164.692538 
L 586.708748 172.466018 
L 589.482107 162.350946 
L 592.255467 157.265267 
L 595.028827 155.339318 
L 597.802187 168.411977 
L 600.575547 174.784655 
L 603.348907 174.517497 
L 606.122266 163.778068 
L 608.895626 169.038824 
L 611.668986 169.483087 
L 614.442346 175.023688 
L 617.215706 171.219242 
L 619.989066 184.754861 
L 625.535785 190.319522 
L 628.309145 191.795905 
L 631.082505 197.71507 
L 633.855865 197.638947 
L 636.629225 201.636783 
L 639.402584 212.431902 
L 642.175944 219.775033 
L 644.949304 232.523665 
L 644.949304 232.523665 
" clip-path="url(#pb1c6068b13)" style="fill: none; stroke: #ff7f0e; stroke-width: 4; stroke-linecap: square"/>
   </g>
   <g id="line2d_14">
    <path d="M 90.277336 244.036171 
L 93.050696 235.916528 
L 95.824056 239.643606 
L 98.597416 236.885902 
L 101.370775 241.507068 
L 104.144135 236.712221 
L 106.917495 222.109095 
L 109.690855 216.902731 
L 112.464215 213.942133 
L 115.237575 223.024479 
L 118.010934 227.334123 
L 120.784294 241.920078 
L 123.557654 250.43136 
L 126.331014 250.153571 
L 129.104374 242.823557 
L 131.877734 249.941492 
L 134.651093 246.173537 
L 137.424453 238.038614 
L 140.197813 237.173673 
L 142.971173 230.320915 
L 145.744533 229.568924 
L 148.517893 232.43969 
L 151.291252 229.494026 
L 154.064612 221.828943 
L 156.837972 227.8417 
L 159.611332 230.033936 
L 162.384692 230.991966 
L 165.158052 232.936967 
L 167.931412 230.474432 
L 170.704771 232.381917 
L 173.478131 241.206361 
L 176.251491 237.913925 
L 179.024851 244.657442 
L 181.798211 249.551151 
L 184.571571 243.541049 
L 187.34493 238.438544 
L 190.11829 246.2296 
L 192.89165 243.815809 
L 195.66501 249.780873 
L 198.43837 237.556097 
L 201.21173 249.096703 
L 203.985089 249.359013 
L 206.758449 248.296468 
L 209.531809 244.041426 
L 212.305169 249.116114 
L 215.078529 250.982522 
L 217.851889 249.700578 
L 220.625249 249.379934 
L 223.398608 243.673099 
L 226.171968 242.188519 
L 228.945328 236.413675 
L 231.718688 235.103807 
L 234.492048 232.994408 
L 237.265408 243.535347 
L 240.038767 238.431594 
L 242.812127 241.973682 
L 245.585487 244.311178 
L 248.358847 248.73981 
L 251.132207 240.797817 
L 253.905567 245.778856 
L 256.678926 248.833013 
L 259.452286 244.863653 
L 262.225646 239.081274 
L 264.999006 239.417753 
L 267.772366 236.141717 
L 270.545726 229.504086 
L 273.319085 232.142 
L 276.092445 223.876308 
L 278.865805 220.885348 
L 281.639165 213.484402 
L 284.412525 216.900497 
L 287.185885 207.437468 
L 289.959245 209.534968 
L 292.732604 201.98167 
L 295.505964 205.029006 
L 298.279324 209.114456 
L 301.052684 211.540884 
L 303.826044 225.318599 
L 306.599404 240.285692 
L 309.372763 246.77513 
L 312.146123 244.576183 
L 314.919483 242.541316 
L 317.692843 246.397328 
L 320.466203 234.957719 
L 323.239563 243.187811 
L 326.012922 247.29288 
L 328.786282 245.92662 
L 331.559642 238.773723 
L 334.333002 227.859603 
L 337.106362 218.192579 
L 339.879722 218.299088 
L 342.653082 218.708727 
L 345.426441 215.285459 
L 348.199801 213.617356 
L 350.973161 223.249523 
L 353.746521 227.740646 
L 356.519881 229.901092 
L 359.293241 224.68687 
L 362.0666 226.571656 
L 364.83996 229.228276 
L 367.61332 214.768777 
L 370.38668 219.960144 
L 373.16004 211.200432 
L 375.9334 216.587784 
L 378.706759 219.672369 
L 381.480119 222.152355 
L 384.253479 229.931597 
L 387.026839 231.557123 
L 389.800199 227.138588 
L 392.573559 228.606259 
L 395.346918 241.720867 
L 398.120278 243.081458 
L 400.893638 242.337023 
L 406.440358 245.011851 
L 409.213718 239.69347 
L 411.987078 242.864296 
L 414.760437 234.754251 
L 417.533797 233.520283 
L 420.307157 233.854402 
L 423.080517 232.933035 
L 425.853877 225.377878 
L 428.627237 222.913385 
L 431.400596 232.302172 
L 434.173956 239.473217 
L 436.947316 241.083014 
L 439.720676 243.552746 
L 442.494036 241.575586 
L 445.267396 243.254926 
L 448.040755 247.842379 
L 450.814115 245.948599 
L 453.587475 240.875666 
L 456.360835 241.213374 
L 459.134195 235.776807 
L 461.907555 245.867683 
L 464.680915 247.298659 
L 467.454274 238.364024 
L 470.227634 240.773951 
L 473.000994 238.474887 
L 475.774354 241.547102 
L 478.547714 240.594942 
L 481.321074 238.780007 
L 484.094433 246.143867 
L 486.867793 247.443626 
L 489.641153 239.898974 
L 492.414513 240.456548 
L 495.187873 242.290341 
L 497.961233 245.863415 
L 500.734592 236.304387 
L 503.507952 235.723244 
L 506.281312 229.441377 
L 509.054672 226.409982 
L 511.828032 219.360685 
L 514.601392 224.664546 
L 517.374751 221.957768 
L 520.148111 221.253676 
L 522.921471 226.846465 
L 525.694831 228.84182 
L 528.468191 231.532697 
L 531.241551 237.613623 
L 534.014911 228.705578 
L 536.78827 225.733878 
L 539.56163 225.301608 
L 542.33499 224.194177 
L 545.10835 223.32862 
L 547.88171 227.392949 
L 550.65507 225.112963 
L 553.428429 223.902721 
L 556.201789 243.31968 
L 558.975149 237.631165 
L 561.748509 241.736128 
L 564.521869 245.41981 
L 567.295229 244.117916 
L 570.068588 247.300917 
L 572.841948 248.093231 
L 575.615308 250.67751 
L 578.388668 250.367002 
L 581.162028 246.083792 
L 583.935388 249.10573 
L 586.708748 243.507694 
L 589.482107 229.571607 
L 592.255467 233.25842 
L 595.028827 236.219668 
L 597.802187 233.300654 
L 600.575547 228.293568 
L 603.348907 233.744248 
L 606.122266 221.686774 
L 608.895626 219.174798 
L 611.668986 213.738844 
L 614.442346 221.624762 
L 617.215706 230.15872 
L 619.989066 234.56781 
L 622.762425 226.145021 
L 625.535785 218.963398 
L 628.309145 216.946693 
L 631.082505 217.05869 
L 633.855865 221.834122 
L 636.629225 230.561222 
L 639.402584 228.592894 
L 642.175944 221.588584 
L 644.949304 228.633713 
L 644.949304 228.633713 
" clip-path="url(#pb1c6068b13)" style="fill: none; stroke: #2ca02c; stroke-width: 4; stroke-linecap: square"/>
   </g>
   <g id="line2d_15">
    <path d="M 90.277336 189.865876 
L 93.050696 184.60519 
L 95.824056 180.015345 
L 98.597416 174.302504 
L 101.370775 178.470736 
L 104.144135 184.544411 
L 106.917495 188.600325 
L 109.690855 188.799923 
L 112.464215 183.459637 
L 115.237575 176.824611 
L 118.010934 170.632174 
L 120.784294 177.419202 
L 123.557654 175.717916 
L 126.331014 181.943096 
L 129.104374 186.220491 
L 131.877734 186.347458 
L 134.651093 177.159842 
L 137.424453 176.026211 
L 140.197813 180.133298 
L 142.971173 173.029854 
L 145.744533 174.154922 
L 148.517893 190.764214 
L 151.291252 197.897376 
L 154.064612 202.166765 
L 156.837972 202.80213 
L 159.611332 203.990986 
L 162.384692 204.854586 
L 165.158052 205.254378 
L 167.931412 210.543271 
L 170.704771 199.977965 
L 173.478131 192.791537 
L 176.251491 196.196069 
L 179.024851 183.181802 
L 181.798211 174.415839 
L 184.571571 172.619468 
L 187.34493 187.484813 
L 190.11829 177.554362 
L 192.89165 181.962835 
L 195.66501 184.043497 
L 198.43837 192.348814 
L 201.21173 194.56421 
L 203.985089 196.927256 
L 206.758449 205.789194 
L 209.531809 205.634302 
L 212.305169 209.53714 
L 215.078529 213.774028 
L 217.851889 213.087189 
L 220.625249 231.744109 
L 223.398608 244.259927 
L 226.171968 236.194966 
L 228.945328 233.714373 
L 231.718688 225.850464 
L 234.492048 234.251954 
L 237.265408 232.857283 
L 240.038767 225.268692 
L 242.812127 208.487647 
L 245.585487 204.770638 
L 248.358847 206.238085 
L 251.132207 213.486911 
L 253.905567 215.937938 
L 256.678926 219.095234 
L 259.452286 215.147341 
L 262.225646 215.199706 
L 264.999006 210.262665 
L 267.772366 200.914418 
L 270.545726 197.201804 
L 273.319085 182.239797 
L 276.092445 185.857925 
L 278.865805 193.274836 
L 281.639165 196.907345 
L 284.412525 201.859644 
L 287.185885 193.382855 
L 289.959245 192.576047 
L 292.732604 191.487147 
L 295.505964 200.350445 
L 298.279324 195.978738 
L 301.052684 203.129122 
L 303.826044 201.528803 
L 306.599404 196.572176 
L 309.372763 203.0372 
L 312.146123 207.483219 
L 314.919483 207.267486 
L 317.692843 204.863822 
L 320.466203 211.26042 
L 323.239563 203.220676 
L 326.012922 214.649987 
L 328.786282 218.719805 
L 331.559642 229.856571 
L 334.333002 231.382855 
L 337.106362 230.598426 
L 339.879722 217.788313 
L 342.653082 217.027973 
L 345.426441 219.225107 
L 348.199801 214.010623 
L 350.973161 233.251233 
L 353.746521 238.844396 
L 356.519881 241.52289 
L 359.293241 239.795536 
L 362.0666 249.410094 
L 364.83996 244.676319 
L 367.61332 245.527794 
L 370.38668 245.741095 
L 373.16004 245.019487 
L 375.9334 241.242619 
L 378.706759 233.381473 
L 381.480119 241.108313 
L 384.253479 232.358007 
L 387.026839 225.845904 
L 389.800199 225.33677 
L 392.573559 229.430022 
L 395.346918 221.253941 
L 398.120278 228.460952 
L 400.893638 238.551383 
L 403.666998 232.983222 
L 406.440358 229.717245 
L 409.213718 227.735696 
L 411.987078 230.802708 
L 414.760437 230.062334 
L 417.533797 232.921185 
L 420.307157 234.439228 
L 423.080517 239.049229 
L 425.853877 236.773395 
L 428.627237 233.611801 
L 431.400596 227.839522 
L 434.173956 236.191002 
L 436.947316 241.572043 
L 439.720676 239.517068 
L 442.494036 234.457129 
L 445.267396 224.179098 
L 448.040755 225.234281 
L 450.814115 225.030283 
L 453.587475 222.388418 
L 456.360835 212.050604 
L 459.134195 205.203336 
L 461.907555 206.243946 
L 464.680915 206.349499 
L 467.454274 218.21688 
L 470.227634 222.131218 
L 473.000994 237.448793 
L 475.774354 216.588977 
L 478.547714 222.796017 
L 484.094433 215.312496 
L 486.867793 220.765221 
L 489.641153 213.885163 
L 492.414513 215.545747 
L 495.187873 222.104353 
L 497.961233 215.564529 
L 500.734592 210.164802 
L 503.507952 220.083004 
L 506.281312 211.093485 
L 509.054672 200.288163 
L 511.828032 192.766317 
L 514.601392 190.571726 
L 517.374751 181.135973 
L 520.148111 188.29184 
L 522.921471 177.912377 
L 525.694831 179.540852 
L 528.468191 175.895421 
L 531.241551 179.562703 
L 534.014911 185.138911 
L 536.78827 184.658537 
L 539.56163 186.536797 
L 542.33499 195.167117 
L 545.10835 187.123147 
L 547.88171 183.055882 
L 550.65507 178.066763 
L 553.428429 185.189644 
L 556.201789 189.568343 
L 558.975149 190.515996 
L 561.748509 186.563514 
L 564.521869 187.316323 
L 567.295229 183.960032 
L 570.068588 187.579024 
L 572.841948 191.760521 
L 575.615308 193.826684 
L 578.388668 209.938999 
L 581.162028 201.804041 
L 583.935388 205.209541 
L 586.708748 202.452846 
L 589.482107 200.976718 
L 592.255467 202.054796 
L 595.028827 201.103981 
L 597.802187 205.624464 
L 600.575547 199.714593 
L 603.348907 196.334034 
L 606.122266 205.459274 
L 608.895626 207.183755 
L 611.668986 213.01068 
L 614.442346 216.024214 
L 617.215706 217.577593 
L 619.989066 218.57406 
L 622.762425 224.712291 
L 625.535785 224.329575 
L 628.309145 241.0883 
L 631.082505 237.527035 
L 633.855865 243.064819 
L 636.629225 249.767102 
L 639.402584 243.99704 
L 642.175944 246.630957 
L 644.949304 232.207505 
L 644.949304 232.207505 
" clip-path="url(#pb1c6068b13)" style="fill: none; stroke: #d62728; stroke-width: 4; stroke-linecap: square"/>
   </g>
   <g id="patch_3">
    <path d="M 90 320.4 
L 90 43.2 
" style="fill: none; stroke: #000000; stroke-width: 0.8; stroke-linejoin: miter; stroke-linecap: square"/>
   </g>
   <g id="patch_4">
    <path d="M 648 320.4 
L 648 43.2 
" style="fill: none; stroke: #000000; stroke-width: 0.8; stroke-linejoin: miter; stroke-linecap: square"/>
   </g>
   <g id="patch_5">
    <path d="M 90 320.4 
L 648 320.4 
" style="fill: none; stroke: #000000; stroke-width: 0.8; stroke-linejoin: miter; stroke-linecap: square"/>
   </g>
   <g id="patch_6">
    <path d="M 90 43.2 
L 648 43.2 
" style="fill: none; stroke: #000000; stroke-width: 0.8; stroke-linejoin: miter; stroke-linecap: square"/>
   </g>
   <g id="legend_1">
    <g id="patch_7">
     <path d="M 682.92 163.42875 
L 760.5 163.42875 
Q 764.1 163.42875 764.1 159.82875 
L 764.1 55.8 
Q 764.1 52.2 760.5 52.2 
L 682.92 52.2 
Q 679.32 52.2 679.32 55.8 
L 679.32 159.82875 
Q 679.32 163.42875 682.92 163.42875 
z
" style="fill: #ffffff; opacity: 0.8; stroke: #cccccc; stroke-linejoin: miter"/>
    </g>
    <g id="line2d_16">
     <path d="M 686.52 66.777187 
L 704.52 66.777187 
L 721 66.777187 
" style="fill: none; stroke: #1f77b4; stroke-width: 4; stroke-linecap: square"/>
    </g>
    <g id="text_14">
     <!-- $p_1$ -->
     <g transform="translate(736.92 73.077187) scale(0.18 -0.18)">
      <defs>
       <path id="DejaVuSans-Oblique-70" d="M 3175 2156 
Q 3175 2616 2975 2859 
Q 2775 3103 2400 3103 
Q 2144 3103 1911 2972 
Q 1678 2841 1497 2591 
Q 1319 2344 1212 1994 
Q 1106 1644 1106 1300 
Q 1106 863 1306 627 
Q 1506 391 1875 391 
Q 2147 391 2380 519 
Q 2613 647 2778 891 
Q 2956 1147 3065 1494 
Q 3175 1841 3175 2156 
z
M 1394 2969 
Q 1625 3272 1939 3428 
Q 2253 3584 2638 3584 
Q 3175 3584 3472 3232 
Q 3769 2881 3769 2247 
Q 3769 1728 3584 1258 
Q 3400 788 3053 416 
Q 2822 169 2531 39 
Q 2241 -91 1919 -91 
Q 1547 -91 1294 64 
Q 1041 219 916 525 
L 556 -1331 
L -19 -1331 
L 922 3500 
L 1497 3500 
L 1394 2969 
z
" transform="scale(0.015625)"/>
      </defs>
      <use xlink:href="#DejaVuSans-Oblique-70"/>
      <use xlink:href="#DejaVuSans-31" transform="translate(63.476562 -16.40625) scale(0.7)"/>
     </g>
    </g>
    <g id="line2d_17">
     <path d="M 686.52 93.234375 
L 704.52 93.234375 
L 721 93.234375 
" style="fill: none; stroke: #ff7f0e; stroke-width: 4; stroke-linecap: square"/>
    </g>
    <g id="text_15">
     <!-- $p_2$ -->
     <g transform="translate(736.92 99.534375) scale(0.18 -0.18)">
      <use xlink:href="#DejaVuSans-Oblique-70"/>
      <use xlink:href="#DejaVuSans-32" transform="translate(63.476562 -16.40625) scale(0.7)"/>
     </g>
    </g>
    <g id="line2d_18">
     <path d="M 686.52 119.691562 
L 704.52 119.691562 
L 721 119.691562 
" style="fill: none; stroke: #2ca02c; stroke-width: 4; stroke-linecap: square"/>
    </g>
    <g id="text_16">
     <!-- $p_3$ -->
     <g transform="translate(736.92 125.991562) scale(0.18 -0.18)">
      <defs>
       <path id="DejaVuSans-33" d="M 2597 2516 
Q 3050 2419 3304 2112 
Q 3559 1806 3559 1356 
Q 3559 666 3084 287 
Q 2609 -91 1734 -91 
Q 1441 -91 1130 -33 
Q 819 25 488 141 
L 488 750 
Q 750 597 1062 519 
Q 1375 441 1716 441 
Q 2309 441 2620 675 
Q 2931 909 2931 1356 
Q 2931 1769 2642 2001 
Q 2353 2234 1838 2234 
L 1294 2234 
L 1294 2753 
L 1863 2753 
Q 2328 2753 2575 2939 
Q 2822 3125 2822 3475 
Q 2822 3834 2567 4026 
Q 2313 4219 1838 4219 
Q 1578 4219 1281 4162 
Q 984 4106 628 3988 
L 628 4550 
Q 988 4650 1302 4700 
Q 1616 4750 1894 4750 
Q 2613 4750 3031 4423 
Q 3450 4097 3450 3541 
Q 3450 3153 3228 2886 
Q 3006 2619 2597 2516 
z
" transform="scale(0.015625)"/>
      </defs>
      <use xlink:href="#DejaVuSans-Oblique-70"/>
      <use xlink:href="#DejaVuSans-33" transform="translate(63.476562 -16.40625) scale(0.7)"/>
     </g>
    </g>
    <g id="line2d_19">
     <path d="M 686.52 146.14875 
L 704.52 146.14875 
L 721 146.14875 
" style="fill: none; stroke: #d62728; stroke-width: 4; stroke-linecap: square"/>
    </g>
    <g id="text_17">
     <!-- $p_4$ -->
     <g transform="translate(736.92 152.44875) scale(0.18 -0.18)">
      <use xlink:href="#DejaVuSans-Oblique-70"/>
      <use xlink:href="#DejaVuSans-34" transform="translate(63.476562 -16.40625) scale(0.7)"/>
     </g>
    </g>
   </g>
  </g>
 </g>
 <defs>
  <clipPath id="pb1c6068b13">
   <rect x="90" y="43.2" width="558" height="277.2"/>
  </clipPath>
 </defs>
</svg>
