<?xml version="1.0" encoding="utf-8" standalone="no"?>
<!DOCTYPE svg PUBLIC "-//W3C//DTD SVG 1.1//EN"
  "http://www.w3.org/Graphics/SVG/1.1/DTD/svg11.dtd">
<svg xmlns:xlink="http://www.w3.org/1999/xlink" width="360pt" height="360pt" viewBox="0 0 360 360" xmlns="http://www.w3.org/2000/svg" version="1.1">
 <metadata>
  <rdf:RDF xmlns:dc="http://purl.org/dc/elements/1.1/" xmlns:cc="http://creativecommons.org/ns#" xmlns:rdf="http://www.w3.org/1999/02/22-rdf-syntax-ns#">
   <cc:Work>
    <dc:type rdf:resource="http://purl.org/dc/dcmitype/StillImage"/>
    <dc:date>2025-03-20T11:41:50.321051</dc:date>
    <dc:format>image/svg+xml</dc:format>
    <dc:creator>
     <cc:Agent>
      <dc:title>Matplotlib v3.8.4, https://matplotlib.org/</dc:title>
     </cc:Agent>
    </dc:creator>
   </cc:Work>
  </rdf:RDF>
 </metadata>
 <defs>
  <style type="text/css">*{stroke-linejoin: round; stroke-linecap: butt}</style>
 </defs>
 <g id="figure_1">
  <g id="patch_1">
   <path d="M 0 360 
L 360 360 
L 360 0 
L 0 0 
z
" style="fill: #ffffff"/>
  </g>
  <g id="axes_1">
   <g id="patch_2">
    <path d="M 53.98 160.17 
L 199.622468 160.17 
L 199.622468 8.6 
L 53.98 8.6 
z
" style="fill: #ffffff"/>
   </g>
   <g id="matplotlib.axis_1">
    <g id="xtick_1">
     <g id="line2d_1">
      <defs>
       <path id="md974da8ae0" d="M 0 0 
L 0 3.5 
" style="stroke: #000000; stroke-width: 0.8"/>
      </defs>
      <g>
       <use xlink:href="#md974da8ae0" x="95.592134" y="160.17" style="stroke: #000000; stroke-width: 0.8"/>
      </g>
     </g>
    </g>
    <g id="xtick_2">
     <g id="line2d_2">
      <g>
       <use xlink:href="#md974da8ae0" x="164.94569" y="160.17" style="stroke: #000000; stroke-width: 0.8"/>
      </g>
     </g>
    </g>
   </g>
   <g id="patch_3">
    <path d="M 53.98 160.17 
L 199.622468 160.17 
" style="fill: none; stroke: #000000; stroke-width: 0.8; stroke-linejoin: miter; stroke-linecap: square"/>
   </g>
   <g id="text_1">
    <!-- r = 1.00  -->
    <g transform="translate(68.544247 23.757) scale(0.1 -0.1)">
     <defs>
      <path id="DejaVuSans-72" d="M 2631 2963 
Q 2534 3019 2420 3045 
Q 2306 3072 2169 3072 
Q 1681 3072 1420 2755 
Q 1159 2438 1159 1844 
L 1159 0 
L 581 0 
L 581 3500 
L 1159 3500 
L 1159 2956 
Q 1341 3275 1631 3429 
Q 1922 3584 2338 3584 
Q 2397 3584 2469 3576 
Q 2541 3569 2628 3553 
L 2631 2963 
z
" transform="scale(0.015625)"/>
      <path id="DejaVuSans-20" transform="scale(0.015625)"/>
      <path id="DejaVuSans-3d" d="M 678 2906 
L 4684 2906 
L 4684 2381 
L 678 2381 
L 678 2906 
z
M 678 1631 
L 4684 1631 
L 4684 1100 
L 678 1100 
L 678 1631 
z
" transform="scale(0.015625)"/>
      <path id="DejaVuSans-31" d="M 794 531 
L 1825 531 
L 1825 4091 
L 703 3866 
L 703 4441 
L 1819 4666 
L 2450 4666 
L 2450 531 
L 3481 531 
L 3481 0 
L 794 0 
L 794 531 
z
" transform="scale(0.015625)"/>
      <path id="DejaVuSans-2e" d="M 684 794 
L 1344 794 
L 1344 0 
L 684 0 
L 684 794 
z
" transform="scale(0.015625)"/>
      <path id="DejaVuSans-30" d="M 2034 4250 
Q 1547 4250 1301 3770 
Q 1056 3291 1056 2328 
Q 1056 1369 1301 889 
Q 1547 409 2034 409 
Q 2525 409 2770 889 
Q 3016 1369 3016 2328 
Q 3016 3291 2770 3770 
Q 2525 4250 2034 4250 
z
M 2034 4750 
Q 2819 4750 3233 4129 
Q 3647 3509 3647 2328 
Q 3647 1150 3233 529 
Q 2819 -91 2034 -91 
Q 1250 -91 836 529 
Q 422 1150 422 2328 
Q 422 3509 836 4129 
Q 1250 4750 2034 4750 
z
" transform="scale(0.015625)"/>
     </defs>
     <use xlink:href="#DejaVuSans-72"/>
     <use xlink:href="#DejaVuSans-20" x="41.113281"/>
     <use xlink:href="#DejaVuSans-3d" x="72.900391"/>
     <use xlink:href="#DejaVuSans-20" x="156.689453"/>
     <use xlink:href="#DejaVuSans-31" x="188.476562"/>
     <use xlink:href="#DejaVuSans-2e" x="252.099609"/>
     <use xlink:href="#DejaVuSans-30" x="283.886719"/>
     <use xlink:href="#DejaVuSans-30" x="347.509766"/>
     <use xlink:href="#DejaVuSans-20" x="411.132812"/>
    </g>
   </g>
   <g id="text_2">
    <!-- p = 0.000 -->
    <g transform="translate(126.801234 23.757) scale(0.1 -0.1)">
     <defs>
      <path id="DejaVuSans-70" d="M 1159 525 
L 1159 -1331 
L 581 -1331 
L 581 3500 
L 1159 3500 
L 1159 2969 
Q 1341 3281 1617 3432 
Q 1894 3584 2278 3584 
Q 2916 3584 3314 3078 
Q 3713 2572 3713 1747 
Q 3713 922 3314 415 
Q 2916 -91 2278 -91 
Q 1894 -91 1617 61 
Q 1341 213 1159 525 
z
M 3116 1747 
Q 3116 2381 2855 2742 
Q 2594 3103 2138 3103 
Q 1681 3103 1420 2742 
Q 1159 2381 1159 1747 
Q 1159 1113 1420 752 
Q 1681 391 2138 391 
Q 2594 391 2855 752 
Q 3116 1113 3116 1747 
z
" transform="scale(0.015625)"/>
     </defs>
     <use xlink:href="#DejaVuSans-70"/>
     <use xlink:href="#DejaVuSans-20" x="63.476562"/>
     <use xlink:href="#DejaVuSans-3d" x="95.263672"/>
     <use xlink:href="#DejaVuSans-20" x="179.052734"/>
     <use xlink:href="#DejaVuSans-30" x="210.839844"/>
     <use xlink:href="#DejaVuSans-2e" x="274.462891"/>
     <use xlink:href="#DejaVuSans-30" x="306.25"/>
     <use xlink:href="#DejaVuSans-30" x="369.873047"/>
     <use xlink:href="#DejaVuSans-30" x="433.496094"/>
    </g>
   </g>
  </g>
  <g id="axes_2">
   <g id="patch_4">
    <path d="M 53.98 320.24 
L 199.622468 320.24 
L 199.622468 168.67 
L 53.98 168.67 
z
" style="fill: #ffffff"/>
   </g>
   <g id="PathCollection_1">
    <defs>
     <path id="m013d85f023" d="M 0 3 
C 0.795609 3 1.55874 2.683901 2.12132 2.12132 
C 2.683901 1.55874 3 0.795609 3 0 
C 3 -0.795609 2.683901 -1.55874 2.12132 -2.12132 
C 1.55874 -2.683901 0.795609 -3 0 -3 
C -0.795609 -3 -1.55874 -2.683901 -2.12132 -2.12132 
C -2.683901 -1.55874 -3 -0.795609 -3 0 
C -3 0.795609 -2.683901 1.55874 -2.12132 2.12132 
C -1.55874 2.683901 -0.795609 3 0 3 
z
" style="stroke: #1f77b4; stroke-opacity: 0.8"/>
    </defs>
    <g clip-path="url(#p4b703548af)">
     <use xlink:href="#m013d85f023" x="90.005707" y="186.513155" style="fill: #1f77b4; fill-opacity: 0.8; stroke: #1f77b4; stroke-opacity: 0.8"/>
     <use xlink:href="#m013d85f023" x="87.458979" y="269.100603" style="fill: #1f77b4; fill-opacity: 0.8; stroke: #1f77b4; stroke-opacity: 0.8"/>
     <use xlink:href="#m013d85f023" x="93.490511" y="192.510014" style="fill: #1f77b4; fill-opacity: 0.8; stroke: #1f77b4; stroke-opacity: 0.8"/>
     <use xlink:href="#m013d85f023" x="94.595196" y="219.450563" style="fill: #1f77b4; fill-opacity: 0.8; stroke: #1f77b4; stroke-opacity: 0.8"/>
     <use xlink:href="#m013d85f023" x="93.026306" y="244.719382" style="fill: #1f77b4; fill-opacity: 0.8; stroke: #1f77b4; stroke-opacity: 0.8"/>
     <use xlink:href="#m013d85f023" x="84.143184" y="199.93168" style="fill: #1f77b4; fill-opacity: 0.8; stroke: #1f77b4; stroke-opacity: 0.8"/>
     <use xlink:href="#m013d85f023" x="103.352909" y="284.896806" style="fill: #1f77b4; fill-opacity: 0.8; stroke: #1f77b4; stroke-opacity: 0.8"/>
     <use xlink:href="#m013d85f023" x="104.720377" y="288.532186" style="fill: #1f77b4; fill-opacity: 0.8; stroke: #1f77b4; stroke-opacity: 0.8"/>
     <use xlink:href="#m013d85f023" x="96.828377" y="250.448283" style="fill: #1f77b4; fill-opacity: 0.8; stroke: #1f77b4; stroke-opacity: 0.8"/>
     <use xlink:href="#m013d85f023" x="81.368932" y="165.428027" style="fill: #1f77b4; fill-opacity: 0.8; stroke: #1f77b4; stroke-opacity: 0.8"/>
     <use xlink:href="#m013d85f023" x="95.805158" y="235.427225" style="fill: #1f77b4; fill-opacity: 0.8; stroke: #1f77b4; stroke-opacity: 0.8"/>
     <use xlink:href="#m013d85f023" x="112.164931" y="242.814632" style="fill: #1f77b4; fill-opacity: 0.8; stroke: #1f77b4; stroke-opacity: 0.8"/>
     <use xlink:href="#m013d85f023" x="87.403462" y="192.904942" style="fill: #1f77b4; fill-opacity: 0.8; stroke: #1f77b4; stroke-opacity: 0.8"/>
     <use xlink:href="#m013d85f023" x="90.24914" y="204.282905" style="fill: #1f77b4; fill-opacity: 0.8; stroke: #1f77b4; stroke-opacity: 0.8"/>
     <use xlink:href="#m013d85f023" x="103.435691" y="268.255958" style="fill: #1f77b4; fill-opacity: 0.8; stroke: #1f77b4; stroke-opacity: 0.8"/>
     <use xlink:href="#m013d85f023" x="69.181739" y="164.441496" style="fill: #1f77b4; fill-opacity: 0.8; stroke: #1f77b4; stroke-opacity: 0.8"/>
     <use xlink:href="#m013d85f023" x="71.844985" y="264.679632" style="fill: #1f77b4; fill-opacity: 0.8; stroke: #1f77b4; stroke-opacity: 0.8"/>
     <use xlink:href="#m013d85f023" x="112.88628" y="228.862868" style="fill: #1f77b4; fill-opacity: 0.8; stroke: #1f77b4; stroke-opacity: 0.8"/>
     <use xlink:href="#m013d85f023" x="93.666088" y="238.458951" style="fill: #1f77b4; fill-opacity: 0.8; stroke: #1f77b4; stroke-opacity: 0.8"/>
     <use xlink:href="#m013d85f023" x="65.477385" y="181.966347" style="fill: #1f77b4; fill-opacity: 0.8; stroke: #1f77b4; stroke-opacity: 0.8"/>
     <use xlink:href="#m013d85f023" x="130.67387" y="216.36602" style="fill: #1f77b4; fill-opacity: 0.8; stroke: #1f77b4; stroke-opacity: 0.8"/>
     <use xlink:href="#m013d85f023" x="99.090324" y="240.642588" style="fill: #1f77b4; fill-opacity: 0.8; stroke: #1f77b4; stroke-opacity: 0.8"/>
     <use xlink:href="#m013d85f023" x="91.403149" y="274.849456" style="fill: #1f77b4; fill-opacity: 0.8; stroke: #1f77b4; stroke-opacity: 0.8"/>
     <use xlink:href="#m013d85f023" x="105.718488" y="239.797773" style="fill: #1f77b4; fill-opacity: 0.8; stroke: #1f77b4; stroke-opacity: 0.8"/>
    </g>
   </g>
   <g id="PolyCollection_1">
    <path d="M 65.477385 157.803906 
L 65.477385 237.217004 
L 66.135936 237.415232 
L 66.794486 237.613459 
L 67.453036 237.811687 
L 68.111587 238.009914 
L 68.770137 238.208142 
L 69.428688 238.406369 
L 70.087238 238.460678 
L 70.745788 238.477226 
L 71.404339 238.492945 
L 72.062889 238.501678 
L 72.721439 238.510412 
L 73.37999 238.519145 
L 74.03854 238.527878 
L 74.69709 238.436015 
L 75.355641 238.329468 
L 76.014191 238.406497 
L 76.672741 238.503875 
L 77.331292 238.588536 
L 77.989842 238.682096 
L 78.648392 238.775656 
L 79.306943 238.869216 
L 79.965493 238.962776 
L 80.624043 239.056337 
L 81.282594 239.149897 
L 81.941144 239.23439 
L 82.599695 239.295127 
L 83.258245 239.418118 
L 83.916795 239.568057 
L 84.575346 239.701799 
L 85.233896 239.819969 
L 85.892446 239.812243 
L 86.550997 239.946781 
L 87.209547 240.243975 
L 87.868097 240.563874 
L 88.526648 241.078029 
L 89.185198 241.216472 
L 89.843748 241.353311 
L 90.502299 241.306385 
L 91.160849 241.583296 
L 91.819399 241.538087 
L 92.47795 241.941641 
L 93.1365 242.413968 
L 93.795051 243.066595 
L 94.453601 243.756449 
L 95.112151 244.373046 
L 95.770702 245.270007 
L 96.429252 246.059089 
L 97.087802 246.844767 
L 97.746353 247.633783 
L 98.404903 248.71281 
L 99.063453 249.755019 
L 99.722004 251.149488 
L 100.380554 251.749457 
L 101.039104 253.096268 
L 101.697655 254.691347 
L 102.356205 256.294519 
L 103.014755 257.578317 
L 103.673306 259.329604 
L 104.331856 260.599471 
L 104.990406 261.776785 
L 105.648957 263.290706 
L 106.307507 264.734544 
L 106.966058 265.974533 
L 107.624608 267.712207 
L 108.283158 269.416009 
L 108.941709 271.009794 
L 109.600259 272.602889 
L 110.258809 274.25101 
L 110.91736 275.930013 
L 111.57591 277.673751 
L 112.23446 278.998368 
L 112.893011 280.629267 
L 113.551561 282.255834 
L 114.210111 283.840809 
L 114.868662 285.425785 
L 115.527212 287.006792 
L 116.185762 288.635046 
L 116.844313 290.29477 
L 117.502863 291.746526 
L 118.161414 293.354549 
L 118.819964 294.991391 
L 119.478514 296.628234 
L 120.137065 298.265076 
L 120.795615 299.901919 
L 121.454165 301.538761 
L 122.112716 303.171456 
L 122.771266 304.802803 
L 123.429816 306.43415 
L 124.088367 308.065496 
L 124.746917 309.696843 
L 125.405467 311.328189 
L 126.064018 312.949437 
L 126.722568 314.453294 
L 127.381118 315.95715 
L 128.039669 317.461006 
L 128.698219 318.964863 
L 129.356769 320.465505 
L 130.01532 322.079299 
L 130.67387 323.762593 
L 130.67387 234.493231 
L 130.67387 234.493231 
L 130.01532 234.439551 
L 129.356769 234.208595 
L 128.698219 234.108636 
L 128.039669 233.95874 
L 127.381118 234.079233 
L 126.722568 233.966528 
L 126.064018 233.74891 
L 125.405467 233.531292 
L 124.746917 233.313673 
L 124.088367 233.012909 
L 123.429816 232.881281 
L 122.771266 232.765852 
L 122.112716 232.615931 
L 121.454165 232.626611 
L 120.795615 232.43554 
L 120.137065 232.322001 
L 119.478514 232.057544 
L 118.819964 231.900126 
L 118.161414 231.841526 
L 117.502863 231.579739 
L 116.844313 231.379281 
L 116.185762 231.103116 
L 115.527212 230.899115 
L 114.868662 230.519243 
L 114.210111 230.250618 
L 113.551561 229.896211 
L 112.893011 229.716394 
L 112.23446 229.455021 
L 111.57591 229.22693 
L 110.91736 229.098663 
L 110.258809 228.805901 
L 109.600259 228.53271 
L 108.941709 228.236498 
L 108.283158 227.906779 
L 107.624608 227.65585 
L 106.966058 227.387892 
L 106.307507 227.10769 
L 105.648957 226.670127 
L 104.990406 225.870412 
L 104.331856 225.534431 
L 103.673306 225.123718 
L 103.014755 224.56541 
L 102.356205 224.198143 
L 101.697655 223.848062 
L 101.039104 223.358263 
L 100.380554 222.555816 
L 99.722004 221.936726 
L 99.063453 221.188964 
L 98.404903 220.524009 
L 97.746353 219.973762 
L 97.087802 219.569491 
L 96.429252 218.921316 
L 95.770702 218.220575 
L 95.112151 217.562258 
L 94.453601 216.853552 
L 93.795051 216.09685 
L 93.1365 215.415416 
L 92.47795 214.714434 
L 91.819399 213.675153 
L 91.160849 212.732257 
L 90.502299 212.027414 
L 89.843748 210.910058 
L 89.185198 209.686113 
L 88.526648 208.470312 
L 87.868097 207.248707 
L 87.209547 206.180848 
L 86.550997 204.819572 
L 85.892446 203.677303 
L 85.233896 202.544025 
L 84.575346 201.258 
L 83.916795 200.035855 
L 83.258245 198.79521 
L 82.599695 197.235276 
L 81.941144 195.684796 
L 81.282594 194.227425 
L 80.624043 193.132925 
L 79.965493 191.619805 
L 79.306943 190.380388 
L 78.648392 189.174425 
L 77.989842 188.023428 
L 77.331292 186.461071 
L 76.672741 185.025628 
L 76.014191 183.490213 
L 75.355641 181.872658 
L 74.69709 180.182694 
L 74.03854 178.489238 
L 73.37999 176.805344 
L 72.721439 175.271406 
L 72.062889 173.770805 
L 71.404339 171.950263 
L 70.745788 170.537067 
L 70.087238 168.954692 
L 69.428688 167.513567 
L 68.770137 166.116672 
L 68.111587 164.179454 
L 67.453036 162.559945 
L 66.794486 161.012734 
L 66.135936 159.465523 
L 65.477385 157.803906 
z
" clip-path="url(#p4b703548af)" style="fill: #008000; fill-opacity: 0.15"/>
   </g>
   <g id="matplotlib.axis_2">
    <g id="xtick_3">
     <g id="line2d_3">
      <g>
       <use xlink:href="#md974da8ae0" x="95.592134" y="320.24" style="stroke: #000000; stroke-width: 0.8"/>
      </g>
     </g>
     <g id="text_3">
      <!-- 0 -->
      <g transform="translate(92.410884 334.838438) scale(0.1 -0.1)">
       <use xlink:href="#DejaVuSans-30"/>
      </g>
     </g>
    </g>
    <g id="xtick_4">
     <g id="line2d_4">
      <g>
       <use xlink:href="#md974da8ae0" x="164.94569" y="320.24" style="stroke: #000000; stroke-width: 0.8"/>
      </g>
     </g>
     <g id="text_4">
      <!-- 1 -->
      <g transform="translate(161.76444 334.838438) scale(0.1 -0.1)">
       <use xlink:href="#DejaVuSans-31"/>
      </g>
     </g>
    </g>
    <g id="text_5">
     <!-- mf score -->
     <g transform="translate(105.14889 348.516563) scale(0.1 -0.1)">
      <defs>
       <path id="DejaVuSans-6d" d="M 3328 2828 
Q 3544 3216 3844 3400 
Q 4144 3584 4550 3584 
Q 5097 3584 5394 3201 
Q 5691 2819 5691 2113 
L 5691 0 
L 5113 0 
L 5113 2094 
Q 5113 2597 4934 2840 
Q 4756 3084 4391 3084 
Q 3944 3084 3684 2787 
Q 3425 2491 3425 1978 
L 3425 0 
L 2847 0 
L 2847 2094 
Q 2847 2600 2669 2842 
Q 2491 3084 2119 3084 
Q 1678 3084 1418 2786 
Q 1159 2488 1159 1978 
L 1159 0 
L 581 0 
L 581 3500 
L 1159 3500 
L 1159 2956 
Q 1356 3278 1631 3431 
Q 1906 3584 2284 3584 
Q 2666 3584 2933 3390 
Q 3200 3197 3328 2828 
z
" transform="scale(0.015625)"/>
       <path id="DejaVuSans-66" d="M 2375 4863 
L 2375 4384 
L 1825 4384 
Q 1516 4384 1395 4259 
Q 1275 4134 1275 3809 
L 1275 3500 
L 2222 3500 
L 2222 3053 
L 1275 3053 
L 1275 0 
L 697 0 
L 697 3053 
L 147 3053 
L 147 3500 
L 697 3500 
L 697 3744 
Q 697 4328 969 4595 
Q 1241 4863 1831 4863 
L 2375 4863 
z
" transform="scale(0.015625)"/>
       <path id="DejaVuSans-73" d="M 2834 3397 
L 2834 2853 
Q 2591 2978 2328 3040 
Q 2066 3103 1784 3103 
Q 1356 3103 1142 2972 
Q 928 2841 928 2578 
Q 928 2378 1081 2264 
Q 1234 2150 1697 2047 
L 1894 2003 
Q 2506 1872 2764 1633 
Q 3022 1394 3022 966 
Q 3022 478 2636 193 
Q 2250 -91 1575 -91 
Q 1294 -91 989 -36 
Q 684 19 347 128 
L 347 722 
Q 666 556 975 473 
Q 1284 391 1588 391 
Q 1994 391 2212 530 
Q 2431 669 2431 922 
Q 2431 1156 2273 1281 
Q 2116 1406 1581 1522 
L 1381 1569 
Q 847 1681 609 1914 
Q 372 2147 372 2553 
Q 372 3047 722 3315 
Q 1072 3584 1716 3584 
Q 2034 3584 2315 3537 
Q 2597 3491 2834 3397 
z
" transform="scale(0.015625)"/>
       <path id="DejaVuSans-63" d="M 3122 3366 
L 3122 2828 
Q 2878 2963 2633 3030 
Q 2388 3097 2138 3097 
Q 1578 3097 1268 2742 
Q 959 2388 959 1747 
Q 959 1106 1268 751 
Q 1578 397 2138 397 
Q 2388 397 2633 464 
Q 2878 531 3122 666 
L 3122 134 
Q 2881 22 2623 -34 
Q 2366 -91 2075 -91 
Q 1284 -91 818 406 
Q 353 903 353 1747 
Q 353 2603 823 3093 
Q 1294 3584 2113 3584 
Q 2378 3584 2631 3529 
Q 2884 3475 3122 3366 
z
" transform="scale(0.015625)"/>
       <path id="DejaVuSans-6f" d="M 1959 3097 
Q 1497 3097 1228 2736 
Q 959 2375 959 1747 
Q 959 1119 1226 758 
Q 1494 397 1959 397 
Q 2419 397 2687 759 
Q 2956 1122 2956 1747 
Q 2956 2369 2687 2733 
Q 2419 3097 1959 3097 
z
M 1959 3584 
Q 2709 3584 3137 3096 
Q 3566 2609 3566 1747 
Q 3566 888 3137 398 
Q 2709 -91 1959 -91 
Q 1206 -91 779 398 
Q 353 888 353 1747 
Q 353 2609 779 3096 
Q 1206 3584 1959 3584 
z
" transform="scale(0.015625)"/>
       <path id="DejaVuSans-65" d="M 3597 1894 
L 3597 1613 
L 953 1613 
Q 991 1019 1311 708 
Q 1631 397 2203 397 
Q 2534 397 2845 478 
Q 3156 559 3463 722 
L 3463 178 
Q 3153 47 2828 -22 
Q 2503 -91 2169 -91 
Q 1331 -91 842 396 
Q 353 884 353 1716 
Q 353 2575 817 3079 
Q 1281 3584 2069 3584 
Q 2775 3584 3186 3129 
Q 3597 2675 3597 1894 
z
M 3022 2063 
Q 3016 2534 2758 2815 
Q 2500 3097 2075 3097 
Q 1594 3097 1305 2825 
Q 1016 2553 972 2059 
L 3022 2063 
z
" transform="scale(0.015625)"/>
      </defs>
      <use xlink:href="#DejaVuSans-6d"/>
      <use xlink:href="#DejaVuSans-66" x="97.412109"/>
      <use xlink:href="#DejaVuSans-20" x="132.617188"/>
      <use xlink:href="#DejaVuSans-73" x="164.404297"/>
      <use xlink:href="#DejaVuSans-63" x="216.503906"/>
      <use xlink:href="#DejaVuSans-6f" x="271.484375"/>
      <use xlink:href="#DejaVuSans-72" x="332.666016"/>
      <use xlink:href="#DejaVuSans-65" x="371.529297"/>
     </g>
    </g>
   </g>
   <g id="matplotlib.axis_3">
    <g id="ytick_1">
     <g id="line2d_5">
      <defs>
       <path id="m5df0a08932" d="M 0 0 
L -3.5 0 
" style="stroke: #000000; stroke-width: 0.8"/>
      </defs>
      <g>
       <use xlink:href="#m5df0a08932" x="53.98" y="313.022381" style="stroke: #000000; stroke-width: 0.8"/>
      </g>
     </g>
     <g id="text_6">
      <!-- −0.5 -->
      <g transform="translate(22.697188 316.8216) scale(0.1 -0.1)">
       <defs>
        <path id="DejaVuSans-2212" d="M 678 2272 
L 4684 2272 
L 4684 1741 
L 678 1741 
L 678 2272 
z
" transform="scale(0.015625)"/>
        <path id="DejaVuSans-35" d="M 691 4666 
L 3169 4666 
L 3169 4134 
L 1269 4134 
L 1269 2991 
Q 1406 3038 1543 3061 
Q 1681 3084 1819 3084 
Q 2600 3084 3056 2656 
Q 3513 2228 3513 1497 
Q 3513 744 3044 326 
Q 2575 -91 1722 -91 
Q 1428 -91 1123 -41 
Q 819 9 494 109 
L 494 744 
Q 775 591 1075 516 
Q 1375 441 1709 441 
Q 2250 441 2565 725 
Q 2881 1009 2881 1497 
Q 2881 1984 2565 2268 
Q 2250 2553 1709 2553 
Q 1456 2553 1204 2497 
Q 953 2441 691 2322 
L 691 4666 
z
" transform="scale(0.015625)"/>
       </defs>
       <use xlink:href="#DejaVuSans-2212"/>
       <use xlink:href="#DejaVuSans-30" x="83.789062"/>
       <use xlink:href="#DejaVuSans-2e" x="147.412109"/>
       <use xlink:href="#DejaVuSans-35" x="179.199219"/>
      </g>
     </g>
    </g>
    <g id="ytick_2">
     <g id="line2d_6">
      <g>
       <use xlink:href="#m5df0a08932" x="53.98" y="276.934286" style="stroke: #000000; stroke-width: 0.8"/>
      </g>
     </g>
     <g id="text_7">
      <!-- 0.0 -->
      <g transform="translate(31.076875 280.733504) scale(0.1 -0.1)">
       <use xlink:href="#DejaVuSans-30"/>
       <use xlink:href="#DejaVuSans-2e" x="63.623047"/>
       <use xlink:href="#DejaVuSans-30" x="95.410156"/>
      </g>
     </g>
    </g>
    <g id="ytick_3">
     <g id="line2d_7">
      <g>
       <use xlink:href="#m5df0a08932" x="53.98" y="240.84619" style="stroke: #000000; stroke-width: 0.8"/>
      </g>
     </g>
     <g id="text_8">
      <!-- 0.5 -->
      <g transform="translate(31.076875 244.645409) scale(0.1 -0.1)">
       <use xlink:href="#DejaVuSans-30"/>
       <use xlink:href="#DejaVuSans-2e" x="63.623047"/>
       <use xlink:href="#DejaVuSans-35" x="95.410156"/>
      </g>
     </g>
    </g>
    <g id="ytick_4">
     <g id="line2d_8">
      <g>
       <use xlink:href="#m5df0a08932" x="53.98" y="204.758095" style="stroke: #000000; stroke-width: 0.8"/>
      </g>
     </g>
     <g id="text_9">
      <!-- 1.0 -->
      <g transform="translate(31.076875 208.557314) scale(0.1 -0.1)">
       <use xlink:href="#DejaVuSans-31"/>
       <use xlink:href="#DejaVuSans-2e" x="63.623047"/>
       <use xlink:href="#DejaVuSans-30" x="95.410156"/>
      </g>
     </g>
    </g>
    <g id="ytick_5">
     <g id="line2d_9">
      <g>
       <use xlink:href="#m5df0a08932" x="53.98" y="168.67" style="stroke: #000000; stroke-width: 0.8"/>
      </g>
     </g>
     <g id="text_10">
      <!-- 1.5 -->
      <g transform="translate(31.076875 172.469219) scale(0.1 -0.1)">
       <use xlink:href="#DejaVuSans-31"/>
       <use xlink:href="#DejaVuSans-2e" x="63.623047"/>
       <use xlink:href="#DejaVuSans-35" x="95.410156"/>
      </g>
     </g>
    </g>
    <g id="text_11">
     <!-- mb score -->
     <g transform="translate(16.6175 267.521406) rotate(-90) scale(0.1 -0.1)">
      <defs>
       <path id="DejaVuSans-62" d="M 3116 1747 
Q 3116 2381 2855 2742 
Q 2594 3103 2138 3103 
Q 1681 3103 1420 2742 
Q 1159 2381 1159 1747 
Q 1159 1113 1420 752 
Q 1681 391 2138 391 
Q 2594 391 2855 752 
Q 3116 1113 3116 1747 
z
M 1159 2969 
Q 1341 3281 1617 3432 
Q 1894 3584 2278 3584 
Q 2916 3584 3314 3078 
Q 3713 2572 3713 1747 
Q 3713 922 3314 415 
Q 2916 -91 2278 -91 
Q 1894 -91 1617 61 
Q 1341 213 1159 525 
L 1159 0 
L 581 0 
L 581 4863 
L 1159 4863 
L 1159 2969 
z
" transform="scale(0.015625)"/>
      </defs>
      <use xlink:href="#DejaVuSans-6d"/>
      <use xlink:href="#DejaVuSans-62" x="97.412109"/>
      <use xlink:href="#DejaVuSans-20" x="160.888672"/>
      <use xlink:href="#DejaVuSans-73" x="192.675781"/>
      <use xlink:href="#DejaVuSans-63" x="244.775391"/>
      <use xlink:href="#DejaVuSans-6f" x="299.755859"/>
      <use xlink:href="#DejaVuSans-72" x="360.9375"/>
      <use xlink:href="#DejaVuSans-65" x="399.800781"/>
     </g>
    </g>
   </g>
   <g id="line2d_10">
    <path d="M 65.477385 199.57913 
L 66.135936 200.255761 
L 66.794486 200.932391 
L 67.453036 201.609022 
L 68.111587 202.285652 
L 68.770137 202.962283 
L 69.428688 203.638913 
L 70.087238 204.315544 
L 70.745788 204.992174 
L 71.404339 205.668805 
L 72.062889 206.345435 
L 72.721439 207.022066 
L 73.37999 207.698696 
L 74.03854 208.375327 
L 74.69709 209.051957 
L 75.355641 209.728588 
L 76.014191 210.405219 
L 76.672741 211.081849 
L 77.331292 211.75848 
L 77.989842 212.43511 
L 78.648392 213.111741 
L 79.306943 213.788371 
L 79.965493 214.465002 
L 80.624043 215.141632 
L 81.282594 215.818263 
L 81.941144 216.494893 
L 82.599695 217.171524 
L 83.258245 217.848154 
L 83.916795 218.524785 
L 84.575346 219.201415 
L 85.233896 219.878046 
L 85.892446 220.554677 
L 86.550997 221.231307 
L 87.209547 221.907938 
L 87.868097 222.584568 
L 88.526648 223.261199 
L 89.185198 223.937829 
L 89.843748 224.61446 
L 90.502299 225.29109 
L 91.160849 225.967721 
L 91.819399 226.644351 
L 92.47795 227.320982 
L 93.1365 227.997612 
L 93.795051 228.674243 
L 94.453601 229.350873 
L 95.112151 230.027504 
L 95.770702 230.704134 
L 96.429252 231.380765 
L 97.087802 232.057396 
L 97.746353 232.734026 
L 98.404903 233.410657 
L 99.063453 234.087287 
L 99.722004 234.763918 
L 100.380554 235.440548 
L 101.039104 236.117179 
L 101.697655 236.793809 
L 102.356205 237.47044 
L 103.014755 238.14707 
L 103.673306 238.823701 
L 104.331856 239.500331 
L 104.990406 240.176962 
L 105.648957 240.853592 
L 106.307507 241.530223 
L 106.966058 242.206854 
L 107.624608 242.883484 
L 108.283158 243.560115 
L 108.941709 244.236745 
L 109.600259 244.913376 
L 110.258809 245.590006 
L 110.91736 246.266637 
L 111.57591 246.943267 
L 112.23446 247.619898 
L 112.893011 248.296528 
L 113.551561 248.973159 
L 114.210111 249.649789 
L 114.868662 250.32642 
L 115.527212 251.00305 
L 116.185762 251.679681 
L 116.844313 252.356312 
L 117.502863 253.032942 
L 118.161414 253.709573 
L 118.819964 254.386203 
L 119.478514 255.062834 
L 120.137065 255.739464 
L 120.795615 256.416095 
L 121.454165 257.092725 
L 122.112716 257.769356 
L 122.771266 258.445986 
L 123.429816 259.122617 
L 124.088367 259.799247 
L 124.746917 260.475878 
L 125.405467 261.152508 
L 126.064018 261.829139 
L 126.722568 262.50577 
L 127.381118 263.1824 
L 128.039669 263.859031 
L 128.698219 264.535661 
L 129.356769 265.212292 
L 130.01532 265.888922 
L 130.67387 266.565553 
" clip-path="url(#p4b703548af)" style="fill: none; stroke: #008000; stroke-opacity: 0.6; stroke-width: 2.25; stroke-linecap: square"/>
   </g>
   <g id="patch_5">
    <path d="M 53.98 320.24 
L 53.98 168.67 
" style="fill: none; stroke: #000000; stroke-width: 0.8; stroke-linejoin: miter; stroke-linecap: square"/>
   </g>
   <g id="patch_6">
    <path d="M 53.98 320.24 
L 199.622468 320.24 
" style="fill: none; stroke: #000000; stroke-width: 0.8; stroke-linejoin: miter; stroke-linecap: square"/>
   </g>
   <g id="text_12">
    <!-- r = -0.40  -->
    <g transform="translate(68.544247 183.827) scale(0.1 -0.1)">
     <defs>
      <path id="DejaVuSans-2d" d="M 313 2009 
L 1997 2009 
L 1997 1497 
L 313 1497 
L 313 2009 
z
" transform="scale(0.015625)"/>
      <path id="DejaVuSans-34" d="M 2419 4116 
L 825 1625 
L 2419 1625 
L 2419 4116 
z
M 2253 4666 
L 3047 4666 
L 3047 1625 
L 3713 1625 
L 3713 1100 
L 3047 1100 
L 3047 0 
L 2419 0 
L 2419 1100 
L 313 1100 
L 313 1709 
L 2253 4666 
z
" transform="scale(0.015625)"/>
     </defs>
     <use xlink:href="#DejaVuSans-72"/>
     <use xlink:href="#DejaVuSans-20" x="41.113281"/>
     <use xlink:href="#DejaVuSans-3d" x="72.900391"/>
     <use xlink:href="#DejaVuSans-20" x="156.689453"/>
     <use xlink:href="#DejaVuSans-2d" x="188.476562"/>
     <use xlink:href="#DejaVuSans-30" x="224.560547"/>
     <use xlink:href="#DejaVuSans-2e" x="288.183594"/>
     <use xlink:href="#DejaVuSans-34" x="319.970703"/>
     <use xlink:href="#DejaVuSans-30" x="383.59375"/>
     <use xlink:href="#DejaVuSans-20" x="447.216797"/>
    </g>
   </g>
   <g id="text_13">
    <!-- p = 0.050 -->
    <g transform="translate(126.801234 183.827) scale(0.1 -0.1)">
     <use xlink:href="#DejaVuSans-70"/>
     <use xlink:href="#DejaVuSans-20" x="63.476562"/>
     <use xlink:href="#DejaVuSans-3d" x="95.263672"/>
     <use xlink:href="#DejaVuSans-20" x="179.052734"/>
     <use xlink:href="#DejaVuSans-30" x="210.839844"/>
     <use xlink:href="#DejaVuSans-2e" x="274.462891"/>
     <use xlink:href="#DejaVuSans-30" x="306.25"/>
     <use xlink:href="#DejaVuSans-35" x="369.873047"/>
     <use xlink:href="#DejaVuSans-30" x="433.496094"/>
    </g>
   </g>
  </g>
  <g id="axes_3">
   <g id="patch_7">
    <path d="M 205.757532 320.24 
L 351.4 320.24 
L 351.4 168.67 
L 205.757532 168.67 
z
" style="fill: #ffffff"/>
   </g>
   <g id="matplotlib.axis_4">
    <g id="xtick_5">
     <g id="line2d_11">
      <g>
       <use xlink:href="#md974da8ae0" x="247.369666" y="320.24" style="stroke: #000000; stroke-width: 0.8"/>
      </g>
     </g>
     <g id="text_14">
      <!-- 0 -->
      <g transform="translate(244.188416 334.838438) scale(0.1 -0.1)">
       <use xlink:href="#DejaVuSans-30"/>
      </g>
     </g>
    </g>
    <g id="xtick_6">
     <g id="line2d_12">
      <g>
       <use xlink:href="#md974da8ae0" x="316.723222" y="320.24" style="stroke: #000000; stroke-width: 0.8"/>
      </g>
     </g>
     <g id="text_15">
      <!-- 1 -->
      <g transform="translate(313.541972 334.838438) scale(0.1 -0.1)">
       <use xlink:href="#DejaVuSans-31"/>
      </g>
     </g>
    </g>
    <g id="text_16">
     <!-- mb score -->
     <g transform="translate(255.51236 348.516563) scale(0.1 -0.1)">
      <use xlink:href="#DejaVuSans-6d"/>
      <use xlink:href="#DejaVuSans-62" x="97.412109"/>
      <use xlink:href="#DejaVuSans-20" x="160.888672"/>
      <use xlink:href="#DejaVuSans-73" x="192.675781"/>
      <use xlink:href="#DejaVuSans-63" x="244.775391"/>
      <use xlink:href="#DejaVuSans-6f" x="299.755859"/>
      <use xlink:href="#DejaVuSans-72" x="360.9375"/>
      <use xlink:href="#DejaVuSans-65" x="399.800781"/>
     </g>
    </g>
   </g>
   <g id="patch_8">
    <path d="M 205.757532 320.24 
L 351.4 320.24 
" style="fill: none; stroke: #000000; stroke-width: 0.8; stroke-linejoin: miter; stroke-linecap: square"/>
   </g>
   <g id="text_17">
    <!-- r = 1.00  -->
    <g transform="translate(220.321779 183.827) scale(0.1 -0.1)">
     <use xlink:href="#DejaVuSans-72"/>
     <use xlink:href="#DejaVuSans-20" x="41.113281"/>
     <use xlink:href="#DejaVuSans-3d" x="72.900391"/>
     <use xlink:href="#DejaVuSans-20" x="156.689453"/>
     <use xlink:href="#DejaVuSans-31" x="188.476562"/>
     <use xlink:href="#DejaVuSans-2e" x="252.099609"/>
     <use xlink:href="#DejaVuSans-30" x="283.886719"/>
     <use xlink:href="#DejaVuSans-30" x="347.509766"/>
     <use xlink:href="#DejaVuSans-20" x="411.132812"/>
    </g>
   </g>
   <g id="text_18">
    <!-- p = 0.000 -->
    <g transform="translate(278.578766 183.827) scale(0.1 -0.1)">
     <use xlink:href="#DejaVuSans-70"/>
     <use xlink:href="#DejaVuSans-20" x="63.476562"/>
     <use xlink:href="#DejaVuSans-3d" x="95.263672"/>
     <use xlink:href="#DejaVuSans-20" x="179.052734"/>
     <use xlink:href="#DejaVuSans-30" x="210.839844"/>
     <use xlink:href="#DejaVuSans-2e" x="274.462891"/>
     <use xlink:href="#DejaVuSans-30" x="306.25"/>
     <use xlink:href="#DejaVuSans-30" x="369.873047"/>
     <use xlink:href="#DejaVuSans-30" x="433.496094"/>
    </g>
   </g>
  </g>
  <g id="axes_4">
   <g id="patch_9">
    <path d="M 65.477385 160.17 
L 76.343466 160.17 
L 76.343466 120.801169 
L 65.477385 120.801169 
z
" clip-path="url(#p65c9333380)" style="fill: #1f77b4; fill-opacity: 0.75; stroke: #000000; stroke-linejoin: miter"/>
   </g>
   <g id="patch_10">
    <path d="M 76.343466 160.17 
L 87.209547 160.17 
L 87.209547 133.924113 
L 76.343466 133.924113 
z
" clip-path="url(#p65c9333380)" style="fill: #1f77b4; fill-opacity: 0.75; stroke: #000000; stroke-linejoin: miter"/>
   </g>
   <g id="patch_11">
    <path d="M 87.209547 160.17 
L 98.075628 160.17 
L 98.075628 15.817619 
L 87.209547 15.817619 
z
" clip-path="url(#p65c9333380)" style="fill: #1f77b4; fill-opacity: 0.75; stroke: #000000; stroke-linejoin: miter"/>
   </g>
   <g id="patch_12">
    <path d="M 98.075628 160.17 
L 108.941709 160.17 
L 108.941709 94.555281 
L 98.075628 94.555281 
z
" clip-path="url(#p65c9333380)" style="fill: #1f77b4; fill-opacity: 0.75; stroke: #000000; stroke-linejoin: miter"/>
   </g>
   <g id="patch_13">
    <path d="M 108.941709 160.17 
L 119.807789 160.17 
L 119.807789 133.924113 
L 108.941709 133.924113 
z
" clip-path="url(#p65c9333380)" style="fill: #1f77b4; fill-opacity: 0.75; stroke: #000000; stroke-linejoin: miter"/>
   </g>
   <g id="patch_14">
    <path d="M 119.807789 160.17 
L 130.67387 160.17 
L 130.67387 147.047056 
L 119.807789 147.047056 
z
" clip-path="url(#p65c9333380)" style="fill: #1f77b4; fill-opacity: 0.75; stroke: #000000; stroke-linejoin: miter"/>
   </g>
  </g>
  <g id="axes_5">
   <g id="patch_15">
    <path d="M 236.225331 320.24 
L 256.098299 320.24 
L 256.098299 254.625281 
L 236.225331 254.625281 
z
" clip-path="url(#p5838b28b1b)" style="fill: #1f77b4; fill-opacity: 0.75; stroke: #000000; stroke-linejoin: miter"/>
   </g>
   <g id="patch_16">
    <path d="M 256.098299 320.24 
L 275.971267 320.24 
L 275.971267 293.994113 
L 256.098299 293.994113 
z
" clip-path="url(#p5838b28b1b)" style="fill: #1f77b4; fill-opacity: 0.75; stroke: #000000; stroke-linejoin: miter"/>
   </g>
   <g id="patch_17">
    <path d="M 275.971267 320.24 
L 295.844234 320.24 
L 295.844234 228.379394 
L 275.971267 228.379394 
z
" clip-path="url(#p5838b28b1b)" style="fill: #1f77b4; fill-opacity: 0.75; stroke: #000000; stroke-linejoin: miter"/>
   </g>
   <g id="patch_18">
    <path d="M 295.844234 320.24 
L 315.717202 320.24 
L 315.717202 293.994113 
L 295.844234 293.994113 
z
" clip-path="url(#p5838b28b1b)" style="fill: #1f77b4; fill-opacity: 0.75; stroke: #000000; stroke-linejoin: miter"/>
   </g>
   <g id="patch_19">
    <path d="M 315.717202 320.24 
L 335.59017 320.24 
L 335.59017 254.625281 
L 315.717202 254.625281 
z
" clip-path="url(#p5838b28b1b)" style="fill: #1f77b4; fill-opacity: 0.75; stroke: #000000; stroke-linejoin: miter"/>
   </g>
   <g id="patch_20">
    <path d="M 335.59017 320.24 
L 355.463138 320.24 
L 355.463138 280.871169 
L 335.59017 280.871169 
z
" clip-path="url(#p5838b28b1b)" style="fill: #1f77b4; fill-opacity: 0.75; stroke: #000000; stroke-linejoin: miter"/>
   </g>
  </g>
 </g>
 <defs>
  <clipPath id="p4b703548af">
   <rect x="53.98" y="168.67" width="145.642468" height="151.57"/>
  </clipPath>
  <clipPath id="p65c9333380">
   <rect x="53.98" y="8.6" width="145.642468" height="151.57"/>
  </clipPath>
  <clipPath id="p5838b28b1b">
   <rect x="205.757532" y="168.67" width="145.642468" height="151.57"/>
  </clipPath>
 </defs>
</svg>
